<svg width="505" height="498" viewBox="0 0 505 498" fill="none" xmlns="http://www.w3.org/2000/svg">
<path d="M305.858 211.511C231.29 187.925 198.566 24.2626 93.3947 108.474C18.786 168.214 72.3564 323.7 168.478 309.856C226.654 301.469 217.564 299.985 268.468 331.25C319.978 362.932 376.053 380.054 427.684 329.865C454.399 303.87 462.6 238.154 434.148 202.786C398.526 158.563 351.389 225.913 305.858 211.511Z" fill="#191230"/>
<path opacity="0.9" d="M305.858 211.511C231.29 187.925 198.566 24.2626 93.3947 108.474C18.786 168.214 72.3564 323.7 168.478 309.856C226.654 301.469 217.564 299.985 268.468 331.25C319.978 362.932 376.053 380.054 427.684 329.865C454.399 303.87 462.6 238.154 434.148 202.786C398.526 158.563 351.389 225.913 305.858 211.511Z" fill="#87E56E"/>
<path d="M252.5 425.85C360.653 425.85 448.329 420.802 448.329 414.575C448.329 408.348 360.653 403.3 252.5 403.3C144.347 403.3 56.6711 408.348 56.6711 414.575C56.6711 420.802 144.347 425.85 252.5 425.85Z" fill="#F5F5F5"/>
<path d="M99.4749 369.307C99.4749 369.307 107.312 360.114 112.322 364.397C117.332 368.679 114.797 377.783 109.019 378.072C105.593 378.252 102.213 377.232 99.4749 375.193V369.307Z" fill="#87E56E"/>
<path opacity="0.1" d="M99.4749 369.307C99.4749 369.307 107.312 360.114 112.322 364.397C117.332 368.679 114.797 377.783 109.019 378.072C105.593 378.252 102.213 377.232 99.4749 375.193V369.307Z" fill="white"/>
<path d="M67.5286 345.99C67.5286 345.99 60.9535 339.198 56.8832 340.353C52.8129 341.508 53.237 357.733 65.8621 351.17L67.5286 345.99Z" fill="#87E56E"/>
<path opacity="0.2" d="M67.5286 345.99C67.5286 345.99 60.9535 339.198 56.8832 340.353C52.8129 341.508 53.237 357.733 65.8621 351.17L67.5286 345.99Z" fill="white"/>
<path d="M91.0211 396.687C91.0211 396.687 112.635 367.524 95.0611 361.618C77.4871 355.711 74.3864 385.073 79.4061 393.251C84.4258 401.428 91.0211 396.687 91.0211 396.687Z" fill="#87E56E"/>
<path d="M81.0019 336.987C81.0019 336.987 67.5891 306.29 87.4558 305.364C107.322 304.437 109.474 335.801 86.6175 340.353L81.0019 336.987Z" fill="#87E56E"/>
<path opacity="0.2" d="M91.0211 396.687C91.0211 396.687 112.635 367.524 95.0611 361.618C77.4871 355.711 74.3864 385.073 79.4061 393.251C84.4258 401.428 91.0211 396.687 91.0211 396.687Z" fill="white"/>
<path opacity="0.2" d="M81.0019 336.987C81.0019 336.987 67.5891 306.29 87.4558 305.364C107.322 304.437 109.474 335.801 86.6175 340.353L81.0019 336.987Z" fill="white"/>
<path d="M85.7591 362.126C85.7591 362.126 92.2736 335.015 79.6991 332.853C67.1246 330.692 54.8531 355.184 80.8 367.524C80.8 367.524 85.2137 364.775 85.7591 362.126Z" fill="#87E56E"/>
<path opacity="0.1" d="M85.7591 362.126C85.7591 362.126 92.2736 335.015 79.6991 332.853C67.1246 330.692 54.8531 355.184 80.8 367.524C80.8 367.524 85.2137 364.775 85.7591 362.126Z" fill="white"/>
<path d="M106.575 392.553H70.2959L73.3259 415.442H103.545L106.575 392.553Z" fill="#87E56E"/>
<path d="M87.7084 334.795C88.5244 333.976 89.2964 333.115 90.0213 332.216C90.7667 331.346 91.4614 330.435 92.1019 329.487C93.3949 327.614 94.4817 325.611 95.344 323.511C96.1789 321.416 96.6698 319.204 96.7984 316.957V315.264C96.7984 314.706 96.657 314.138 96.6065 313.581C96.6065 313.292 96.6065 313.003 96.5156 312.724L96.3136 311.897C96.1722 311.34 96.0409 310.782 95.9197 310.214C96.9419 312.325 97.493 314.628 97.5357 316.967C97.5636 319.329 97.1245 321.673 96.2429 323.869C95.3561 326.044 94.1589 328.084 92.6877 329.925C91.2633 331.767 89.5877 333.406 87.7084 334.795Z" fill="#87E56E"/>
<path d="M92.4654 308.451C90.3911 309.249 88.5034 310.455 86.9179 311.996C85.3324 313.537 84.0823 315.381 83.2441 317.415L82.6684 318.949C82.4967 319.467 82.4058 320.015 82.2644 320.533C82.0097 321.603 81.8208 322.687 81.6988 323.78C81.5877 324.875 81.5877 325.991 81.5372 327.096C81.4867 328.202 81.6281 329.327 81.6281 330.453C81.3958 329.357 81.2342 328.242 81.0423 327.126C80.8504 326.011 80.911 324.865 80.9312 323.73C80.9931 321.436 81.4614 319.171 82.3149 317.037C83.6494 313.815 86.0917 311.16 89.2132 309.537C90.2422 309.031 91.3363 308.666 92.4654 308.451Z" fill="#87E56E"/>
<path d="M77.275 334.795C75.9223 335.483 74.7182 336.423 73.7299 337.564C72.734 338.673 71.9473 339.948 71.4069 341.329C70.8589 342.697 70.5185 344.136 70.3969 345.602C70.3667 345.967 70.3667 346.333 70.3969 346.698C70.3969 347.056 70.3969 347.415 70.3969 347.773C70.4913 348.492 70.6467 349.202 70.8615 349.895C71.8003 352.718 73.2438 355.352 75.1237 357.674C76.0323 358.88 77.0067 360.037 78.0426 361.14C79.0526 362.275 80.1333 363.341 81.2342 364.397C78.7488 362.589 76.4936 360.492 74.5177 358.152C73.5119 356.978 72.6002 355.729 71.7907 354.417C70.9888 353.082 70.3514 351.657 69.8919 350.174C69.667 349.422 69.5082 348.652 69.4172 347.873C69.3971 347.478 69.3971 347.082 69.4172 346.688C69.4016 346.295 69.4219 345.902 69.4778 345.512C69.6359 343.963 70.0487 342.449 70.6999 341.03C71.3199 339.612 72.2208 338.33 73.3499 337.259C74.4789 336.188 75.8134 335.351 77.275 334.795Z" fill="#87E56E"/>
<path d="M81.002 336.987C80.8404 338.032 80.6687 339.068 80.5879 340.114C80.4555 341.148 80.3881 342.189 80.3859 343.232C80.363 344.258 80.4272 345.284 80.5778 346.299C80.6841 347.281 81.0045 348.229 81.5171 349.078C81.8194 349.539 82.0861 350.022 82.315 350.522C82.5267 351.029 82.6956 351.552 82.82 352.086C83.0693 353.141 83.2047 354.22 83.224 355.303C83.2776 357.429 83.0432 359.553 82.5271 361.618C82.5271 360.562 82.618 359.516 82.5978 358.47C82.6083 357.429 82.5577 356.388 82.4463 355.353C82.3583 353.315 81.7429 351.333 80.6586 349.596C80.0918 348.622 79.7472 347.538 79.6486 346.419C79.5325 345.343 79.5325 344.258 79.6486 343.182C79.8242 341.067 80.2791 338.985 81.002 336.987Z" fill="#87E56E"/>
<path d="M89.8192 364.397C89.3485 364.675 88.9561 365.065 88.6779 365.532C88.3954 366 88.1521 366.489 87.9507 366.996C87.5135 368.012 87.149 369.057 86.8599 370.124C86.2741 372.245 85.759 374.376 85.3146 376.538C84.8702 378.699 84.4561 380.86 84.0319 383.022C83.8198 384.107 83.6279 385.193 83.4461 386.289C83.2643 387.384 83.0724 388.46 82.9108 389.565C82.8567 387.342 82.9749 385.118 83.2643 382.912C83.5067 380.701 83.8804 378.51 84.3248 376.339C84.7722 374.152 85.3729 371.999 86.1226 369.894C86.5037 368.835 86.9593 367.804 87.4861 366.807C87.7821 366.315 88.12 365.848 88.4961 365.412C88.8286 364.955 89.2881 364.602 89.8192 364.397Z" fill="#87E56E"/>
<path d="M95.95 365.343C96.8876 367.22 97.4955 369.241 97.7478 371.319C98.0156 373.413 97.9337 375.536 97.5054 377.603C97.4147 378.124 97.283 378.637 97.1115 379.137C96.9499 379.645 96.8186 380.133 96.6166 380.641C95.8022 382.591 94.677 384.4 93.2836 386C92.9443 386.397 92.5728 386.767 92.1726 387.105C91.7888 387.474 91.405 387.822 91.0111 388.161C92.3461 386.594 93.5075 384.892 94.4754 383.081C95.435 381.3 96.1161 379.386 96.4954 377.404C96.9082 375.44 97.0576 373.431 96.9398 371.428C96.8389 369.37 96.5069 367.329 95.95 365.343Z" fill="#87E56E"/>
<path d="M62.4281 349.307C61.848 349.536 61.2235 349.635 60.6 349.596C59.9758 349.571 59.3608 349.439 58.782 349.208C58.1993 348.96 57.6787 348.589 57.2569 348.122C56.8354 347.662 56.5582 347.091 56.459 346.479C56.8742 346.864 57.3164 347.22 57.7821 347.544C58.2265 347.834 58.6964 348.084 59.186 348.291C60.2448 348.694 61.3275 349.034 62.4281 349.307Z" fill="#87E56E"/>
<path d="M63.7713 344.825L62.1654 344.088C61.6613 343.854 61.1375 343.664 60.5999 343.52C60.1019 343.373 59.5846 343.299 59.0647 343.301C58.4983 343.35 57.9412 343.474 57.4083 343.67C57.7605 343.128 58.298 342.729 58.9233 342.544C59.5638 342.365 60.2423 342.365 60.8827 342.544C61.4931 342.724 62.0625 343.018 62.5593 343.411C63.0628 343.79 63.4765 344.272 63.7713 344.825Z" fill="#87E56E"/>
<path d="M103.02 370.671C103.389 369.906 103.88 369.203 104.474 368.59C105.059 367.952 105.741 367.408 106.494 366.976C107.275 366.497 108.182 366.258 109.1 366.289C109.552 366.307 109.995 366.424 110.395 366.633C110.795 366.841 111.143 367.136 111.413 367.494C110.708 367.132 109.911 366.983 109.12 367.066C108.363 367.176 107.637 367.441 106.989 367.843C105.604 368.698 104.278 369.643 103.02 370.671Z" fill="#87E56E"/>
<path d="M103.02 375.193C104.963 375.164 106.902 375.021 108.827 374.765C109.747 374.638 110.638 374.359 111.463 373.938C112.296 373.507 112.95 372.802 113.312 371.946C113.305 372.468 113.173 372.981 112.927 373.443C112.682 373.905 112.329 374.303 111.898 374.606C111.043 375.221 110.047 375.617 108.999 375.761C107.997 375.917 106.979 375.951 105.969 375.861C104.959 375.775 103.967 375.55 103.02 375.193Z" fill="#87E56E"/>
<g opacity="0.4">
<path opacity="0.4" d="M106.575 392.553H70.2959L73.3259 415.442H103.545L106.575 392.553Z" fill="black"/>
</g>
<path d="M265.711 110.377V385.741C265.711 386.314 265.595 386.881 265.371 387.409C265.147 387.937 264.819 388.417 264.406 388.819C263.992 389.221 263.502 389.538 262.963 389.752C262.424 389.965 261.847 390.071 261.267 390.064H121.887C121.37 390.069 120.858 389.974 120.379 389.782C119.901 389.591 119.465 389.307 119.099 388.948C118.913 388.771 118.747 388.574 118.604 388.36C118.149 387.692 117.91 386.904 117.917 386.099V110.018C117.882 109.095 118.219 108.196 118.856 107.518C119.492 106.84 120.375 106.439 121.311 106.403H160.893C161.303 106.404 161.708 106.499 162.075 106.682C162.202 106.734 162.321 106.804 162.428 106.891C162.65 107.047 162.851 107.231 163.024 107.439C163.197 107.656 163.336 107.898 163.438 108.156L165.084 112.14V112.229C165.185 112.448 165.31 112.656 165.458 112.847C165.717 113.157 166.042 113.408 166.411 113.58C166.779 113.752 167.182 113.842 167.589 113.843H216.14C216.689 113.84 217.224 113.675 217.678 113.37C218.131 113.064 218.482 112.633 218.685 112.13L220.331 108.146C220.53 107.636 220.878 107.196 221.332 106.882C221.785 106.568 222.323 106.394 222.877 106.383H261.883C262.919 106.436 263.894 106.881 264.607 107.625C265.32 108.368 265.715 109.354 265.711 110.377Z" fill="#EFEFEF"/>
<path d="M265.71 110.377V125.645H117.947V110.018C117.912 109.095 118.249 108.196 118.886 107.518C119.522 106.84 120.405 106.439 121.341 106.403H160.923C161.333 106.404 161.738 106.499 162.105 106.682C162.232 106.734 162.351 106.804 162.458 106.891C162.68 107.047 162.881 107.231 163.054 107.439C163.227 107.656 163.366 107.898 163.468 108.156L165.114 112.14V112.229C165.215 112.448 165.34 112.656 165.488 112.847C165.747 113.157 166.072 113.408 166.441 113.58C166.809 113.752 167.212 113.842 167.619 113.843H216.14C216.689 113.84 217.224 113.675 217.678 113.37C218.131 113.064 218.482 112.633 218.685 112.13L220.331 108.146C220.53 107.636 220.878 107.196 221.331 106.882C221.785 106.568 222.323 106.394 222.876 106.383H261.883C262.919 106.436 263.894 106.881 264.607 107.625C265.319 108.368 265.714 109.354 265.71 110.377Z" fill="#263238"/>
<path d="M117.948 376.986H265.711V385.741C265.711 386.314 265.595 386.881 265.371 387.409C265.147 387.937 264.819 388.417 264.405 388.819C263.992 389.221 263.502 389.538 262.963 389.752C262.424 389.965 261.847 390.071 261.267 390.064H121.887C121.37 390.069 120.858 389.974 120.379 389.782C119.9 389.591 119.465 389.307 119.099 388.948C118.913 388.771 118.747 388.574 118.604 388.36C118.149 387.692 117.91 386.904 117.917 386.099L117.948 376.986Z" fill="#263238"/>
<path opacity="0.3" d="M265.711 125.645H117.948V376.986H265.711V125.645Z" fill="#EFEFEF"/>
<path d="M127.007 240.036H128.017V245.604H127.007V240.036Z" fill="#EFEFEF"/>
<path d="M133.734 243.143V245.574H132.724V243.273C132.724 242.516 132.34 242.147 131.714 242.147C131.545 242.137 131.375 242.164 131.217 242.226C131.06 242.288 130.918 242.384 130.803 242.508C130.688 242.631 130.602 242.778 130.552 242.938C130.501 243.098 130.488 243.267 130.512 243.432V245.574H129.502V241.321H130.462V241.879C130.65 241.678 130.88 241.52 131.137 241.417C131.393 241.313 131.67 241.267 131.946 241.281C132.195 241.263 132.444 241.299 132.676 241.388C132.909 241.476 133.118 241.615 133.289 241.793C133.46 241.972 133.589 242.185 133.666 242.419C133.743 242.652 133.766 242.9 133.734 243.143Z" fill="#EFEFEF"/>
<path d="M137.623 245.345C137.328 245.55 136.973 245.652 136.613 245.634C136.414 245.659 136.213 245.639 136.023 245.577C135.833 245.514 135.66 245.41 135.517 245.272C135.375 245.133 135.265 244.965 135.198 244.78C135.13 244.594 135.106 244.395 135.128 244.199V242.157H134.411V241.361H135.128V240.365H136.138V241.361H137.36V242.157H136.198V244.149C136.186 244.233 136.193 244.317 136.218 244.398C136.244 244.478 136.287 244.551 136.345 244.613C136.404 244.674 136.475 244.721 136.555 244.752C136.634 244.782 136.72 244.794 136.804 244.787C137.008 244.788 137.206 244.726 137.37 244.608L137.623 245.345Z" fill="#EFEFEF"/>
<path d="M140.946 241.281V242.227H140.713C140.539 242.215 140.363 242.242 140.201 242.305C140.038 242.368 139.891 242.466 139.771 242.592C139.651 242.718 139.561 242.868 139.508 243.033C139.454 243.197 139.438 243.371 139.461 243.542V245.604H138.451V241.351H139.38V241.978C139.554 241.735 139.791 241.542 140.067 241.42C140.342 241.297 140.645 241.249 140.946 241.281Z" fill="#EFEFEF"/>
<path d="M141.4 243.452C141.382 242.999 141.502 242.551 141.744 242.166C141.986 241.781 142.34 241.476 142.759 241.29C143.179 241.105 143.645 241.048 144.097 241.126C144.55 241.204 144.969 241.414 145.3 241.728C145.631 242.043 145.858 242.448 145.954 242.892C146.049 243.335 146.008 243.797 145.835 244.217C145.662 244.637 145.366 244.996 144.984 245.249C144.602 245.501 144.152 245.635 143.693 245.634C143.394 245.65 143.095 245.606 142.815 245.503C142.534 245.4 142.279 245.241 142.063 245.037C141.848 244.832 141.678 244.585 141.564 244.313C141.45 244.04 141.394 243.747 141.4 243.452ZM144.975 243.452C144.962 243.206 144.875 242.968 144.726 242.77C144.577 242.571 144.372 242.42 144.137 242.335C143.901 242.249 143.646 242.234 143.402 242.29C143.158 242.347 142.936 242.472 142.764 242.652C142.591 242.831 142.476 243.056 142.432 243.3C142.388 243.543 142.417 243.794 142.516 244.021C142.615 244.248 142.779 244.441 142.988 244.578C143.197 244.714 143.442 244.787 143.693 244.787C143.869 244.793 144.045 244.762 144.209 244.697C144.373 244.631 144.521 244.532 144.643 244.406C144.765 244.28 144.859 244.13 144.918 243.965C144.977 243.801 145 243.626 144.985 243.452H144.975Z" fill="#EFEFEF"/>
<path d="M151.197 239.667V245.574H150.187V245.016C150.013 245.218 149.793 245.378 149.547 245.483C149.3 245.588 149.032 245.637 148.763 245.624C148.203 245.586 147.679 245.341 147.296 244.937C146.913 244.533 146.7 244 146.7 243.447C146.7 242.894 146.913 242.362 147.296 241.958C147.679 241.554 148.203 241.308 148.763 241.271C149.022 241.259 149.28 241.303 149.52 241.401C149.759 241.499 149.973 241.649 150.147 241.839V239.658L151.197 239.667ZM150.187 243.452C150.173 243.206 150.086 242.968 149.937 242.77C149.788 242.571 149.583 242.42 149.348 242.335C149.113 242.249 148.857 242.234 148.613 242.29C148.369 242.347 148.148 242.472 147.975 242.652C147.803 242.831 147.687 243.056 147.643 243.3C147.599 243.543 147.629 243.794 147.727 244.021C147.826 244.248 147.99 244.441 148.199 244.578C148.409 244.714 148.654 244.787 148.904 244.787C149.081 244.793 149.258 244.762 149.422 244.697C149.586 244.631 149.735 244.532 149.858 244.406C149.98 244.28 150.075 244.13 150.135 243.966C150.196 243.802 150.22 243.627 150.207 243.452H150.187Z" fill="#EFEFEF"/>
<path d="M156.701 241.321V245.574H155.691V245.016C155.519 245.212 155.304 245.367 155.063 245.47C154.822 245.573 154.56 245.622 154.298 245.614C154.044 245.636 153.788 245.603 153.549 245.515C153.31 245.428 153.094 245.289 152.917 245.108C152.74 244.928 152.606 244.71 152.525 244.472C152.444 244.234 152.418 243.981 152.449 243.731V241.301H153.459V243.602C153.459 244.369 153.833 244.737 154.469 244.737C155.106 244.737 155.651 244.309 155.651 243.452V241.301L156.701 241.321Z" fill="#EFEFEF"/>
<path d="M157.671 243.452C157.668 243.155 157.727 242.86 157.844 242.587C157.962 242.313 158.136 242.067 158.355 241.863C158.574 241.659 158.834 241.502 159.118 241.401C159.402 241.301 159.703 241.26 160.004 241.281C160.377 241.254 160.749 241.333 161.077 241.51C161.405 241.687 161.674 241.953 161.852 242.277L161.075 242.725C160.965 242.542 160.808 242.39 160.62 242.285C160.433 242.18 160.22 242.126 160.004 242.128C159.645 242.128 159.301 242.268 159.047 242.519C158.793 242.769 158.651 243.108 158.651 243.462C158.651 243.816 158.793 244.156 159.047 244.406C159.301 244.656 159.645 244.797 160.004 244.797C160.22 244.798 160.433 244.744 160.62 244.639C160.808 244.534 160.965 244.383 161.075 244.199L161.852 244.647C161.667 244.965 161.396 245.226 161.07 245.402C160.744 245.578 160.375 245.661 160.004 245.643C159.702 245.663 159.399 245.62 159.115 245.518C158.83 245.416 158.57 245.258 158.351 245.052C158.132 244.846 157.958 244.598 157.841 244.322C157.724 244.047 157.666 243.751 157.671 243.452Z" fill="#EFEFEF"/>
<path d="M165.377 245.345C165.083 245.55 164.727 245.652 164.367 245.634C164.169 245.659 163.967 245.639 163.778 245.577C163.588 245.514 163.415 245.41 163.272 245.272C163.129 245.133 163.02 244.965 162.952 244.78C162.885 244.594 162.861 244.395 162.883 244.199V242.157H162.166V241.361H162.883V240.365H163.893V241.361H165.054V242.157H163.923V244.149C163.91 244.233 163.917 244.317 163.943 244.398C163.968 244.478 164.012 244.551 164.07 244.613C164.128 244.674 164.2 244.721 164.279 244.752C164.359 244.782 164.444 244.794 164.529 244.787C164.732 244.788 164.93 244.726 165.095 244.608L165.377 245.345Z" fill="#EFEFEF"/>
<path d="M166.074 240.036C166.076 239.955 166.093 239.876 166.126 239.802C166.159 239.728 166.206 239.661 166.265 239.606C166.325 239.55 166.394 239.507 166.471 239.478C166.547 239.449 166.629 239.436 166.711 239.438C166.792 239.433 166.873 239.444 166.95 239.47C167.027 239.497 167.098 239.538 167.158 239.592C167.218 239.646 167.267 239.711 167.301 239.784C167.335 239.857 167.354 239.936 167.357 240.016C167.358 240.099 167.343 240.182 167.31 240.259C167.278 240.336 167.23 240.405 167.17 240.463C167.109 240.521 167.037 240.566 166.958 240.595C166.879 240.625 166.795 240.638 166.711 240.634C166.628 240.638 166.546 240.625 166.469 240.597C166.392 240.569 166.322 240.525 166.262 240.469C166.203 240.414 166.155 240.346 166.123 240.272C166.091 240.197 166.074 240.117 166.074 240.036ZM166.206 241.331H167.216V245.584H166.206V241.331Z" fill="#EFEFEF"/>
<path d="M168.185 243.452C168.167 242.999 168.287 242.551 168.529 242.166C168.771 241.781 169.125 241.476 169.544 241.29C169.964 241.105 170.43 241.048 170.883 241.126C171.335 241.204 171.754 241.414 172.085 241.728C172.416 242.043 172.644 242.448 172.739 242.892C172.834 243.335 172.793 243.797 172.62 244.217C172.447 244.637 172.151 244.996 171.769 245.249C171.387 245.501 170.938 245.635 170.478 245.634C170.179 245.65 169.88 245.606 169.6 245.503C169.32 245.4 169.064 245.241 168.848 245.037C168.633 244.832 168.463 244.585 168.349 244.313C168.235 244.04 168.179 243.747 168.185 243.452ZM171.761 243.452C171.747 243.206 171.66 242.968 171.511 242.77C171.362 242.571 171.157 242.42 170.922 242.335C170.686 242.249 170.431 242.234 170.187 242.29C169.943 242.347 169.721 242.472 169.549 242.652C169.376 242.831 169.261 243.056 169.217 243.3C169.173 243.543 169.202 243.794 169.301 244.021C169.4 244.248 169.564 244.441 169.773 244.578C169.982 244.714 170.227 244.787 170.478 244.787C170.654 244.792 170.829 244.76 170.991 244.694C171.154 244.627 171.3 244.528 171.421 244.402C171.542 244.276 171.635 244.126 171.693 243.963C171.752 243.799 171.775 243.625 171.761 243.452Z" fill="#EFEFEF"/>
<path d="M178.002 243.144V245.574H176.992V243.273C176.992 242.516 176.609 242.148 175.982 242.148C175.813 242.137 175.643 242.164 175.485 242.226C175.328 242.288 175.186 242.384 175.071 242.508C174.956 242.631 174.87 242.778 174.82 242.938C174.77 243.098 174.756 243.267 174.781 243.432V245.574H173.771V241.321H174.73V241.879C174.919 241.677 175.152 241.519 175.41 241.415C175.668 241.312 175.946 241.266 176.225 241.281C176.472 241.266 176.719 241.305 176.949 241.395C177.18 241.485 177.387 241.623 177.556 241.801C177.726 241.979 177.854 242.191 177.931 242.423C178.008 242.655 178.033 242.901 178.002 243.144Z" fill="#EFEFEF"/>
<path opacity="0.7" d="M257.58 151.81H126.25V233.861H257.58V151.81Z" fill="#55AD7A"/>
<path opacity="0.5" d="M257.58 231.211H126.25V233.861H257.58V231.211Z" fill="black"/>
<path opacity="0.6" d="M171.751 231.211H126.25V233.861H171.751V231.211Z" fill="#EFEFEF"/>
<path d="M175.245 232.626C175.245 233.249 175.058 233.858 174.706 234.375C174.355 234.893 173.856 235.297 173.272 235.534C172.689 235.772 172.046 235.834 171.427 235.712C170.808 235.59 170.239 235.289 169.793 234.848C169.347 234.407 169.044 233.845 168.922 233.234C168.8 232.622 168.865 231.989 169.108 231.414C169.351 230.839 169.761 230.349 170.288 230.004C170.814 229.659 171.432 229.476 172.064 229.478C172.482 229.478 172.897 229.56 173.283 229.718C173.67 229.876 174.021 230.108 174.317 230.401C174.612 230.693 174.846 231.04 175.006 231.422C175.165 231.804 175.246 232.213 175.245 232.626Z" fill="#EFEFEF"/>
<path opacity="0.4" d="M244.652 240.683L249.894 245.853L255.126 240.683H244.652Z" fill="#EFEFEF"/>
<path opacity="0.4" d="M257.58 257.048H126.25V303.372H257.58V257.048Z" fill="#98EB51"/>
<path opacity="0.3" d="M178.598 262.356H132.451V298.073H178.598V262.356Z" fill="black"/>
<path d="M184.668 267.038C184.689 266.595 184.842 266.169 185.106 265.812C185.371 265.454 185.736 265.181 186.156 265.026C186.577 264.871 187.034 264.841 187.472 264.94C187.909 265.04 188.308 265.263 188.617 265.583L188.112 266.052C187.97 265.895 187.796 265.77 187.601 265.686C187.406 265.602 187.194 265.56 186.981 265.563C186.731 265.564 186.485 265.626 186.265 265.745C186.046 265.863 185.86 266.034 185.725 266.242C185.59 266.449 185.51 266.687 185.492 266.933C185.475 267.179 185.52 267.426 185.624 267.65C185.728 267.875 185.887 268.07 186.088 268.218C186.288 268.366 186.523 268.461 186.77 268.497C187.018 268.532 187.271 268.505 187.505 268.419C187.74 268.333 187.948 268.19 188.112 268.004L188.617 268.492C188.308 268.812 187.909 269.036 187.472 269.135C187.034 269.234 186.577 269.204 186.156 269.049C185.736 268.894 185.371 268.621 185.106 268.264C184.842 267.906 184.689 267.48 184.668 267.038Z" fill="#EFEFEF"/>
<path d="M192.496 267.297V269.129H191.738V267.396C191.738 266.828 191.456 266.55 190.971 266.55C190.84 266.542 190.71 266.563 190.589 266.612C190.468 266.661 190.36 266.736 190.273 266.832C190.185 266.927 190.121 267.041 190.085 267.165C190.048 267.288 190.04 267.419 190.062 267.546V269.159H189.304V264.727H190.062V266.34C190.203 266.202 190.372 266.094 190.558 266.024C190.745 265.954 190.943 265.922 191.142 265.932C191.326 265.918 191.511 265.944 191.684 266.008C191.857 266.072 192.013 266.173 192.142 266.303C192.271 266.433 192.37 266.589 192.431 266.761C192.492 266.933 192.514 267.115 192.496 267.297Z" fill="#EFEFEF"/>
<path d="M196.162 267.257V269.129H195.455V268.741C195.336 268.889 195.181 269.005 195.005 269.08C194.829 269.155 194.636 269.185 194.445 269.169C193.708 269.169 193.243 268.771 193.243 268.173C193.243 267.575 193.607 267.177 194.587 267.177H195.415C195.415 266.739 195.152 266.48 194.617 266.48C194.253 266.469 193.896 266.581 193.607 266.799L193.304 266.251C193.708 265.981 194.189 265.845 194.677 265.862C195.627 265.932 196.162 266.34 196.162 267.257ZM195.405 268.133V267.755H194.627C194.112 267.755 193.97 267.954 193.97 268.183C193.97 268.412 194.203 268.621 194.587 268.621C194.758 268.636 194.93 268.597 195.077 268.509C195.224 268.422 195.339 268.29 195.405 268.133Z" fill="#EFEFEF"/>
<path d="M200.576 267.536C200.587 267.752 200.553 267.969 200.474 268.171C200.396 268.374 200.275 268.558 200.12 268.712C199.965 268.866 199.779 268.986 199.574 269.065C199.369 269.144 199.149 269.179 198.93 269.169C198.74 269.171 198.552 269.134 198.378 269.061C198.204 268.987 198.048 268.878 197.92 268.741V270.285H197.172V265.932H197.889V266.35C198.026 266.205 198.194 266.093 198.381 266.02C198.568 265.948 198.77 265.918 198.97 265.932C199.184 265.928 199.396 265.967 199.594 266.046C199.792 266.125 199.972 266.244 200.122 266.394C200.272 266.544 200.39 266.722 200.468 266.919C200.546 267.115 200.583 267.325 200.576 267.536ZM199.798 267.536C199.808 267.407 199.791 267.279 199.747 267.157C199.704 267.036 199.635 266.925 199.546 266.831C199.457 266.738 199.348 266.663 199.228 266.613C199.108 266.563 198.979 266.538 198.849 266.54C198.581 266.54 198.324 266.645 198.135 266.831C197.945 267.018 197.839 267.271 197.839 267.536C197.839 267.8 197.945 268.053 198.135 268.24C198.324 268.427 198.581 268.532 198.849 268.532C198.979 268.533 199.108 268.508 199.228 268.458C199.348 268.408 199.457 268.333 199.546 268.24C199.635 268.146 199.704 268.035 199.747 267.914C199.791 267.793 199.808 267.664 199.798 267.536Z" fill="#EFEFEF"/>
<path d="M203.242 268.92C203.032 269.072 202.776 269.149 202.515 269.139C202.366 269.156 202.216 269.14 202.074 269.092C201.932 269.045 201.803 268.966 201.696 268.863C201.589 268.76 201.506 268.635 201.454 268.497C201.401 268.359 201.381 268.211 201.394 268.063V266.53H200.869V265.932H201.394V265.205H202.151V265.932H203.01V266.53H202.141V268.044C202.132 268.106 202.137 268.169 202.156 268.23C202.175 268.29 202.208 268.345 202.252 268.391C202.295 268.437 202.349 268.472 202.409 268.495C202.468 268.518 202.532 268.527 202.596 268.522C202.748 268.525 202.896 268.479 203.02 268.392L203.242 268.92Z" fill="#EFEFEF"/>
<path d="M206.787 267.775H204.242C204.297 267.996 204.428 268.191 204.612 268.329C204.795 268.467 205.021 268.538 205.252 268.532C205.414 268.538 205.576 268.512 205.728 268.453C205.879 268.395 206.016 268.306 206.131 268.193L206.535 268.651C206.29 268.891 205.98 269.057 205.643 269.129C205.306 269.202 204.955 269.178 204.63 269.061C204.306 268.944 204.022 268.739 203.812 268.468C203.602 268.198 203.475 267.875 203.444 267.536C203.439 267.318 203.478 267.101 203.561 266.899C203.643 266.697 203.767 266.514 203.924 266.361C204.081 266.208 204.268 266.088 204.474 266.009C204.68 265.93 204.9 265.894 205.121 265.902C205.341 265.893 205.56 265.93 205.764 266.01C205.969 266.09 206.154 266.211 206.308 266.366C206.463 266.521 206.582 266.706 206.659 266.909C206.737 267.112 206.77 267.329 206.757 267.546C206.797 267.605 206.787 267.695 206.787 267.775ZM204.242 267.277H206.04C206.001 267.066 205.888 266.875 205.721 266.738C205.554 266.6 205.343 266.525 205.126 266.525C204.908 266.525 204.698 266.6 204.531 266.738C204.364 266.875 204.251 267.066 204.212 267.277H204.242Z" fill="#EFEFEF"/>
<path d="M209.393 265.932V266.639H209.221C209.09 266.63 208.958 266.651 208.835 266.699C208.712 266.747 208.602 266.821 208.512 266.917C208.422 267.012 208.354 267.126 208.315 267.25C208.275 267.375 208.264 267.506 208.282 267.635V269.189H207.525V265.932H208.242V266.4C208.378 266.233 208.555 266.102 208.757 266.02C208.958 265.938 209.177 265.908 209.393 265.932Z" fill="#EFEFEF"/>
<path d="M211.514 267.038C211.514 265.663 212.272 264.886 213.282 264.886C214.292 264.886 215.059 265.663 215.059 267.038C215.059 268.412 214.292 269.189 213.282 269.189C212.272 269.189 211.514 268.412 211.514 267.038ZM214.261 267.038C214.261 266.042 213.857 265.563 213.251 265.563C212.645 265.563 212.241 266.022 212.241 267.038C212.241 268.053 212.645 268.512 213.251 268.512C213.857 268.512 214.261 268.044 214.261 267.038Z" fill="#EFEFEF"/>
<path d="M217.029 264.936V269.119H216.241V265.583H215.342V264.936H217.029Z" fill="#EFEFEF"/>
<path opacity="0.5" d="M245.773 273.312H185.517C184.903 273.312 184.406 273.803 184.406 274.408V274.468C184.406 275.073 184.903 275.563 185.517 275.563H245.773C246.387 275.563 246.884 275.073 246.884 274.468V274.408C246.884 273.803 246.387 273.312 245.773 273.312Z" fill="#EFEFEF"/>
<path opacity="0.5" d="M234.663 278.292H185.517C184.903 278.292 184.406 278.783 184.406 279.388V279.448C184.406 280.053 184.903 280.543 185.517 280.543H234.663C235.277 280.543 235.774 280.053 235.774 279.448V279.388C235.774 278.783 235.277 278.292 234.663 278.292Z" fill="#EFEFEF"/>
<path opacity="0.6" d="M147.884 273.691V286.728L161.105 280.215L147.884 273.691Z" fill="#EFEFEF"/>
<path d="M256.409 146.034L251.732 142.059L247.066 146.034V135.107H256.409V146.034Z" fill="#EFEFEF"/>
<path d="M239.552 135.107H232.482C232.018 135.107 231.574 135.289 231.246 135.612C230.919 135.935 230.734 136.373 230.734 136.83V141.571C230.737 142.028 230.922 142.464 231.249 142.787C231.576 143.11 232.019 143.292 232.482 143.295H234.865V146.034L236.683 143.295H239.511C239.975 143.295 240.419 143.113 240.747 142.79C241.075 142.467 241.259 142.028 241.259 141.571V136.83C241.261 136.38 241.084 135.946 240.764 135.623C240.445 135.301 240.009 135.115 239.552 135.107Z" fill="#EFEFEF"/>
<path d="M225.452 136.452C224.159 134.35 221.655 135.137 220.352 136.761C219.069 135.127 216.564 134.311 215.241 136.392C213.019 139.918 217.544 143.225 219.695 144.52L220.301 144.888L220.917 144.53C223.069 143.215 227.644 139.968 225.452 136.452Z" fill="#EFEFEF"/>
<path d="M173.306 142.806H128.694C127.344 142.806 126.25 143.886 126.25 145.217V145.366C126.25 146.697 127.344 147.777 128.694 147.777H173.306C174.656 147.777 175.75 146.697 175.75 145.366V145.217C175.75 143.886 174.656 142.806 173.306 142.806Z" fill="#EFEFEF"/>
<path d="M187.87 135.107H128.694C127.344 135.107 126.25 136.187 126.25 137.518V137.667C126.25 138.998 127.344 140.077 128.694 140.077H187.87C189.22 140.077 190.314 138.998 190.314 137.667V137.518C190.314 136.187 189.22 135.107 187.87 135.107Z" fill="#EFEFEF"/>
<path opacity="0.4" d="M257.58 308.85H126.25V355.174H257.58V308.85Z" fill="#98EB51"/>
<path opacity="0.3" d="M178.598 314.148H132.451V349.865H178.598V314.148Z" fill="black"/>
<path d="M184.668 318.83C184.689 318.387 184.842 317.961 185.106 317.604C185.371 317.246 185.736 316.973 186.156 316.818C186.577 316.663 187.034 316.633 187.472 316.732C187.909 316.832 188.308 317.055 188.617 317.375L188.112 317.853C187.97 317.697 187.796 317.572 187.601 317.488C187.406 317.404 187.194 317.362 186.981 317.365C186.775 317.349 186.568 317.374 186.373 317.441C186.177 317.507 185.998 317.612 185.846 317.75C185.694 317.888 185.572 318.056 185.489 318.243C185.407 318.429 185.364 318.631 185.364 318.835C185.364 319.038 185.407 319.24 185.489 319.427C185.572 319.613 185.694 319.781 185.846 319.919C185.998 320.057 186.177 320.162 186.373 320.229C186.568 320.295 186.775 320.32 186.981 320.304C187.195 320.305 187.406 320.262 187.602 320.176C187.797 320.09 187.971 319.964 188.112 319.806L188.617 320.284C188.308 320.604 187.909 320.828 187.472 320.927C187.034 321.026 186.577 320.996 186.156 320.841C185.736 320.686 185.371 320.413 185.106 320.056C184.842 319.698 184.689 319.272 184.668 318.83Z" fill="#EFEFEF"/>
<path d="M192.496 319.098V320.921H191.738V319.188C191.738 318.62 191.456 318.351 190.971 318.351C190.84 318.342 190.709 318.362 190.587 318.41C190.465 318.458 190.356 318.533 190.268 318.629C190.18 318.726 190.116 318.84 190.08 318.965C190.045 319.089 190.038 319.22 190.062 319.347V320.961H189.304V316.529H190.062V318.142C190.205 318.006 190.374 317.899 190.56 317.829C190.745 317.759 190.944 317.727 191.142 317.734C191.326 317.722 191.51 317.749 191.682 317.814C191.854 317.878 192.009 317.979 192.138 318.109C192.267 318.238 192.365 318.394 192.427 318.565C192.489 318.736 192.512 318.918 192.496 319.098Z" fill="#EFEFEF"/>
<path d="M196.162 319.049V320.921H195.455V320.533C195.337 320.682 195.182 320.8 195.006 320.875C194.829 320.95 194.636 320.979 194.445 320.961C193.708 320.961 193.243 320.563 193.243 319.965C193.243 319.367 193.607 318.969 194.587 318.969H195.415C195.415 318.531 195.152 318.282 194.617 318.282C194.255 318.272 193.9 318.381 193.607 318.591L193.304 318.053C193.705 317.775 194.188 317.635 194.677 317.654C195.627 317.724 196.162 318.132 196.162 319.049ZM195.405 319.925V319.557H194.627C194.112 319.557 193.97 319.746 193.97 319.975C193.97 320.204 194.203 320.423 194.587 320.423C194.759 320.436 194.931 320.395 195.078 320.305C195.225 320.216 195.339 320.083 195.405 319.925Z" fill="#EFEFEF"/>
<path d="M200.576 319.328C200.587 319.544 200.553 319.761 200.474 319.963C200.396 320.166 200.275 320.35 200.12 320.504C199.965 320.658 199.779 320.778 199.574 320.857C199.369 320.936 199.149 320.971 198.93 320.961C198.74 320.963 198.552 320.926 198.378 320.853C198.204 320.779 198.048 320.67 197.92 320.533V322.077H197.172V317.724H197.889V318.142C198.025 317.996 198.193 317.881 198.38 317.809C198.568 317.736 198.769 317.707 198.97 317.724C199.184 317.72 199.396 317.759 199.594 317.838C199.792 317.917 199.972 318.036 200.122 318.186C200.272 318.336 200.39 318.514 200.468 318.711C200.546 318.907 200.583 319.117 200.576 319.328ZM199.798 319.328C199.808 319.199 199.791 319.07 199.747 318.949C199.704 318.828 199.635 318.717 199.546 318.623C199.457 318.53 199.348 318.455 199.228 318.405C199.108 318.355 198.979 318.33 198.849 318.332C198.581 318.332 198.324 318.436 198.135 318.623C197.945 318.81 197.839 319.063 197.839 319.328C197.839 319.592 197.945 319.845 198.135 320.032C198.324 320.219 198.581 320.324 198.849 320.324C198.979 320.325 199.108 320.3 199.228 320.25C199.348 320.2 199.457 320.125 199.546 320.032C199.635 319.938 199.704 319.827 199.747 319.706C199.791 319.585 199.808 319.456 199.798 319.328Z" fill="#EFEFEF"/>
<path d="M203.242 320.712C203.029 320.857 202.774 320.93 202.515 320.921C202.366 320.938 202.216 320.922 202.074 320.874C201.932 320.827 201.803 320.748 201.696 320.645C201.589 320.543 201.506 320.417 201.454 320.279C201.401 320.141 201.381 319.993 201.394 319.845V318.312H200.869V317.724H201.394V316.997H202.151V317.724H203.01V318.322H202.141V319.845C202.132 319.907 202.137 319.971 202.156 320.03C202.175 320.09 202.208 320.145 202.252 320.19C202.295 320.235 202.349 320.27 202.409 320.291C202.469 320.313 202.533 320.32 202.596 320.314C202.748 320.316 202.896 320.271 203.02 320.184L203.242 320.712Z" fill="#EFEFEF"/>
<path d="M206.787 319.567H204.242C204.295 319.789 204.425 319.987 204.609 320.127C204.793 320.267 205.02 320.34 205.252 320.333C205.415 320.338 205.577 320.31 205.728 320.25C205.88 320.19 206.017 320.1 206.131 319.985L206.535 320.443C206.29 320.683 205.98 320.849 205.643 320.921C205.306 320.994 204.955 320.97 204.63 320.853C204.306 320.736 204.022 320.531 203.812 320.26C203.602 319.99 203.475 319.667 203.444 319.328C203.439 319.11 203.478 318.893 203.561 318.691C203.643 318.489 203.767 318.306 203.924 318.153C204.081 318 204.268 317.88 204.474 317.801C204.68 317.722 204.9 317.686 205.121 317.694C205.341 317.687 205.561 317.725 205.765 317.806C205.97 317.887 206.155 318.009 206.309 318.165C206.463 318.32 206.582 318.506 206.659 318.71C206.737 318.913 206.77 319.13 206.757 319.347C206.797 319.407 206.787 319.497 206.787 319.567ZM204.242 319.069H206.04C206.001 318.858 205.888 318.667 205.721 318.53C205.554 318.392 205.343 318.317 205.126 318.317C204.908 318.317 204.698 318.392 204.531 318.53C204.364 318.667 204.251 318.858 204.212 319.069H204.242Z" fill="#EFEFEF"/>
<path d="M209.393 317.724V318.441C209.336 318.432 209.278 318.432 209.221 318.441C209.089 318.431 208.956 318.45 208.832 318.497C208.709 318.544 208.597 318.619 208.507 318.715C208.417 318.811 208.35 318.925 208.311 319.05C208.272 319.176 208.262 319.308 208.282 319.437V320.981H207.525V317.724H208.242V318.192C208.377 318.023 208.554 317.892 208.755 317.81C208.957 317.728 209.177 317.698 209.393 317.724Z" fill="#EFEFEF"/>
<path d="M211.514 318.83C211.514 317.455 212.272 316.678 213.282 316.678C214.292 316.678 215.059 317.455 215.059 318.83C215.059 320.204 214.292 320.981 213.282 320.981C212.272 320.981 211.514 320.204 211.514 318.83ZM214.261 318.83C214.261 317.834 213.857 317.355 213.251 317.355C212.645 317.355 212.241 317.824 212.241 318.83C212.241 319.835 212.645 320.304 213.251 320.304C213.857 320.304 214.261 319.835 214.261 318.83Z" fill="#EFEFEF"/>
<path d="M218.635 320.264V320.921H215.504V320.403L217.19 318.83C217.604 318.441 217.675 318.192 217.675 317.963C217.675 317.575 217.402 317.355 216.887 317.355C216.696 317.345 216.504 317.378 216.329 317.455C216.153 317.531 215.998 317.647 215.877 317.794L215.332 317.375C215.525 317.143 215.771 316.959 216.05 316.837C216.329 316.716 216.633 316.662 216.938 316.678C217.867 316.678 218.453 317.136 218.453 317.883C218.449 318.141 218.383 318.394 218.262 318.622C218.141 318.85 217.968 319.048 217.756 319.198L216.625 320.264H218.635Z" fill="#EFEFEF"/>
<path opacity="0.5" d="M245.773 325.104H185.517C184.903 325.104 184.406 325.595 184.406 326.2V326.26C184.406 326.865 184.903 327.355 185.517 327.355H245.773C246.387 327.355 246.884 326.865 246.884 326.26V326.2C246.884 325.595 246.387 325.104 245.773 325.104Z" fill="#EFEFEF"/>
<path opacity="0.5" d="M234.663 330.084H185.517C184.903 330.084 184.406 330.575 184.406 331.18V331.24C184.406 331.845 184.903 332.335 185.517 332.335H234.663C235.277 332.335 235.774 331.845 235.774 331.24V331.18C235.774 330.575 235.277 330.084 234.663 330.084Z" fill="#EFEFEF"/>
<path opacity="0.6" d="M147.884 325.493V338.53L161.105 332.007L147.884 325.493Z" fill="#EFEFEF"/>
<path d="M140.541 160.286V167.597H139.168V164.459H135.34V167.597H133.956V160.286H135.34V163.274H139.168V160.286H140.541Z" fill="#191230"/>
<path d="M141.945 164.808C141.919 164.212 142.074 163.622 142.391 163.114C142.708 162.606 143.171 162.203 143.722 161.957C144.273 161.711 144.886 161.633 145.482 161.733C146.078 161.833 146.63 162.107 147.067 162.52C147.504 162.932 147.806 163.464 147.934 164.046C148.062 164.629 148.01 165.237 147.785 165.79C147.56 166.344 147.172 166.818 146.672 167.153C146.171 167.487 145.58 167.666 144.975 167.667C144.582 167.692 144.188 167.636 143.817 167.503C143.447 167.369 143.109 167.162 142.824 166.893C142.539 166.625 142.314 166.301 142.163 165.942C142.012 165.583 141.938 165.197 141.945 164.808ZM146.632 164.808C146.614 164.486 146.501 164.175 146.306 163.915C146.111 163.655 145.844 163.458 145.536 163.346C145.229 163.234 144.895 163.214 144.576 163.288C144.257 163.361 143.967 163.526 143.741 163.76C143.516 163.994 143.365 164.289 143.307 164.607C143.25 164.925 143.288 165.253 143.417 165.549C143.546 165.846 143.76 166.099 144.034 166.277C144.307 166.456 144.628 166.551 144.955 166.551C145.184 166.556 145.412 166.513 145.624 166.426C145.836 166.339 146.027 166.209 146.184 166.045C146.342 165.881 146.464 165.686 146.541 165.473C146.618 165.26 146.649 165.034 146.632 164.808Z" fill="#191230"/>
<path d="M157.903 162.019L155.813 167.597H154.53L153.065 163.752L151.581 167.597H150.308L148.238 162.019H149.48L150.965 166.133L152.53 162.019H153.641L155.166 166.153L156.701 162.019H157.903Z" fill="#191230"/>
<path d="M165.135 167.328C164.769 167.59 164.324 167.723 163.872 167.706C163.613 167.739 163.349 167.714 163.101 167.632C162.853 167.55 162.627 167.414 162.439 167.234C162.252 167.054 162.108 166.835 162.019 166.592C161.929 166.35 161.897 166.091 161.923 165.834V163.145H160.984V162.149H161.923V160.874H163.246V162.149H164.761V163.145H163.246V165.794C163.246 166.342 163.519 166.631 164.024 166.631C164.292 166.64 164.556 166.56 164.771 166.402L165.135 167.328Z" fill="#191230"/>
<path d="M165.579 164.808C165.553 164.212 165.708 163.622 166.025 163.114C166.342 162.606 166.805 162.203 167.356 161.957C167.907 161.711 168.52 161.633 169.116 161.733C169.712 161.833 170.264 162.107 170.701 162.52C171.138 162.932 171.44 163.464 171.568 164.046C171.696 164.629 171.644 165.237 171.419 165.79C171.194 166.344 170.806 166.818 170.306 167.153C169.805 167.487 169.214 167.666 168.609 167.667C168.216 167.693 167.821 167.638 167.45 167.506C167.079 167.373 166.74 167.166 166.455 166.897C166.17 166.628 165.945 166.303 165.794 165.943C165.643 165.584 165.57 165.197 165.579 164.808ZM170.266 164.808C170.248 164.486 170.135 164.176 169.941 163.916C169.747 163.657 169.48 163.459 169.173 163.347C168.866 163.235 168.532 163.214 168.214 163.287C167.895 163.36 167.605 163.523 167.379 163.756C167.153 163.99 167.001 164.283 166.942 164.601C166.884 164.918 166.92 165.246 167.048 165.543C167.175 165.84 167.388 166.094 167.66 166.273C167.933 166.452 168.252 166.549 168.579 166.551C168.809 166.557 169.038 166.516 169.251 166.429C169.464 166.343 169.656 166.213 169.815 166.049C169.974 165.885 170.096 165.689 170.174 165.476C170.252 165.262 170.283 165.035 170.266 164.808Z" fill="#191230"/>
<path d="M133.956 169.25H135.34V176.561H133.956V169.25Z" fill="#191230"/>
<path d="M142.784 173.364V176.561H141.461V173.573C141.461 172.577 140.956 172.099 140.107 172.099C139.886 172.087 139.664 172.123 139.458 172.205C139.252 172.287 139.067 172.413 138.917 172.574C138.766 172.735 138.654 172.927 138.587 173.135C138.52 173.344 138.501 173.565 138.532 173.782V176.601H137.208V171.023H138.471V171.74C138.718 171.477 139.02 171.271 139.357 171.137C139.694 171.002 140.057 170.943 140.42 170.963C140.743 170.94 141.067 170.986 141.369 171.1C141.672 171.213 141.945 171.39 142.171 171.619C142.396 171.848 142.568 172.123 142.674 172.424C142.779 172.726 142.817 173.046 142.784 173.364Z" fill="#191230"/>
<path d="M144.056 173.772C144.051 173.385 144.128 173.001 144.28 172.644C144.432 172.286 144.658 171.964 144.942 171.697C145.226 171.43 145.564 171.223 145.932 171.09C146.301 170.957 146.694 170.9 147.086 170.924C147.572 170.889 148.058 170.993 148.486 171.222C148.914 171.452 149.266 171.797 149.5 172.218L148.49 172.806C148.347 172.565 148.142 172.367 147.895 172.23C147.648 172.094 147.369 172.024 147.086 172.029C146.618 172.029 146.168 172.213 145.836 172.54C145.505 172.866 145.319 173.31 145.319 173.772C145.319 174.234 145.505 174.678 145.836 175.005C146.168 175.331 146.618 175.515 147.086 175.515C147.369 175.52 147.648 175.451 147.895 175.314C148.142 175.178 148.347 174.979 148.49 174.738L149.5 175.326C149.265 175.747 148.913 176.093 148.486 176.325C148.058 176.556 147.573 176.662 147.086 176.631C146.693 176.654 146.3 176.597 145.93 176.463C145.56 176.33 145.223 176.122 144.938 175.854C144.654 175.585 144.429 175.262 144.277 174.904C144.125 174.546 144.05 174.16 144.056 173.772Z" fill="#191230"/>
<path d="M153.944 170.924V172.169C153.843 172.161 153.742 172.161 153.641 172.169C153.412 172.152 153.181 172.186 152.967 172.268C152.753 172.35 152.559 172.478 152.402 172.643C152.244 172.808 152.125 173.006 152.055 173.222C151.985 173.438 151.964 173.667 151.995 173.892V176.601H150.672V171.023H151.934V171.84C152.159 171.527 152.463 171.278 152.815 171.117C153.168 170.956 153.557 170.89 153.944 170.924Z" fill="#191230"/>
<path d="M160.307 174.19H155.873C155.958 174.596 156.192 174.956 156.529 175.202C156.866 175.448 157.284 175.563 157.701 175.525C157.986 175.536 158.27 175.488 158.535 175.383C158.799 175.279 159.039 175.12 159.237 174.918L159.944 175.724C159.632 176.126 159.223 176.443 158.754 176.647C158.285 176.85 157.771 176.932 157.26 176.886C156.75 176.841 156.259 176.668 155.835 176.384C155.411 176.1 155.067 175.715 154.834 175.265C154.602 174.814 154.489 174.313 154.507 173.808C154.525 173.303 154.672 172.81 154.935 172.376C155.199 171.943 155.569 171.582 156.012 171.328C156.455 171.074 156.957 170.935 157.469 170.924C157.854 170.907 158.238 170.971 158.596 171.111C158.955 171.251 159.279 171.463 159.548 171.735C159.818 172.006 160.027 172.331 160.161 172.687C160.295 173.043 160.352 173.423 160.327 173.802C160.327 173.912 160.317 174.061 160.307 174.19ZM155.863 173.324H159.065C159.026 172.939 158.839 172.584 158.542 172.331C158.245 172.079 157.861 171.95 157.469 171.969C157.081 171.954 156.7 172.082 156.403 172.329C156.106 172.576 155.913 172.924 155.863 173.304V173.324Z" fill="#191230"/>
<path d="M166.175 173.304V176.571H164.923V175.894C164.713 176.155 164.441 176.36 164.13 176.49C163.82 176.621 163.481 176.672 163.145 176.641C161.852 176.641 161.044 175.943 161.044 174.967C161.044 173.991 161.681 173.314 163.388 173.314H164.852V173.224C164.852 172.467 164.388 172.019 163.448 172.019C162.831 172.013 162.228 172.205 161.731 172.567L161.206 171.621C161.911 171.149 162.748 170.908 163.6 170.934C165.236 170.924 166.175 171.681 166.175 173.304ZM164.852 174.828V174.18H163.489C162.59 174.18 162.347 174.509 162.347 174.918C162.347 175.326 162.741 175.694 163.428 175.694C163.728 175.713 164.027 175.638 164.282 175.481C164.538 175.324 164.737 175.092 164.852 174.818V174.828Z" fill="#191230"/>
<path d="M167.226 176.003L167.731 175.007C168.34 175.369 169.039 175.559 169.751 175.555C170.589 175.555 170.943 175.326 170.943 174.937C170.943 173.882 167.448 174.878 167.448 172.657C167.448 171.601 168.407 170.914 169.933 170.914C170.668 170.901 171.396 171.065 172.054 171.392L171.549 172.388C171.057 172.1 170.494 171.955 169.922 171.969C169.125 171.969 168.741 172.228 168.741 172.597C168.741 173.722 172.235 172.716 172.235 174.898C172.235 175.894 171.225 176.621 169.67 176.621C168.812 176.651 167.963 176.436 167.226 176.003Z" fill="#191230"/>
<path d="M178.618 174.19H174.185C174.27 174.596 174.503 174.956 174.84 175.202C175.178 175.448 175.595 175.563 176.013 175.525C176.298 175.536 176.582 175.488 176.846 175.383C177.111 175.279 177.35 175.12 177.548 174.917L178.265 175.724C177.833 176.143 177.289 176.432 176.696 176.557C176.103 176.681 175.487 176.636 174.919 176.427C174.352 176.218 173.856 175.853 173.492 175.376C173.127 174.898 172.909 174.328 172.861 173.732C172.85 173.353 172.918 172.975 173.061 172.622C173.204 172.269 173.419 171.949 173.693 171.682C173.967 171.415 174.293 171.206 174.652 171.069C175.012 170.932 175.395 170.869 175.78 170.884C176.165 170.868 176.549 170.931 176.908 171.071C177.266 171.211 177.59 171.423 177.86 171.695C178.129 171.966 178.338 172.291 178.472 172.647C178.606 173.003 178.663 173.383 178.639 173.762C178.639 173.912 178.629 174.061 178.618 174.19ZM174.174 173.324H177.386C177.325 172.947 177.13 172.604 176.836 172.356C176.542 172.108 176.167 171.972 175.78 171.972C175.393 171.972 175.019 172.108 174.725 172.356C174.43 172.604 174.235 172.947 174.174 173.324Z" fill="#191230"/>
<path d="M139.127 179.947L136.481 185.973C136.362 186.452 136.081 186.877 135.685 187.177C135.288 187.478 134.8 187.636 134.3 187.626C133.748 187.637 133.211 187.454 132.785 187.109L133.31 186.113C133.583 186.366 133.945 186.506 134.32 186.501C134.784 186.501 135.057 186.282 135.33 185.724L135.431 185.505L132.956 179.907H134.33L136.108 184.031L137.895 179.907L139.127 179.947Z" fill="#191230"/>
<path d="M139.38 182.736C139.354 182.14 139.509 181.55 139.826 181.042C140.142 180.534 140.606 180.131 141.157 179.885C141.707 179.639 142.32 179.561 142.916 179.661C143.513 179.761 144.065 180.035 144.502 180.448C144.939 180.86 145.241 181.392 145.368 181.974C145.496 182.557 145.445 183.165 145.22 183.718C144.995 184.272 144.607 184.746 144.106 185.081C143.605 185.415 143.015 185.594 142.41 185.595C142.017 185.62 141.622 185.564 141.252 185.431C140.882 185.297 140.543 185.09 140.259 184.821C139.974 184.553 139.749 184.228 139.597 183.87C139.446 183.511 139.372 183.125 139.38 182.736ZM144.066 182.736C144.049 182.414 143.935 182.103 143.741 181.843C143.546 181.583 143.278 181.385 142.971 181.274C142.663 181.162 142.329 181.142 142.01 181.216C141.691 181.289 141.401 181.454 141.176 181.688C140.95 181.922 140.799 182.217 140.742 182.535C140.684 182.853 140.722 183.181 140.851 183.477C140.98 183.774 141.195 184.027 141.468 184.205C141.742 184.384 142.062 184.479 142.39 184.479C142.615 184.477 142.837 184.429 143.043 184.339C143.248 184.249 143.433 184.118 143.586 183.955C143.738 183.792 143.855 183.599 143.929 183.389C144.003 183.18 144.032 182.957 144.016 182.736H144.066Z" fill="#191230"/>
<path d="M152.096 179.947V185.525H150.843V184.818C150.616 185.073 150.334 185.275 150.018 185.409C149.702 185.543 149.359 185.607 149.015 185.595C148.682 185.627 148.346 185.585 148.032 185.472C147.717 185.359 147.433 185.178 147.199 184.941C146.965 184.705 146.788 184.42 146.681 184.107C146.574 183.795 146.54 183.462 146.581 183.135V179.947H147.904V182.935C147.904 183.931 148.399 184.429 149.227 184.429C150.056 184.429 150.773 183.862 150.773 182.746V179.927L152.096 179.947Z" fill="#191230"/>
<path d="M157.116 179.888V181.133C157.011 181.124 156.907 181.124 156.802 181.133C156.574 181.117 156.345 181.152 156.131 181.235C155.918 181.318 155.726 181.446 155.57 181.611C155.413 181.776 155.296 181.973 155.226 182.189C155.156 182.404 155.136 182.632 155.166 182.856V185.565H153.843V179.987H155.096V180.804C155.322 180.49 155.627 180.241 155.982 180.08C156.336 179.919 156.727 179.853 157.116 179.888Z" fill="#191230"/>
<path d="M132.886 197.826L133.441 196.6C134.267 197.207 135.269 197.535 136.299 197.537C137.643 197.537 138.208 197.059 138.208 196.431C138.208 194.589 133.067 195.794 133.067 192.626C133.067 191.252 134.178 190.077 136.552 190.077C137.567 190.061 138.567 190.323 139.441 190.834L138.925 192.069C138.206 191.638 137.383 191.404 136.542 191.391C135.209 191.391 134.663 191.909 134.663 192.557C134.663 194.369 139.794 193.184 139.794 196.322C139.794 197.686 138.673 198.851 136.299 198.851C135.078 198.892 133.877 198.531 132.886 197.826Z" fill="#263238"/>
<path d="M144.359 195.156L142.996 196.551V198.732H141.4V190.236H143.016V194.618L147.288 190.236H149.096L145.46 194.051L149.318 198.772H147.46L144.359 195.156Z" fill="#263238"/>
<path d="M150.389 190.236H151.995V198.772H150.389V190.236Z" fill="#263238"/>
<path d="M154.328 190.236H155.934V197.427H160.459V198.772H154.328V190.236Z" fill="#263238"/>
<path d="M161.731 190.236H163.337V197.427H167.862V198.772H161.731V190.236Z" fill="#263238"/>
<path d="M168.337 197.826L168.892 196.6C169.719 197.205 170.721 197.533 171.75 197.537C173.094 197.537 173.669 197.059 173.669 196.431C173.669 194.589 168.518 195.794 168.518 192.626C168.518 191.252 169.64 190.077 172.013 190.077C173.025 190.063 174.021 190.325 174.892 190.834L174.387 192.069C173.663 191.639 172.837 191.405 171.993 191.391C170.66 191.391 170.114 191.909 170.114 192.557C170.114 194.369 175.245 193.184 175.245 196.322C175.245 197.686 174.124 198.851 171.75 198.851C170.529 198.892 169.328 198.531 168.337 197.826Z" fill="#263238"/>
<path d="M182.941 201.999L178.245 199.728C178.245 199.728 176.851 196.68 176.75 196.74C176.649 196.8 167.761 194.937 167.761 194.937C167.761 194.937 167.66 200.106 168.66 201.212C169.66 202.317 175.73 202.815 176.043 203.005C176.356 203.194 177.053 202.576 177.053 202.576L182.103 205.813L182.941 201.999Z" fill="#EBB376"/>
<path d="M234.249 163.035C234.249 163.035 232.3 158.603 226.008 158.603C219.715 158.603 214.473 162.298 214.776 167.029C215.079 171.76 211.474 171.312 210.878 175.894C210.282 180.475 212.524 181.65 212.676 183.573C212.827 185.495 210.282 184.907 208.636 188.154C206.989 191.401 204.889 195.983 211.938 202.098C218.988 208.214 238.905 207.078 243.248 203.423C247.591 199.768 247.45 192.636 243.248 190.714C239.047 188.792 242.955 189.091 243.4 184.808C243.844 180.525 239.956 178.902 240.249 175.495C240.542 172.089 241.592 163.344 234.249 163.035Z" fill="#263238"/>
<path d="M209.797 191.79V203.971C209.797 203.971 208.737 205.276 207.151 206.959C205.48 208.758 203.648 210.405 201.677 211.879C199.778 213.234 197.869 214.16 196.324 213.971C191.435 213.343 178.245 205.873 178.245 205.873L180.447 200.126C180.447 200.126 195.425 207.726 196.324 206.939C197.223 206.152 207.05 192.477 209.797 191.79Z" fill="#191230"/>
<path opacity="0.2" d="M207.151 206.949C205.48 208.748 203.648 210.395 201.677 211.869C200.96 206.431 207.282 199.728 207.282 199.728C207.282 199.728 207.373 203.184 207.151 206.949Z" fill="black"/>
<path d="M234.32 231.211H219.483H219.049H208.454C208.504 230.753 208.545 230.345 208.585 230.016C208.626 229.688 208.656 229.299 208.676 229.08C208.696 228.861 208.676 228.891 208.676 228.801C208.671 228.771 208.671 228.741 208.676 228.711H209.686H210.928L214.12 228.831L219.604 229.03L225.008 229.229L226.25 229.279L230.957 229.449L233.542 229.548C233.855 230.146 234.088 230.674 234.32 231.211Z" fill="#191230"/>
<path opacity="0.4" d="M234.32 231.211H219.483H219.049H208.454C208.504 230.753 208.545 230.345 208.585 230.016C208.626 229.688 208.656 229.299 208.676 229.08C208.696 228.861 208.676 228.891 208.676 228.801C208.671 228.771 208.671 228.741 208.676 228.711H209.686H210.928L214.12 228.831L219.604 229.04L225.008 229.239H226.25L230.957 229.409L233.542 229.508C233.855 230.146 234.088 230.674 234.32 231.211Z" fill="#EFEFEF"/>
<path d="M233.603 231.211H225.21L224.977 231.201L219.513 230.883L214.029 230.574L210.898 230.395L209.666 230.325L208.595 230.265H208.585V230.016L208.504 226.002H208.525L208.949 226.042L209.807 226.112L211.039 226.212L225.109 227.387L226.341 227.486L230.836 227.855L233.542 228.084L233.573 229.628V229.638L233.603 231.211Z" fill="#263238"/>
<path d="M219.776 227.148V227.188L219.635 229.11V229.12L219.513 230.883L219.483 231.211V231.241L219.049 231.211L214.009 230.863L214.029 230.574L214.15 228.911L214.302 226.829V226.769L219.776 227.148Z" fill="#EFEFEF"/>
<path d="M226.361 226.759L226.341 227.486L226.331 227.616L226.28 229.359V229.369L226.22 231.211H224.977V231.201L225.038 229.319V229.309L225.099 227.536L225.109 227.387L225.129 226.719L226.341 226.759H226.361Z" fill="#191230"/>
<path opacity="0.4" d="M226.361 226.759L226.341 227.486L226.331 227.616L226.28 229.359V229.369L226.22 231.211H224.977V231.201L225.038 229.319V229.309L225.099 227.536L225.109 227.387L225.129 226.719L226.341 226.759H226.361Z" fill="#EFEFEF"/>
<path d="M211.07 225.395L211.04 226.212L211.029 226.61L210.959 228.791L210.898 230.395L210.868 231.211H209.636L209.666 230.325L209.716 228.751L209.787 226.53L209.807 226.112L209.828 225.355L211.07 225.395Z" fill="#191230"/>
<path opacity="0.4" d="M211.07 225.395L211.04 226.212L211.029 226.61L210.959 228.791L210.898 230.395L210.868 231.211H209.636L209.666 230.325L209.716 228.751L209.787 226.53L209.807 226.112L209.828 225.355L211.07 225.395Z" fill="#EFEFEF"/>
<path d="M208.555 226.461L233.542 228.084C233.936 221.959 234.391 220.116 236.259 212.766C236.855 210.405 237.602 207.786 238.572 204.728C239.087 203.094 239.653 201.351 240.289 199.469C240.764 198.045 241.299 196.481 241.844 194.927C238.452 193.856 234.986 193.03 231.472 192.457C227.765 191.801 224.015 191.411 220.251 191.292C215.382 191.292 209.797 191.79 209.797 191.79C209.797 191.79 208.999 191.979 208.494 197.059C208.06 201.839 207.555 209.09 208.555 226.461Z" fill="#263238"/>
<path opacity="0.4" d="M208.555 226.461L233.542 228.084C233.936 221.959 234.391 220.116 236.259 212.766C236.855 210.405 237.602 207.786 238.572 204.728C239.087 203.094 239.653 201.351 240.289 199.469C240.764 198.045 241.299 196.481 241.844 194.927C238.452 193.856 234.986 193.03 231.472 192.457C227.765 191.801 224.015 191.411 220.251 191.292C215.382 191.292 209.797 191.79 209.797 191.79C209.797 191.79 208.999 191.979 208.494 197.059C208.06 201.839 207.555 209.09 208.555 226.461Z" fill="#EFEFEF"/>
<path d="M222.311 196.73C228.472 195.953 230.32 193.353 230.32 193.353C226.412 189.718 229.664 183.393 229.664 183.393L222.2 184.788C222.377 185.805 222.475 186.834 222.493 187.865C222.553 192.298 220.473 192.347 220.473 192.347C219.251 194.748 222.311 196.73 222.311 196.73Z" fill="#EBB376"/>
<path opacity="0.2" d="M222.2 184.788C222.377 185.805 222.475 186.834 222.493 187.866C223.977 187.824 225.423 187.389 226.678 186.605C227.933 185.822 228.95 184.719 229.623 183.413L222.2 184.788Z" fill="black"/>
<path d="M226.341 164.34C219.897 163.991 217.635 167.328 216.796 173.812C215.786 181.969 217.271 187.885 225.432 186.571C236.512 184.778 237.047 164.908 226.341 164.34Z" fill="#EBB376"/>
<path d="M220.988 173.673C220.421 174.593 219.743 175.443 218.968 176.202C219.143 176.476 219.391 176.697 219.685 176.841C219.979 176.985 220.307 177.047 220.635 177.019L220.988 173.673Z" fill="#D58745"/>
<path d="M224.957 173.364C224.957 173.882 225.169 174.36 225.523 174.36C225.876 174.36 226.2 173.981 226.24 173.463C226.28 172.945 226.028 172.467 225.674 172.467C225.321 172.467 224.998 172.846 224.957 173.364Z" fill="#263238"/>
<path d="M225.816 172.507L224.705 171.969C224.705 171.969 225.23 172.975 225.816 172.507Z" fill="#263238"/>
<path d="M218.392 172.746C218.392 173.274 218.604 173.742 218.958 173.742C219.311 173.742 219.624 173.374 219.665 172.846C219.705 172.318 219.463 171.85 219.109 171.85C218.756 171.85 218.433 172.228 218.392 172.746Z" fill="#263238"/>
<path d="M219.251 171.89L218.16 171.312C218.16 171.312 218.635 172.358 219.251 171.89Z" fill="#263238"/>
<path d="M228.008 170.455C227.951 170.454 227.895 170.439 227.844 170.413C227.793 170.387 227.749 170.351 227.715 170.306C227.412 169.971 227.037 169.708 226.618 169.536C226.198 169.363 225.745 169.286 225.291 169.31C225.194 169.317 225.099 169.285 225.026 169.223C224.953 169.16 224.908 169.071 224.902 168.976C224.895 168.881 224.927 168.787 224.99 168.716C225.054 168.644 225.144 168.6 225.24 168.593C225.809 168.557 226.379 168.651 226.905 168.869C227.431 169.087 227.898 169.422 228.27 169.848C228.324 169.927 228.346 170.023 228.331 170.117C228.316 170.212 228.265 170.297 228.189 170.356C228.138 170.403 228.075 170.437 228.008 170.455Z" fill="#2E353A"/>
<path d="M217.998 169.2C217.935 169.2 217.873 169.183 217.818 169.152C217.763 169.121 217.717 169.075 217.685 169.021C217.66 168.981 217.644 168.936 217.637 168.889C217.63 168.843 217.633 168.795 217.645 168.749C217.657 168.704 217.679 168.661 217.708 168.624C217.738 168.587 217.775 168.556 217.817 168.533C218.241 168.25 218.726 168.066 219.233 167.995C219.741 167.925 220.258 167.969 220.746 168.125C220.833 168.166 220.901 168.238 220.937 168.327C220.972 168.415 220.972 168.514 220.937 168.603C220.896 168.689 220.823 168.756 220.733 168.791C220.643 168.826 220.543 168.827 220.453 168.792C220.071 168.679 219.668 168.653 219.275 168.715C218.881 168.777 218.507 168.926 218.18 169.151C218.125 169.182 218.062 169.199 217.998 169.2Z" fill="#2E353A"/>
<path d="M221.422 179.569C221.688 180.303 221.897 181.055 222.048 181.82H222.473C224.361 181.74 225.2 181.083 225.573 180.386C225.739 180.037 225.822 179.655 225.816 179.27C225.817 179.052 225.79 178.834 225.735 178.623C224.595 179.19 223.344 179.506 222.069 179.549C221.675 179.569 221.422 179.569 221.422 179.569Z" fill="#263238"/>
<path d="M222.069 179.529L222.271 180.186C224.048 180.107 225.301 179.808 225.816 179.25C225.817 179.032 225.79 178.814 225.735 178.603C224.595 179.17 223.344 179.486 222.069 179.529Z" fill="#EFEFEF"/>
<path d="M222.473 181.8C224.361 181.72 225.2 181.063 225.573 180.366C224.856 180.41 224.151 180.579 223.493 180.864C223.062 181.064 222.706 181.391 222.473 181.8Z" fill="#DE5753"/>
<path d="M232.795 175.425C232.795 175.425 230.068 170.037 230.775 166.033C230.775 166.033 218.281 160.197 216.938 173.005C216.938 173.005 216.322 161.581 227.422 161.92C238.522 162.258 237.582 178.254 231.593 182.706C231.573 182.656 234.482 178.792 232.795 175.425Z" fill="#263238"/>
<path d="M233.451 163.722C233.451 163.722 228.401 159.29 223.816 160.127C219.231 160.964 220.018 166.93 226.058 169.191C232.098 171.451 233.35 174.37 233.35 174.37L238.592 169.738L233.451 163.722Z" fill="#263238"/>
<path d="M234.552 174.708L234.057 174.599C234.057 174.599 234.249 173.115 230.27 171.74C226.068 170.296 221.301 168.653 220.665 165.336C220.528 164.864 220.494 164.369 220.566 163.883C220.637 163.397 220.812 162.932 221.079 162.517C221.243 162.306 221.448 162.13 221.682 161.998C221.916 161.866 222.175 161.782 222.442 161.75V162.248C222.243 162.273 222.051 162.337 221.878 162.436C221.704 162.535 221.553 162.668 221.432 162.826C221.21 163.185 221.068 163.586 221.014 164.003C220.96 164.42 220.996 164.844 221.119 165.246C221.695 168.284 226.321 169.868 230.401 171.272C234.886 172.806 234.562 174.629 234.552 174.708Z" fill="#263238"/>
<path d="M231.664 176.71C231.771 175.979 232.167 175.32 232.764 174.874C233.361 174.429 234.113 174.233 234.855 174.33C236.875 174.649 237.572 178.752 232.542 179.449C231.825 179.549 231.462 178.842 231.664 176.71Z" fill="#EBB376"/>
<path d="M236.037 194.031C236.037 194.031 228.805 199.818 222.069 199.728C215.332 199.638 212.979 192.168 212.979 192.168C220.676 190.435 228.728 191.086 236.037 194.031Z" fill="#EBB376"/>
<path d="M241.845 194.927L241.208 202.437L241.026 204.588L240.673 208.811L239.017 228.423L238.774 231.211H231.169C231.101 230.674 231.041 230.116 230.987 229.538C230.926 229.01 230.886 228.472 230.846 227.915V227.407C230.522 222.935 230.482 217.746 230.573 212.746C230.573 210.574 230.674 208.433 230.745 206.411C230.745 205.515 230.815 204.638 230.856 203.792C230.896 202.945 230.916 202.367 230.947 201.7C230.947 201.65 230.947 201.6 230.947 201.551C230.947 201.421 230.947 201.302 230.947 201.172C230.947 200.296 231.038 199.459 231.078 198.682C231.078 198.214 231.139 197.766 231.159 197.347C231.153 197.304 231.153 197.261 231.159 197.218C231.159 196.909 231.159 196.61 231.159 196.332C231.28 194.34 231.381 193.015 231.411 192.636C231.414 192.6 231.414 192.563 231.411 192.527C234.04 192.902 236.636 193.472 239.178 194.23L240.683 194.668L241.36 194.877L241.592 194.947H241.733L241.845 194.927Z" fill="#191230"/>
<path opacity="0.4" d="M232.583 202.098L234.471 204.957L230.532 212.676C230.714 202.118 231.472 192.447 231.472 192.447L237.481 197.965L232.583 202.098Z" fill="#EFEFEF"/>
<path opacity="0.4" d="M217.988 191.232C217.827 191.521 214.352 197.746 211.585 209.688L210.343 201.999L212.958 199.728L210.343 194.808L217.988 191.232Z" fill="#EFEFEF"/>
<path d="M251.965 218.124C251.847 218.456 251.653 218.757 251.399 219.004C251.144 219.25 250.835 219.435 250.497 219.545C250.158 219.655 249.798 219.686 249.444 219.637C249.091 219.587 248.754 219.458 248.46 219.259C247.213 218.572 246.153 217.598 245.369 216.421C244.743 215.534 243.905 214.2 243.036 212.785C241.188 209.728 239.269 206.341 239.269 206.341L241.855 194.897C245.571 196.68 253.358 215.196 251.965 218.124Z" fill="#191230"/>
<path opacity="0.2" d="M248.46 219.289C247.213 218.602 246.153 217.628 245.369 216.451C244.743 215.564 243.905 214.23 243.036 212.815C243.695 211.627 244.427 210.48 245.228 209.379L247.107 214.588C247.107 214.588 250.399 215.325 250.924 217.018C251.126 217.666 250.005 218.572 248.46 219.289Z" fill="black"/>
<path d="M248.349 204.409L242.127 227.795C242.048 228.068 241.874 228.304 241.636 228.462C241.397 228.621 241.11 228.691 240.824 228.662L224.311 226.49C224.179 226.477 224.053 226.435 223.94 226.367C223.827 226.3 223.73 226.209 223.657 226.101C223.583 225.992 223.535 225.869 223.516 225.74C223.496 225.611 223.505 225.48 223.543 225.355L229.765 201.969C229.846 201.698 230.021 201.464 230.259 201.308C230.497 201.151 230.783 201.082 231.068 201.112L247.581 203.274C247.713 203.287 247.839 203.329 247.953 203.397C248.066 203.464 248.162 203.555 248.236 203.664C248.309 203.772 248.357 203.895 248.377 204.024C248.396 204.153 248.387 204.284 248.349 204.409Z" fill="#263238"/>
<path opacity="0.1" d="M248.349 204.409L242.127 227.795C242.048 228.068 241.874 228.304 241.636 228.462C241.398 228.621 241.11 228.691 240.824 228.662L225.068 226.59C224.937 226.576 224.81 226.534 224.697 226.467C224.583 226.399 224.486 226.309 224.412 226.2C224.338 226.092 224.289 225.97 224.268 225.841C224.247 225.712 224.255 225.58 224.291 225.455L230.522 202.068C230.6 201.798 230.772 201.563 231.009 201.406C231.246 201.249 231.532 201.18 231.815 201.212L247.581 203.274C247.713 203.287 247.839 203.329 247.953 203.397C248.066 203.464 248.162 203.555 248.236 203.664C248.309 203.772 248.357 203.895 248.377 204.024C248.396 204.153 248.387 204.284 248.349 204.409Z" fill="#EFEFEF"/>
<path opacity="0.3" d="M236.885 213.333C236.479 213.287 236.068 213.385 235.728 213.609C235.388 213.834 235.139 214.17 235.027 214.558C234.974 214.737 234.962 214.925 234.991 215.109C235.019 215.293 235.089 215.468 235.194 215.623C235.299 215.778 235.437 215.908 235.598 216.005C235.759 216.101 235.94 216.162 236.128 216.182C236.537 216.228 236.95 216.129 237.292 215.903C237.634 215.677 237.884 215.338 237.996 214.947C237.808 214.929 237.626 214.871 237.464 214.776C237.301 214.681 237.162 214.552 237.056 214.398C236.949 214.244 236.879 214.068 236.85 213.884C236.82 213.7 236.832 213.512 236.885 213.333Z" fill="#EFEFEF"/>
<path d="M249.692 223.672C248.581 224.249 246.066 223.373 245.309 223.074L245.066 222.984C245.066 222.984 243.703 218.572 247.268 216.192L247.349 216.142C248.49 215.544 252.005 216.321 252.116 217.487C252.5 222.198 251.015 222.984 249.692 223.672Z" fill="#191230"/>
<path opacity="0.2" d="M247.521 219.907C247.178 221.183 246.396 222.303 245.309 223.074L245.066 222.984C245.066 222.984 243.703 218.572 247.268 216.192L247.349 216.142C247.662 216.54 248.147 217.586 247.521 219.907Z" fill="black"/>
<path d="M242.4 214.319C242.4 214.319 244.693 214.22 245.743 214.319C246.793 214.419 246.47 217.755 246.47 217.755L247.379 218.234C247.379 218.234 248.106 220.226 246.541 221.222L245.723 220.953C245.574 221.432 245.269 221.849 244.854 222.138C244.198 222.526 241.006 221.64 241.006 221.64L242.4 214.319Z" fill="#EBB376"/>
<path opacity="0.6" d="M136.32 118.295H138.38V115.586H136.32V118.295Z" fill="#EFEFEF"/>
<path opacity="0.6" d="M132.956 118.295H135.017V114.689H132.956V118.295Z" fill="#EFEFEF"/>
<path opacity="0.6" d="M129.613 118.295H131.674V113.783H129.613V118.295Z" fill="#EFEFEF"/>
<path opacity="0.6" d="M126.25 118.295H128.31V112.877H126.25V118.295Z" fill="#EFEFEF"/>
<path opacity="0.6" d="M246.854 114.6H245.632V117.309H246.854V114.6Z" fill="#EFEFEF"/>
<path opacity="0.6" d="M247.692 118.295H257.419V113.614H247.692V118.295Z" fill="#EFEFEF"/>
<g opacity="0.1">
<path opacity="0.1" d="M184.426 113.873L141.884 271.002L141.41 272.775L140.642 275.603L140.157 277.366L117.937 359.417V260.115L159.58 106.403H160.933C161.486 106.412 162.024 106.584 162.477 106.896C162.931 107.208 163.279 107.647 163.478 108.156L165.125 112.14C165.326 112.646 165.675 113.081 166.129 113.39C166.582 113.698 167.119 113.867 167.67 113.873H184.426Z" fill="#EFEFEF"/>
<path opacity="0.1" d="M265.711 194.12V293.422L239.552 390.063H212.666L215.867 378.241L216.574 375.641L217.978 370.452L218.685 367.853L220.089 362.654L220.786 360.064L242.905 278.372V278.362L243.925 274.587V274.577L265.711 194.12Z" fill="#EFEFEF"/>
<path opacity="0.1" d="M198.97 113.873L156.712 270.026L156.459 270.962L154.146 279.517L153.894 280.444L124.23 390.064H121.927C121.411 390.069 120.898 389.974 120.42 389.782C119.941 389.591 119.506 389.307 119.14 388.948C118.953 388.771 118.787 388.574 118.645 388.36L147.864 280.444L148.116 279.517L150.429 270.962L150.682 270.026L192.91 113.873H198.97Z" fill="#EFEFEF"/>
</g>
<path d="M428.482 276.131H317.534C315.305 276.176 313.166 277.003 311.5 278.464C309.834 279.924 308.751 281.922 308.444 284.099L295.566 387.832H422.634L435.552 284.079C435.711 283.083 435.646 282.064 435.361 281.095C435.076 280.126 434.579 279.231 433.904 278.473C433.23 277.714 432.394 277.112 431.457 276.707C430.521 276.302 429.505 276.106 428.482 276.131Z" fill="#263238"/>
<path opacity="0.6" d="M428.482 276.131H317.534C315.305 276.176 313.166 277.003 311.5 278.464C309.834 279.924 308.751 281.922 308.444 284.099L295.566 387.832H422.634L435.552 284.079C435.711 283.083 435.646 282.064 435.361 281.095C435.076 280.126 434.579 279.231 433.904 278.473C433.23 277.714 432.394 277.112 431.457 276.707C430.521 276.302 429.505 276.106 428.482 276.131Z" fill="white"/>
<path opacity="0.2" d="M398.061 387.832H422.634L435.552 284.079C435.714 283.081 435.651 282.06 435.368 281.089C435.085 280.118 434.588 279.22 433.913 278.459C433.238 277.699 432.402 277.094 431.463 276.688C430.525 276.282 429.507 276.085 428.482 276.111H420.039C417.811 276.159 415.673 276.986 414.007 278.446C412.342 279.906 411.258 281.903 410.949 284.079L398.061 387.832Z" fill="black"/>
<path d="M415.514 415.442H406.899L403.384 388.938H418.15L415.514 415.442Z" fill="#263238"/>
<path d="M377.71 415.442H369.104L365.59 388.938H380.346L377.71 415.442Z" fill="#263238"/>
<path d="M313.544 415.442H304.939L301.424 388.938H316.18L313.544 415.442Z" fill="#263238"/>
<path d="M275.75 415.442H267.135L263.62 388.938H278.386L275.75 415.442Z" fill="#263238"/>
<path opacity="0.2" d="M377.71 415.442H369.104L365.59 388.938H380.346L377.71 415.442Z" fill="white"/>
<path opacity="0.2" d="M275.75 415.442H267.135L263.62 388.938H278.386L275.75 415.442Z" fill="white"/>
<path d="M421.837 387.255L421.059 397.016C421.031 397.358 420.873 397.678 420.616 397.91C420.36 398.143 420.024 398.272 419.675 398.271H262.762C262.413 398.272 262.077 398.143 261.82 397.91C261.564 397.678 261.406 397.358 261.378 397.016L260.6 387.255H421.837Z" fill="#263238"/>
<path opacity="0.2" d="M384.466 387.255L383.689 397.016C383.661 397.358 383.503 397.678 383.246 397.91C382.99 398.143 382.654 398.272 382.305 398.271H262.762C262.413 398.272 262.077 398.143 261.82 397.91C261.564 397.678 261.406 397.358 261.378 397.016L260.6 387.255H384.466Z" fill="white"/>
<path d="M363.762 364.745H315.282L311.757 324.965C311.423 321.16 309.655 317.617 306.801 315.036C303.948 312.454 300.216 311.022 296.344 311.021H244.713C243.811 311.022 242.92 311.207 242.095 311.566C241.27 311.924 240.53 312.448 239.921 313.103C239.313 313.759 238.849 314.532 238.559 315.374C238.269 316.216 238.16 317.107 238.239 317.993L239.047 327.146C239.177 328.605 239.809 329.976 240.838 331.032C241.866 332.088 243.23 332.766 244.703 332.953L246.531 333.182C247.629 333.319 248.647 333.822 249.415 334.609C250.183 335.395 250.655 336.417 250.753 337.505L255.207 387.683C255.363 389.447 256.184 391.089 257.508 392.286C258.832 393.482 260.562 394.146 262.358 394.147H363.762V364.745Z" fill="#263238"/>
<path opacity="0.6" d="M363.762 364.745H315.282L311.757 324.965C311.423 321.16 309.655 317.617 306.801 315.036C303.948 312.454 300.216 311.022 296.344 311.021H244.713C243.811 311.022 242.92 311.207 242.095 311.566C241.27 311.924 240.53 312.448 239.921 313.103C239.313 313.759 238.849 314.532 238.559 315.374C238.269 316.216 238.16 317.107 238.239 317.993L239.047 327.146C239.177 328.605 239.809 329.976 240.838 331.032C241.866 332.088 243.23 332.766 244.703 332.953L246.531 333.182C247.629 333.319 248.647 333.822 249.415 334.609C250.183 335.395 250.655 336.417 250.753 337.505L255.207 387.683C255.363 389.447 256.184 391.089 257.508 392.286C258.832 393.482 260.562 394.146 262.358 394.147H363.762V364.745Z" fill="white"/>
<path opacity="0.2" d="M276.003 324.965C275.671 321.161 273.905 317.618 271.053 315.037C268.202 312.455 264.471 311.022 260.6 311.021H296.344C300.216 311.022 303.948 312.454 306.801 315.036C309.655 317.617 311.423 321.16 311.757 324.965L315.282 364.745H279.538L276.003 324.965Z" fill="black"/>
<path opacity="0.1" d="M363.762 364.745H279.538L276.003 324.965C275.671 321.161 273.905 317.618 271.054 315.037C268.202 312.455 264.471 311.022 260.6 311.021H244.713C243.811 311.022 242.92 311.207 242.095 311.566C241.27 311.924 240.53 312.448 239.921 313.103C239.313 313.759 238.849 314.532 238.559 315.374C238.269 316.216 238.16 317.107 238.239 317.993L239.047 327.146C239.177 328.605 239.809 329.976 240.838 331.032C241.866 332.088 243.23 332.766 244.703 332.953L246.531 333.182C247.629 333.319 248.647 333.822 249.415 334.609C250.183 335.395 250.655 336.417 250.753 337.505L255.207 387.683C255.363 389.447 256.184 391.089 257.508 392.286C258.832 393.482 260.562 394.146 262.358 394.147H363.762V364.745Z" fill="white"/>
<path d="M355.399 285.354C351.715 284.268 348.18 282.739 344.874 280.802C343.921 280.219 343.058 279.505 342.309 278.681C342.122 278.472 341.953 278.249 341.804 278.013C345.41 265.603 349.056 260.165 356.691 259.597C362.519 266.988 355.399 285.354 355.399 285.354Z" fill="#263238"/>
<path opacity="0.2" d="M344.874 280.802C343.921 280.219 343.058 279.505 342.309 278.681C342.942 277.378 343.725 276.152 344.642 275.025C345.481 276.847 345.564 278.921 344.874 280.802Z" fill="black"/>
<path d="M214.746 410.661L209.262 403.709L225.927 391.308L231.411 398.251L214.746 410.661Z" fill="#FFC3BD"/>
<path opacity="0.2" d="M231.411 398.251L225.917 391.308L217.332 397.703L222.826 404.655L231.411 398.251Z" fill="black"/>
<path d="M212.453 401.029L220.786 406.627C220.931 406.721 221.036 406.864 221.08 407.03C221.125 407.195 221.106 407.371 221.028 407.523L217.483 414.655C217.388 414.832 217.256 414.987 217.096 415.11C216.935 415.233 216.75 415.322 216.553 415.37C216.356 415.418 216.15 415.424 215.95 415.388C215.75 415.353 215.56 415.276 215.393 415.163C212.524 413.171 211.241 412.045 207.585 409.585C205.333 408.071 200.121 405.043 197.011 402.952C193.9 400.86 195.829 397.713 197.314 398.31C203.969 400.99 207.828 400.95 210.898 400.641C211.446 400.59 211.996 400.727 212.453 401.029Z" fill="#263238"/>
<path d="M207.888 398.908C207.867 399.023 207.867 399.141 207.888 399.257C208.151 400.332 210.05 401.199 211.151 401.617C211.179 401.636 211.212 401.646 211.247 401.646C211.281 401.646 211.314 401.636 211.342 401.617C211.359 401.588 211.368 401.556 211.368 401.522C211.368 401.489 211.359 401.457 211.342 401.428C211.201 401.099 209.949 398.161 208.838 397.972C208.717 397.951 208.592 397.962 208.477 398.004C208.361 398.046 208.259 398.117 208.181 398.211C208.019 398.412 207.918 398.653 207.888 398.908ZM210.918 401.139C209.393 400.512 208.413 399.784 208.262 399.147C208.233 399.009 208.241 398.865 208.286 398.731C208.33 398.596 208.409 398.475 208.514 398.38C208.551 398.329 208.602 398.289 208.661 398.266C208.721 398.243 208.785 398.237 208.848 398.251C209.524 398.4 210.454 400.123 210.918 401.139Z" fill="#191230"/>
<path d="M210.696 398.729C210.605 399.679 210.74 400.637 211.09 401.527C211.101 401.556 211.121 401.58 211.146 401.598C211.171 401.615 211.201 401.625 211.231 401.627C211.262 401.631 211.293 401.626 211.322 401.614C211.35 401.602 211.375 401.582 211.393 401.557C211.454 401.468 212.898 399.366 212.575 398.131C212.539 397.979 212.47 397.837 212.372 397.715C212.274 397.593 212.15 397.493 212.009 397.424C211.875 397.337 211.715 397.298 211.556 397.312C211.396 397.326 211.246 397.394 211.13 397.504C210.851 397.853 210.698 398.284 210.696 398.729ZM211.282 401.069C210.959 400.073 210.878 398.231 211.373 397.753C211.454 397.673 211.585 397.603 211.847 397.753C211.944 397.801 212.029 397.869 212.095 397.954C212.162 398.038 212.208 398.136 212.231 398.241C212.453 399.057 211.656 400.472 211.282 401.069Z" fill="#191230"/>
<path d="M359.105 267.376L359.237 267.914L359.328 268.332L359.479 269.119C359.57 269.637 359.641 270.115 359.701 270.643C359.812 271.639 359.873 272.635 359.893 273.631C359.925 275.633 359.773 277.633 359.439 279.607C358.771 283.59 357.331 287.408 355.197 290.852C354.128 292.555 352.904 294.159 351.54 295.643C350.864 296.38 350.137 297.057 349.419 297.724L348.298 298.72C347.894 299.039 347.46 299.338 347.016 299.637C345.043 300.952 342.79 301.801 340.43 302.117C339.041 302.284 337.63 302.148 336.3 301.718C335.615 301.472 334.966 301.137 334.37 300.722C334.072 300.517 333.788 300.29 333.522 300.045L333.128 299.647L332.643 299.079C332.161 298.546 331.909 297.849 331.939 297.136C331.969 296.422 332.279 295.748 332.804 295.256C333.329 294.765 334.027 294.494 334.751 294.501C335.475 294.508 336.168 294.792 336.683 295.294C336.592 295.175 336.683 295.204 336.683 295.175H336.805L337.077 295.105C337.25 295.053 337.416 294.983 337.572 294.896C337.898 294.718 338.208 294.515 338.501 294.288C339.351 293.622 340.136 292.878 340.845 292.067L341.491 291.34L342.228 290.583C342.703 290.055 343.168 289.537 343.582 288.989C344.429 287.921 345.179 286.781 345.824 285.583C347.085 283.198 347.925 280.618 348.308 277.954C348.499 276.608 348.583 275.249 348.561 273.89C348.561 273.213 348.561 272.535 348.45 271.898L348.349 270.902L348.238 270.175L348.137 269.528C347.92 268.119 348.264 266.682 349.098 265.518C349.931 264.354 351.189 263.553 352.608 263.282C354.026 263.012 355.496 263.294 356.709 264.068C357.922 264.842 358.784 266.049 359.115 267.436L359.105 267.376Z" fill="#EDB29F"/>
<path d="M345.127 272.097C343.978 276.954 343.165 281.882 342.693 286.848C341.824 294.059 341.198 301.2 340.36 313.123L376.972 318.84C377.871 308.551 380.932 297.147 391.183 275.284C391.762 274.149 392.077 272.899 392.103 271.628C392.13 270.357 391.867 269.096 391.336 267.938C390.804 266.78 390.017 265.753 389.031 264.934C388.045 264.115 386.886 263.523 385.638 263.203C384.204 262.834 382.689 262.466 381.123 262.147C375.652 260.89 370.096 260.025 364.499 259.558C362.661 259.428 360.752 259.368 358.924 259.329C352.318 259.179 346.339 265.773 345.127 272.097Z" fill="#263238"/>
<path d="M378.75 243.512C377.285 248.851 375.478 258.641 378.992 262.207C378.992 262.207 373.862 261.44 362.964 268.073C359.812 263.611 362.156 262.187 362.156 262.187C368.307 260.773 368.488 256.35 367.751 252.227L378.75 243.512Z" fill="#EDB29F"/>
<path opacity="0.2" d="M374.276 247.058L367.771 252.197C367.955 253.183 368.053 254.183 368.064 255.185C370.397 254.856 373.761 252.366 374.185 249.986C374.402 249.024 374.432 248.031 374.276 247.058Z" fill="black"/>
<path d="M360.792 238.283C360.903 241.022 359.227 243.263 357.065 243.392C354.904 243.522 353.025 241.321 352.934 238.582C352.843 235.843 354.5 233.602 356.671 233.472C358.843 233.343 360.691 235.544 360.792 238.283Z" fill="#191230"/>
<path d="M363.6 238.333C363.731 241.839 361.58 244.757 358.833 244.867C356.086 244.976 353.702 242.217 353.571 238.721C353.439 235.225 355.591 232.297 358.338 232.188C361.085 232.078 363.408 234.837 363.6 238.333Z" fill="#263238"/>
<path opacity="0.2" d="M363.6 238.333C363.731 241.839 361.58 244.757 358.833 244.867C356.086 244.976 353.702 242.217 353.571 238.721C353.439 235.225 355.591 232.297 358.338 232.188C361.085 232.078 363.408 234.837 363.6 238.333Z" fill="black"/>
<path d="M378.871 221.998C378.871 221.998 381.568 214.678 387.618 216.122C393.668 217.566 395.122 223.094 393.102 229.698C391.082 236.301 393.799 237.666 393.799 237.666C393.799 237.666 386.729 238.811 386.113 230.823C385.497 222.835 381.325 225.325 381.325 225.325L378.871 221.998Z" fill="#263238"/>
<path d="M378.508 230.425C379.356 239.169 379.891 242.835 376.265 248.173C370.801 256.211 359.964 255.862 356.55 247.685C353.52 240.325 352.601 227.277 360.459 222.078C362.107 220.901 364.044 220.181 366.07 219.993C368.095 219.804 370.135 220.154 371.977 221.006C373.82 221.858 375.397 223.181 376.545 224.837C377.693 226.493 378.371 228.423 378.508 230.425Z" fill="#EDB29F"/>
<path d="M368.175 234.867C368.276 235.594 367.983 236.261 367.519 236.361C367.054 236.46 366.6 235.942 366.509 235.215C366.418 234.488 366.69 233.811 367.155 233.721C367.62 233.632 368.074 234.13 368.175 234.867Z" fill="#263238"/>
<path d="M359.065 236.47C359.166 237.197 358.873 237.865 358.409 237.964C357.944 238.064 357.489 237.546 357.399 236.819C357.308 236.092 357.59 235.415 358.055 235.325C358.52 235.235 358.964 235.733 359.065 236.47Z" fill="#263238"/>
<path d="M358.247 235.315L356.469 235.166C356.469 235.166 357.54 236.361 358.247 235.315Z" fill="#263238"/>
<path d="M362.055 237.496C361.658 239.299 361.027 241.043 360.176 242.685C360.582 242.881 361.027 242.983 361.479 242.983C361.931 242.983 362.376 242.881 362.782 242.685L362.055 237.496Z" fill="#BA4D3C"/>
<path d="M367.256 244.498C366.874 244.651 366.479 244.768 366.074 244.847C366.048 244.852 366.02 244.853 365.993 244.847C365.967 244.841 365.941 244.83 365.919 244.814C365.897 244.798 365.879 244.777 365.866 244.754C365.852 244.73 365.844 244.704 365.842 244.677C365.833 244.621 365.845 244.563 365.877 244.515C365.909 244.467 365.958 244.433 366.014 244.418C366.925 244.235 367.782 243.851 368.522 243.296C369.261 242.741 369.864 242.028 370.286 241.211C370.307 241.157 370.348 241.114 370.401 241.089C370.454 241.065 370.514 241.062 370.569 241.082C370.621 241.108 370.66 241.152 370.679 241.206C370.698 241.26 370.695 241.319 370.67 241.371C369.962 242.793 368.746 243.906 367.256 244.498Z" fill="#263238"/>
<path d="M368.872 230.006C368.821 230.033 368.764 230.047 368.705 230.047C368.647 230.047 368.59 230.033 368.539 230.006C368.095 229.719 367.585 229.545 367.056 229.502C366.527 229.458 365.995 229.546 365.509 229.757C365.459 229.782 365.405 229.797 365.35 229.8C365.295 229.803 365.239 229.796 365.187 229.777C365.135 229.758 365.087 229.729 365.047 229.691C365.007 229.654 364.975 229.608 364.953 229.558C364.909 229.452 364.907 229.333 364.946 229.224C364.985 229.116 365.063 229.026 365.165 228.97C365.777 228.7 366.447 228.584 367.115 228.633C367.783 228.682 368.429 228.893 368.993 229.249C369.088 229.314 369.154 229.412 369.176 229.524C369.199 229.635 369.177 229.751 369.115 229.847C369.054 229.925 368.969 229.982 368.872 230.006Z" fill="#263238"/>
<path d="M354.672 232.437C354.571 232.477 354.459 232.477 354.358 232.437C354.254 232.389 354.173 232.303 354.131 232.197C354.09 232.091 354.092 231.973 354.136 231.869C354.374 231.217 354.759 230.628 355.263 230.146C355.768 229.665 356.377 229.303 357.045 229.09C357.1 229.078 357.156 229.078 357.21 229.088C357.265 229.099 357.317 229.12 357.363 229.15C357.41 229.181 357.449 229.221 357.479 229.267C357.51 229.313 357.53 229.365 357.54 229.419C357.559 229.533 357.535 229.65 357.471 229.748C357.408 229.845 357.31 229.916 357.197 229.947C356.671 230.123 356.192 230.414 355.797 230.799C355.401 231.183 355.1 231.651 354.914 232.168C354.894 232.226 354.862 232.28 354.82 232.326C354.778 232.372 354.728 232.41 354.672 232.437Z" fill="#263238"/>
<path d="M367.357 233.711L365.62 233.562C365.62 233.562 366.63 234.747 367.357 233.711Z" fill="#263238"/>
<path d="M369.306 223.722C369.711 225.591 370.536 227.346 371.722 228.858C372.907 230.37 374.422 231.6 376.154 232.456L377.275 239.05L378.649 243.084C378.649 243.084 385.588 241.63 384.396 230.136C383.588 222.407 379.901 220.176 377.326 219.508C375.898 219.176 374.561 218.54 373.407 217.646C371.73 216.301 368.357 214.987 362.135 217.297C352.954 220.714 355.601 228.323 355.601 228.323C356.686 226.591 358.193 225.153 359.984 224.14C362.509 222.865 366.933 222.198 369.306 223.722Z" fill="#263238"/>
<path d="M382.477 236.938C381.863 238.7 380.567 240.151 378.871 240.972C376.669 241.968 375.265 239.907 375.619 237.486C375.932 235.305 377.457 232.158 379.78 232.188C382.103 232.217 383.275 234.707 382.477 236.938Z" fill="#CE7A63"/>
<path d="M382.982 237.337C383.113 240.833 380.962 243.761 378.215 243.861C375.467 243.96 373.084 241.221 372.952 237.715C372.821 234.209 374.972 231.301 377.72 231.192C380.467 231.082 382.84 233.841 382.982 237.337Z" fill="#263238"/>
<path opacity="0.2" d="M382.982 237.337C383.113 240.833 380.962 243.761 378.215 243.861C375.467 243.96 373.084 241.221 372.952 237.715C372.821 234.209 374.972 231.301 377.72 231.192C380.467 231.082 382.84 233.841 382.982 237.337Z" fill="black"/>
<path d="M378.639 233.293C378.639 233.293 378.71 221.481 374.599 218.423L377.76 219.728C380.177 223.964 381.197 228.837 380.679 233.672L378.639 233.293Z" fill="#191230"/>
<path opacity="0.2" d="M378.639 233.293C378.639 233.293 378.71 221.481 374.599 218.423L377.76 219.728C380.177 223.964 381.197 228.837 380.679 233.672L378.639 233.293Z" fill="black"/>
<path d="M383.325 237.596C383.436 240.335 381.77 242.576 379.598 242.705C377.427 242.835 375.558 240.634 375.467 237.895C375.377 235.156 377.033 232.915 379.204 232.785C381.376 232.656 383.224 234.857 383.325 237.596Z" fill="#191230"/>
<path d="M328.048 293.053L328.432 295.404C328.501 295.84 328.674 296.253 328.938 296.61C329.201 296.967 329.547 297.257 329.947 297.455L333.754 299.318C334.503 299.685 335.33 299.871 336.167 299.859C337.003 299.847 337.824 299.637 338.562 299.248L339.491 298.76C339.138 294.776 335.795 290.792 335.795 290.792L334.977 289.547C334.816 289.285 334.605 289.058 334.354 288.877C334.103 288.697 333.819 288.568 333.517 288.497C333.215 288.427 332.902 288.416 332.596 288.467C332.29 288.517 331.997 288.627 331.734 288.79L329.209 290.364C328.772 290.652 328.429 291.06 328.222 291.538C328.016 292.015 327.955 292.542 328.048 293.053Z" fill="#EDB29F"/>
<path d="M372.538 360.552C358.398 369.904 326.503 364.098 297.576 358.022C293.829 363.017 289.439 367.51 284.517 371.388C270.68 382.613 252.5 391.607 240.592 396.846C233.159 400.133 228.149 401.946 228.149 401.946L220.432 392.514C220.432 392.514 237.097 379.725 255.52 365.781C268.044 356.289 281.376 346.249 290.809 339.337C291.329 338.969 291.91 338.692 292.526 338.52H292.577C293.492 338.288 294.43 338.157 295.375 338.132L297.395 338.003L299 337.903C308.979 337.246 330.795 336.1 330.795 336.1L340.976 312.844L377.962 315.144C377.962 315.144 384.81 352.445 372.538 360.552Z" fill="#191230"/>
<path d="M216.958 393.211L226.725 405.093L232.057 401.936L221.422 389.307L216.958 393.211Z" fill="#263238"/>
<path opacity="0.2" d="M302.626 338.052C297.181 349.451 291.136 360.561 284.517 371.339C270.68 382.613 252.5 391.607 240.592 396.846C244.012 385.83 249.045 375.364 255.53 365.781C257.348 363.102 259.348 360.393 261.59 357.703C272.387 344.477 284.355 339.965 292.577 338.52H292.627C293.637 338.341 294.546 338.222 295.425 338.132C296.788 337.983 298 337.923 299.021 337.903C300.225 337.865 301.43 337.915 302.626 338.052Z" fill="black"/>
<path d="M249.45 405.731L241.249 402.245L249.813 383.47L258.015 386.946L249.45 405.731Z" fill="#FFC3BD"/>
<path opacity="0.2" d="M258.015 386.956L249.803 383.47L245.4 393.151L253.601 396.637L258.015 386.956Z" fill="black"/>
<path d="M242.743 398.4L252.773 399.396C252.945 399.41 253.107 399.486 253.228 399.608C253.348 399.731 253.42 399.893 253.429 400.063L253.803 408.031C253.804 408.231 253.762 408.429 253.681 408.612C253.6 408.795 253.481 408.959 253.332 409.094C253.182 409.229 253.006 409.332 252.814 409.396C252.622 409.46 252.419 409.484 252.217 409.466C248.723 409.067 247.056 408.709 242.642 408.28C239.925 408.021 233.886 407.842 230.139 407.484C226.391 407.125 226.553 403.5 228.119 403.27C235.269 402.454 238.623 400.591 241.178 398.868C241.626 398.532 242.182 398.366 242.743 398.4Z" fill="#263238"/>
<path d="M237.714 398.689C237.76 398.795 237.825 398.893 237.905 398.978C238.653 399.804 240.744 399.655 241.945 399.496C241.979 399.491 242.011 399.477 242.038 399.456C242.064 399.435 242.085 399.407 242.097 399.376C242.103 399.342 242.1 399.307 242.09 399.274C242.079 399.241 242.061 399.211 242.036 399.187C241.743 398.968 239.218 396.986 238.158 397.344C238.041 397.384 237.937 397.454 237.857 397.547C237.777 397.639 237.724 397.752 237.703 397.872C237.609 398.137 237.613 398.426 237.714 398.689ZM241.44 399.207C239.804 399.376 238.592 399.207 238.168 398.749C238.073 398.641 238.009 398.511 237.982 398.371C237.955 398.23 237.967 398.086 238.017 397.952C238.021 397.889 238.045 397.829 238.085 397.779C238.124 397.729 238.178 397.692 238.239 397.673C238.895 397.454 240.552 398.539 241.44 399.207Z" fill="#191230"/>
<path d="M240.077 397.205C240.468 398.077 241.055 398.85 241.794 399.466C241.82 399.481 241.85 399.488 241.88 399.488C241.91 399.488 241.94 399.481 241.966 399.466C241.993 399.453 242.016 399.433 242.034 399.409C242.052 399.384 242.063 399.356 242.067 399.326C242.067 399.217 242.319 396.697 241.44 395.771C241.336 395.652 241.205 395.558 241.058 395.496C240.911 395.433 240.752 395.405 240.592 395.412C240.432 395.399 240.273 395.44 240.14 395.529C240.008 395.618 239.911 395.749 239.865 395.9C239.783 396.346 239.858 396.806 240.077 397.205ZM241.733 398.978C240.976 398.261 239.996 396.677 240.198 395.99C240.198 395.88 240.309 395.761 240.602 395.751C240.71 395.744 240.818 395.763 240.918 395.804C241.018 395.846 241.107 395.909 241.178 395.99C241.774 396.657 241.774 398.271 241.733 398.978Z" fill="#191230"/>
<path opacity="0.3" d="M372.538 360.552C358.398 369.904 326.503 364.098 297.576 358.022C293.829 363.017 289.439 367.51 284.517 371.388C270.68 382.613 252.5 391.607 240.592 396.846C233.159 400.133 228.149 401.946 228.149 401.946L220.432 392.514C220.432 392.514 237.097 379.725 255.52 365.781C268.044 356.289 281.376 346.249 290.809 339.337C291.329 338.969 291.91 338.692 292.526 338.52H292.577C293.492 338.288 294.43 338.157 295.375 338.132L297.395 338.003L299 337.903C308.979 337.246 330.795 336.1 330.795 336.1L340.976 312.844L377.962 315.144C377.962 315.144 384.81 352.445 372.538 360.552Z" fill="black"/>
<path d="M374.437 326.509C374.437 326.509 319.13 317.047 298.334 317.913C278.002 318.76 245.511 387.683 245.511 387.683L257.227 392.663C281.931 368.839 296.233 351.349 302.626 338.082C350.238 359.536 368.155 359.357 368.155 359.357L374.437 326.509Z" fill="#191230"/>
<path opacity="0.3" d="M374.437 326.509C374.437 326.509 319.13 317.047 298.334 317.913C278.002 318.76 245.511 387.683 245.511 387.683L257.227 392.663C281.931 368.839 296.233 351.349 302.626 338.082C350.238 359.536 368.155 359.357 368.155 359.357L374.437 326.509Z" fill="black"/>
<path d="M242.875 389.386L257.237 395.183L260.368 389.874L244.885 383.848L242.875 389.386Z" fill="#263238"/>
<path opacity="0.2" d="M302.626 338.052C302.626 338.052 304.495 333.67 307.676 333.162C310.858 332.654 337.34 334.835 337.34 334.835L302.626 338.052Z" fill="black"/>
<path d="M344.309 297.804L340.269 279.159C340.169 278.755 339.939 278.394 339.613 278.13C339.287 277.866 338.882 277.713 338.461 277.695H328.826C328.641 277.686 328.457 277.721 328.288 277.796C328.12 277.872 327.972 277.986 327.857 278.129C327.743 278.273 327.665 278.441 327.629 278.62C327.594 278.799 327.602 278.984 327.654 279.159L331.694 297.804C331.794 298.211 332.026 298.574 332.354 298.84C332.681 299.106 333.088 299.26 333.512 299.278H343.147C343.332 299.284 343.515 299.246 343.682 299.169C343.849 299.091 343.995 298.976 344.108 298.832C344.221 298.689 344.299 298.52 344.333 298.342C344.368 298.163 344.36 297.979 344.309 297.804Z" fill="#191230"/>
<path opacity="0.2" d="M342.238 299.248H333.502C333.078 299.23 332.671 299.076 332.343 298.81C332.016 298.545 331.784 298.181 331.684 297.774L327.644 279.129C327.592 278.954 327.584 278.769 327.619 278.59C327.654 278.411 327.733 278.243 327.847 278.099C327.962 277.956 328.11 277.842 328.278 277.766C328.446 277.691 328.631 277.656 328.816 277.665H337.552C337.973 277.683 338.377 277.836 338.703 278.1C339.029 278.364 339.26 278.725 339.36 279.129L343.4 297.804C343.445 297.977 343.449 298.158 343.412 298.333C343.374 298.507 343.296 298.671 343.184 298.811C343.071 298.951 342.927 299.063 342.763 299.139C342.599 299.215 342.42 299.252 342.238 299.248Z" fill="black"/>
<path d="M340.239 288.262L342.935 287.675C343.435 287.562 343.955 287.57 344.451 287.699C344.947 287.827 345.404 288.072 345.784 288.412L349.399 291.619C350.113 292.25 350.662 293.041 351.001 293.925C351.34 294.808 351.46 295.76 351.349 296.698L351.207 297.874C346.804 299.159 341.107 297.336 341.107 297.336L339.421 296.997C339.071 296.938 338.738 296.812 338.438 296.625C338.139 296.438 337.881 296.194 337.678 295.908C337.475 295.621 337.332 295.298 337.256 294.957C337.181 294.616 337.175 294.263 337.239 293.92L337.875 290.603C337.999 290.03 338.288 289.505 338.708 289.09C339.127 288.674 339.658 288.387 340.239 288.262Z" fill="#EDB29F"/>
<path opacity="0.6" d="M366.933 281.868L369.155 279.876C369.219 279.818 369.296 279.778 369.38 279.757C369.464 279.737 369.551 279.738 369.635 279.76C369.718 279.781 369.795 279.824 369.858 279.882C369.92 279.941 369.967 280.014 369.993 280.095L370.821 282.754C370.849 282.838 370.853 282.928 370.834 283.014C370.815 283.1 370.773 283.18 370.712 283.245C370.651 283.309 370.574 283.357 370.489 283.383C370.404 283.409 370.313 283.412 370.226 283.392L367.196 282.774C367.09 282.769 366.989 282.732 366.907 282.667C366.824 282.602 366.764 282.514 366.735 282.414C366.707 282.314 366.71 282.208 366.745 282.11C366.781 282.012 366.846 281.927 366.933 281.868Z" fill="white"/>
<path opacity="0.2" d="M377.306 282.316C377.306 282.316 373.316 290.932 377.306 293.89C381.295 296.848 384.547 283.213 377.306 282.316Z" fill="black"/>
<path d="M391.739 281.778C391.405 283.193 391.092 284.378 390.729 285.643C390.365 286.908 389.951 288.113 389.537 289.338C388.682 291.775 387.712 294.182 386.628 296.559C385.532 298.946 384.308 301.273 382.962 303.531C381.573 305.861 380.013 308.088 378.295 310.194L378.164 310.354C377.986 310.575 377.787 310.779 377.568 310.961C376.324 311.971 374.814 312.61 373.215 312.804C372.078 312.944 370.926 312.907 369.801 312.694C368.132 312.366 366.51 311.834 364.974 311.111C362.366 309.891 359.878 308.437 357.54 306.768C355.298 305.174 353.177 303.491 351.137 301.728C349.096 299.965 347.157 298.173 345.268 296.19C345.014 295.928 344.815 295.618 344.683 295.279C344.551 294.94 344.488 294.579 344.499 294.215C344.509 293.852 344.592 293.495 344.743 293.164C344.894 292.833 345.111 292.534 345.38 292.286C345.833 291.869 346.413 291.61 347.03 291.551C347.647 291.491 348.267 291.634 348.793 291.957H348.854C350.995 293.292 353.197 294.687 355.399 295.941C357.601 297.196 359.792 298.501 362.004 299.627C364.09 300.748 366.261 301.707 368.498 302.495C369.367 302.813 370.273 303.017 371.195 303.103C371.528 303.103 371.751 303.103 371.71 303.043C371.418 303.066 371.142 303.181 370.922 303.372L370.185 304.149C371.411 302.301 372.534 300.39 373.548 298.422C374.558 296.43 375.508 294.328 376.376 292.197C377.245 290.065 378.053 287.894 378.79 285.693C379.174 284.597 379.538 283.491 379.871 282.386C380.204 281.28 380.558 280.125 380.831 279.169V279C381.232 277.613 382.166 276.436 383.434 275.719C384.701 275.001 386.203 274.799 387.619 275.155C389.036 275.512 390.255 276.399 391.019 277.628C391.782 278.858 392.03 280.332 391.708 281.739L391.739 281.778Z" fill="#EDB29F"/>
<path d="M388.466 264.458C394.718 268.82 395.011 275.334 391.638 287.804C387.123 290.035 376.154 287.217 376.154 287.217C376.154 287.217 379.608 267.854 388.466 264.458Z" fill="#263238"/>
<path d="M440.562 311.041H383.618C379.746 311.042 376.014 312.474 373.161 315.056C370.307 317.637 368.539 321.18 368.206 324.985L364.681 364.765H360.641V394.187H422.927C424.724 394.186 426.455 393.523 427.781 392.326C429.106 391.13 429.929 389.488 430.088 387.723L434.532 337.544C434.63 336.457 435.102 335.435 435.87 334.648C436.638 333.862 437.656 333.359 438.754 333.222L440.582 332.993C442.056 332.806 443.421 332.128 444.451 331.072C445.481 330.017 446.115 328.645 446.248 327.186L447.056 318.033C447.138 317.144 447.03 316.248 446.741 315.403C446.451 314.557 445.986 313.781 445.375 313.123C444.763 312.465 444.02 311.94 443.191 311.581C442.362 311.223 441.467 311.039 440.562 311.041Z" fill="#263238"/>
<path opacity="0.6" d="M440.562 311.041H383.618C379.746 311.042 376.014 312.474 373.161 315.056C370.307 317.637 368.539 321.18 368.206 324.985L364.681 364.765H360.641V394.187H422.927C424.724 394.186 426.455 393.523 427.781 392.326C429.106 391.13 429.929 389.488 430.088 387.723L434.532 337.544C434.63 336.457 435.102 335.435 435.87 334.648C436.638 333.862 437.656 333.359 438.754 333.222L440.582 332.993C442.056 332.806 443.421 332.128 444.451 331.072C445.481 330.017 446.115 328.645 446.248 327.186L447.056 318.033C447.138 317.144 447.03 316.248 446.741 315.403C446.451 314.557 445.986 313.781 445.375 313.123C444.763 312.465 444.02 311.94 443.191 311.581C442.362 311.223 441.467 311.039 440.562 311.041Z" fill="white"/>
<g opacity="0.2">
<path opacity="0.2" d="M389.012 387.703L393.466 337.524C393.559 336.437 394.028 335.414 394.795 334.627C395.562 333.84 396.579 333.337 397.677 333.202L399.516 332.973C400.988 332.784 402.35 332.105 403.379 331.05C404.407 329.994 405.039 328.624 405.172 327.166L405.98 318.013C406.058 317.127 405.949 316.234 405.658 315.391C405.368 314.549 404.903 313.775 404.293 313.12C403.684 312.464 402.942 311.94 402.116 311.583C401.29 311.225 400.398 311.04 399.495 311.041H440.562C441.464 311.04 442.357 311.225 443.183 311.583C444.009 311.94 444.75 312.464 445.36 313.12C445.97 313.775 446.435 314.549 446.725 315.391C447.015 316.234 447.125 317.127 447.046 318.013L446.238 327.166C446.106 328.626 445.472 329.997 444.441 331.053C443.411 332.108 442.046 332.786 440.572 332.973L438.744 333.202C437.646 333.339 436.628 333.842 435.86 334.629C435.092 335.415 434.62 336.437 434.522 337.524L430.078 387.703C429.919 389.468 429.096 391.11 427.771 392.306C426.446 393.503 424.714 394.166 422.917 394.167H381.861C383.656 394.166 385.387 393.502 386.71 392.306C388.034 391.109 388.855 389.467 389.012 387.703Z" fill="black"/>
</g>
<path opacity="0.1" d="M399.495 311.041H383.618C379.746 311.042 376.014 312.474 373.161 315.056C370.307 317.637 368.539 321.18 368.206 324.985L364.681 364.765H360.641V394.187H381.851C383.646 394.186 385.376 393.522 386.7 392.326C388.024 391.129 388.845 389.487 389.001 387.723L393.456 337.544C393.549 336.457 394.018 335.434 394.785 334.647C395.552 333.86 396.569 333.357 397.667 333.222L399.505 332.993C400.977 332.804 402.34 332.125 403.368 331.07C404.397 330.014 405.029 328.644 405.161 327.186L405.969 318.033C406.051 317.146 405.944 316.252 405.656 315.408C405.367 314.563 404.904 313.788 404.295 313.13C403.686 312.472 402.944 311.947 402.118 311.587C401.292 311.227 400.399 311.041 399.495 311.041Z" fill="white"/>
</svg>
