<svg width="28" height="24" viewBox="0 0 28 24" fill="none" xmlns="http://www.w3.org/2000/svg">
<path d="M22.5674 12C22.5674 17.5228 18.0902 22 12.5674 22C7.04454 22 2.56738 17.5228 2.56738 12C2.56738 6.47715 7.04454 2 12.5674 2C18.0902 2 22.5674 6.47715 22.5674 12Z" fill="#14142B"/>
<path fill-rule="evenodd" clip-rule="evenodd" d="M12.5674 2.75C7.45875 2.75 3.31738 6.89137 3.31738 12C3.31738 17.1086 7.45875 21.25 12.5674 21.25C17.676 21.25 21.8174 17.1086 21.8174 12C21.8174 6.89137 17.676 2.75 12.5674 2.75ZM1.81738 12C1.81738 6.06294 6.63032 1.25 12.5674 1.25C18.5044 1.25 23.3174 6.06294 23.3174 12C23.3174 17.9371 18.5044 22.75 12.5674 22.75C6.63032 22.75 1.81738 17.9371 1.81738 12Z" fill="#14142B"/>
<path fill-rule="evenodd" clip-rule="evenodd" d="M12.5674 5.25C12.9816 5.25 13.3174 5.58579 13.3174 6V12.1487L16.0475 14.4238C16.3657 14.689 16.4087 15.1619 16.1435 15.4801C15.8784 15.7983 15.4055 15.8413 15.0872 15.5762L12.0872 13.0762C11.9163 12.9337 11.8174 12.7226 11.8174 12.5V6C11.8174 5.58579 12.1532 5.25 12.5674 5.25Z" fill="#F2F0F4"/>
</svg>
