<svg width="28" height="24" viewBox="0 0 28 24" fill="none" xmlns="http://www.w3.org/2000/svg">
<path d="M2.90283 8.01245C2.90283 6.3556 4.24598 5.01245 5.90283 5.01245H19.9028C21.5597 5.01245 22.9028 6.3556 22.9028 8.01245V18.9999C22.9028 20.6568 21.5597 21.9999 19.9028 21.9999H5.90283C4.24598 21.9999 2.90283 20.6568 2.90283 18.9999V8.01245Z" fill="#14142B"/>
<path fill-rule="evenodd" clip-rule="evenodd" d="M2.15283 8.01245C2.15283 5.94138 3.83176 4.26245 5.90283 4.26245H19.9028C21.9739 4.26245 23.6528 5.94138 23.6528 8.01245V18.9999C23.6528 21.071 21.9739 22.7499 19.9028 22.7499H5.90283C3.83176 22.7499 2.15283 21.071 2.15283 18.9999V8.01245ZM5.90283 5.76245C4.66019 5.76245 3.65283 6.76981 3.65283 8.01245V18.9999C3.65283 20.2426 4.66019 21.2499 5.90283 21.2499H19.9028C21.1455 21.2499 22.1528 20.2426 22.1528 18.9999V8.01245C22.1528 6.76981 21.1455 5.76245 19.9028 5.76245H5.90283Z" fill="#14142B"/>
<path fill-rule="evenodd" clip-rule="evenodd" d="M7.90259 1.24999C8.3168 1.24985 8.6527 1.58552 8.65284 1.99973L8.65387 5.01248C8.65401 5.42669 8.31834 5.76259 7.90413 5.76273C7.48991 5.76287 7.15401 5.4272 7.15387 5.01299L7.15284 2.00024C7.1527 1.58603 7.48837 1.25013 7.90259 1.24999Z" fill="#14142B"/>
<path fill-rule="evenodd" clip-rule="evenodd" d="M17.9028 1.25C18.317 1.25 18.6528 1.58579 18.6528 2V4.63158C18.6528 5.04579 18.317 5.38158 17.9028 5.38158C17.4886 5.38158 17.1528 5.04579 17.1528 4.63158V2C17.1528 1.58579 17.4886 1.25 17.9028 1.25Z" fill="#14142B"/>
<path fill-rule="evenodd" clip-rule="evenodd" d="M6.15283 9.36841C6.15283 8.95419 6.48862 8.61841 6.90283 8.61841L18.9028 8.61841C19.317 8.61841 19.6528 8.9542 19.6528 9.36841C19.6528 9.78262 19.317 10.1184 18.9028 10.1184L6.90283 10.1184C6.48862 10.1184 6.15283 9.78262 6.15283 9.36841Z" fill="#F2F0F4"/>
</svg>
