<svg xmlns="http://www.w3.org/2000/svg" viewBox="0 0 1440 320">
<path fill="url(#paint0_linear_49_219)" fill-opacity="1" d="M0,64L26.7,64C53.3,64,107,64,160,85.3C213.3,107,267,149,320,154.7C373.3,160,427,128,480,149.3C533.3,171,587,245,640,240C693.3,235,747,149,800,138.7C853.3,128,907,192,960,202.7C1013.3,213,1067,171,1120,170.7C1173.3,171,1227,213,1280,192C1333.3,171,1387,85,1413,42.7L1440,0L1440,0L1413.3,0C1386.7,0,1333,0,1280,0C1226.7,0,1173,0,1120,0C1066.7,0,1013,0,960,0C906.7,0,853,0,800,0C746.7,0,693,0,640,0C586.7,0,533,0,480,0C426.7,0,373,0,320,0C266.7,0,213,0,160,0C106.7,0,53,0,27,0L0,0Z"></path>
<defs>
<linearGradient id="paint0_linear_49_219" x1="-216" y1="0" x2="1743.1" y2="0" gradientUnits="userSpaceOnUse">
<stop offset="0.113566" stop-color="#7FDD65"/>
<stop offset="0.290056" stop-color="#87E56E"/>
<stop offset="0.510997" stop-color="#97F361"/>
<stop offset="1" stop-color="#B3F941"/>
</linearGradient>
</defs>

</svg>