<svg viewBox="0 0 2003 678" fill="red" xmlns="http://www.w3.org/2000/svg">
<path style="transform: translate(0, -40%);" d="M139.611 465.042C22.7623 455.489 -2.06365 394.719 0.129454 365.529L0.129454 0L2002.87 0V365.529C2005.06 394.719 1980.24 455.489 1863.39 465.042C1717.33 476.983 1721.28 518.779 1698.91 552.614C1676.54 586.448 1641.01 620.282 1516 593.414C1391 566.545 1268.62 557.589 1175.19 621.278C1100.45 672.228 1028.1 678 1001.5 678C974.898 678 902.547 672.228 827.806 621.278C734.38 557.589 612.005 566.545 486.998 593.414C361.991 620.282 326.463 586.448 304.093 552.614C281.724 518.779 285.671 476.983 139.611 465.042Z" fill="url(#paint0_linear_49_219)"/>
<defs>
<linearGradient id="paint0_linear_49_219" x1="-216" y1="0" x2="2303.1" y2="0" gradientUnits="userSpaceOnUse">
<stop offset="0.113566" stop-color="#7FDD65"/>
<stop offset="0.290056" stop-color="#87E56E"/>
<stop offset="0.510997" stop-color="#97F361"/>
<stop offset="1" stop-color="#B3F941"/>
</linearGradient>
</defs>
</svg>
