<svg width="1440" height="931" viewBox="0 0 1440 931" fill="none" xmlns="http://www.w3.org/2000/svg">
<path d="M100.369 805.569C16.3643 799.942 -1.4836 764.15 0.0930671 746.957L0.0930671 -75L1439.91 -75V746.957C1441.48 764.15 1423.64 799.942 1339.63 805.569C1234.62 812.603 1237.46 837.22 1221.38 857.148C1205.3 877.076 1179.76 897.005 1089.89 881.179C1000.02 865.354 912.038 860.079 844.872 897.591C791.139 927.601 739.125 931 720 931C700.875 931 648.861 927.601 595.128 897.591C527.962 860.079 439.984 865.354 350.113 881.179C260.243 897.005 234.701 877.076 218.619 857.148C202.537 837.22 205.375 812.603 100.369 805.569Z" fill="#7AD781"/>
<path d="M100.369 805.569C16.3643 799.942 -1.4836 764.15 0.0930671 746.957L0.0930671 -75L1439.91 -75V746.957C1441.48 764.15 1423.64 799.942 1339.63 805.569C1234.62 812.603 1237.46 837.22 1221.38 857.148C1205.3 877.076 1179.76 897.005 1089.89 881.179C1000.02 865.354 912.038 860.079 844.872 897.591C791.139 927.601 739.125 931 720 931C700.875 931 648.861 927.601 595.128 897.591C527.962 860.079 439.984 865.354 350.113 881.179C260.243 897.005 234.701 877.076 218.619 857.148C202.537 837.22 205.375 812.603 100.369 805.569Z" fill="url(#paint0_linear_49_219)"/>
<defs>
<linearGradient id="paint0_linear_49_219" x1="-247.5" y1="27.3155" x2="1711.37" y2="380.091" gradientUnits="userSpaceOnUse">
<stop offset="0.113566" stop-color="#7FDD65"/>
<stop offset="0.290056" stop-color="#87E56E" stop-opacity="0.54"/>
<stop offset="0.510997" stop-color="#97F361" stop-opacity="0.808866"/>
<stop offset="1" stop-color="#B3F941"/>
</linearGradient>
</defs>
</svg>
