<svg width="34" height="35" viewBox="0 0 34 35" fill="none" xmlns="http://www.w3.org/2000/svg">
<path d="M16.8886 0.783691C7.89495 0.783691 0.610535 8.42779 0.610535 17.8555C0.610535 25.3997 5.27419 31.7973 11.7406 34.0529C12.5545 34.2136 12.853 33.6852 12.853 33.232C12.853 32.8267 12.8394 31.7524 12.8326 30.3293C8.30461 31.3587 7.34964 28.039 7.34964 28.039C6.60899 26.0686 5.53871 25.5416 5.53871 25.5416C4.06419 24.4833 5.65265 24.505 5.65265 24.505C7.28724 24.6237 8.1459 26.264 8.1459 26.264C9.59736 28.8743 11.9563 28.12 12.8869 27.6843C13.0334 26.5796 13.4525 25.8283 13.9178 25.4012C10.3027 24.9741 6.50318 23.5061 6.50318 16.9652C6.50318 15.1019 7.13395 13.5789 8.17846 12.3845C7.99533 11.9531 7.44595 10.2172 8.32089 7.86607C8.32089 7.86607 9.68418 7.40858 12.7973 9.61639C14.0996 9.23708 15.4832 9.04888 16.8669 9.04019C18.2505 9.04888 19.6341 9.23708 20.9364 9.61639C24.0292 7.40858 25.3925 7.86607 25.3925 7.86607C26.2674 10.2172 25.718 11.9531 25.5553 12.3845C26.593 13.5789 27.2237 15.1019 27.2237 16.9652C27.2237 23.5235 23.4188 24.9669 19.7969 25.3867C20.3666 25.8992 20.8957 26.9459 20.8957 28.5457C20.8957 30.8302 20.8753 32.666 20.8753 33.2205C20.8753 33.6678 21.1602 34.202 21.9944 34.0312C28.507 31.7901 33.1666 25.3881 33.1666 17.8555C33.1666 8.42779 25.8781 0.783691 16.8886 0.783691Z" fill="white"/>
</svg>
