<svg width="30" height="32" viewBox="0 0 30 32" fill="none" xmlns="http://www.w3.org/2000/svg">
<path d="M21.4775 1.95508H7.91252C4.16664 1.95508 1.13 5.19597 1.13 9.19381V23.6713C1.13 27.6691 4.16664 30.91 7.91252 30.91H21.4775C25.2234 30.91 28.2601 27.6691 28.2601 23.6713V9.19381C28.2601 5.19597 25.2234 1.95508 21.4775 1.95508Z" stroke="white" stroke-width="2" stroke-linecap="round" stroke-linejoin="round"/>
<path d="M20.121 15.5204C20.2884 16.7253 20.0956 17.9558 19.57 19.037C19.0443 20.1182 18.2126 20.9949 17.1932 21.5426C16.1738 22.0902 15.0185 22.2808 13.8917 22.0873C12.7649 21.8938 11.724 21.326 10.9169 20.4647C10.1099 19.6034 9.57793 18.4924 9.39662 17.2899C9.2153 16.0873 9.3939 14.8543 9.90701 13.7663C10.4201 12.6783 11.2416 11.7906 12.2547 11.2296C13.2677 10.6686 14.4207 10.4628 15.5496 10.6415C16.7012 10.8238 17.7673 11.3964 18.5905 12.275C19.4137 13.1536 19.9503 14.2914 20.121 15.5204Z" stroke="white" stroke-width="2" stroke-linecap="round" stroke-linejoin="round"/>
<path d="M22.1558 8.46997H22.1674" stroke="white" stroke-width="2" stroke-linecap="round" stroke-linejoin="round"/>
</svg>
