<svg width="15" height="23" viewBox="0 0 15 23" fill="none" xmlns="http://www.w3.org/2000/svg">
<path d="M13.7538 8.42243C13.7538 14.374 8.91318 19.8119 7.58655 21.1904C7.40129 21.3829 7.1064 21.3829 6.92114 21.1904C5.59451 19.8119 0.753845 14.374 0.753845 8.42243C0.753845 4.2845 4.00385 1.52588 7.25385 1.52588C10.5038 1.52588 13.7538 4.2845 13.7538 8.42243Z" fill="white"/>
<path fill-rule="evenodd" clip-rule="evenodd" d="M7.25385 2.27588C4.41113 2.27588 1.50385 4.70561 1.50385 8.42243C1.50385 11.2043 2.63966 13.9135 3.98181 16.1332C5.19029 18.1319 6.53313 19.6799 7.25385 20.4512C7.97457 19.6799 9.3174 18.1319 10.5259 16.1332C11.868 13.9135 13.0038 11.2043 13.0038 8.42243C13.0038 4.70561 10.0966 2.27588 7.25385 2.27588ZM0.00384521 8.42243C0.00384521 3.86339 3.59656 0.775879 7.25385 0.775879C10.9111 0.775879 14.5038 3.86339 14.5038 8.42243C14.5038 11.5921 13.2193 14.5776 11.8095 16.9093C10.3943 19.2498 8.81196 20.9987 8.12696 21.7105C7.64665 22.2096 6.86104 22.2096 6.38073 21.7105C5.69573 20.9987 4.11334 19.2498 2.6982 16.9093C1.28836 14.5776 0.00384521 11.5921 0.00384521 8.42243Z" fill="white"/>
<path d="M9.75385 8.50391C9.75385 9.88462 8.63456 11.0039 7.25385 11.0039C5.87313 11.0039 4.75385 9.88462 4.75385 8.50391C4.75385 7.12319 5.87313 6.00391 7.25385 6.00391C8.63456 6.00391 9.75385 7.12319 9.75385 8.50391Z" fill="white"/>
<path fill-rule="evenodd" clip-rule="evenodd" d="M7.25385 6.75391C6.28735 6.75391 5.50385 7.53741 5.50385 8.50391C5.50385 9.4704 6.28735 10.2539 7.25385 10.2539C8.22034 10.2539 9.00385 9.4704 9.00385 8.50391C9.00385 7.53741 8.22034 6.75391 7.25385 6.75391ZM4.00385 8.50391C4.00385 6.70898 5.45892 5.25391 7.25385 5.25391C9.04877 5.25391 10.5038 6.70898 10.5038 8.50391C10.5038 10.2988 9.04877 11.7539 7.25385 11.7539C5.45892 11.7539 4.00385 10.2988 4.00385 8.50391Z" fill="#14142B"/>
</svg>
