<svg width="23" height="17" viewBox="0 0 23 17" fill="none" xmlns="http://www.w3.org/2000/svg">
<path d="M1.53125 14.1294V3.12939C1.53125 2.02483 2.42668 1.12939 3.53125 1.12939H19.5312C20.6358 1.12939 21.5312 2.02483 21.5312 3.12939V14.1294C21.5312 15.234 20.6358 16.1294 19.5312 16.1294H3.53125C2.42668 16.1294 1.53125 15.234 1.53125 14.1294Z" fill="white"/>
<path fill-rule="evenodd" clip-rule="evenodd" d="M3.53125 1.87939C2.84089 1.87939 2.28125 2.43904 2.28125 3.12939V14.1294C2.28125 14.8198 2.84089 15.3794 3.53125 15.3794H19.5312C20.2216 15.3794 20.7812 14.8198 20.7812 14.1294V3.12939C20.7812 2.43904 20.2216 1.87939 19.5312 1.87939H3.53125ZM0.78125 3.12939C0.78125 1.61061 2.01247 0.379395 3.53125 0.379395H19.5312C21.05 0.379395 22.2812 1.61061 22.2812 3.12939V14.1294C22.2812 15.6482 21.05 16.8794 19.5312 16.8794H3.53125C2.01247 16.8794 0.78125 15.6482 0.78125 14.1294V3.12939Z" fill="white"/>
<path fill-rule="evenodd" clip-rule="evenodd" d="M1.84583 4.82473C2.01406 4.44622 2.45728 4.27575 2.8358 4.44398L11.4297 8.26347C11.4943 8.2922 11.5681 8.2922 11.6327 8.26347L20.2266 4.44398C20.6051 4.27575 21.0483 4.44622 21.2166 4.82473C21.3848 5.20325 21.2143 5.64647 20.8358 5.8147L12.2419 9.63419C11.7894 9.8353 11.2729 9.8353 10.8204 9.63419L2.22659 5.8147C1.84808 5.64647 1.67761 5.20325 1.84583 4.82473Z" fill="#14142B"/>
<path fill-rule="evenodd" clip-rule="evenodd" d="M8.51951 9.05154C8.43903 9.01398 8.34467 9.02194 8.27162 9.07244L2.95771 12.7463C2.61699 12.9818 2.14983 12.8966 1.91428 12.5559C1.67872 12.2151 1.76397 11.748 2.10468 11.5124L7.4186 7.83861C7.92996 7.48507 8.59049 7.42937 9.15384 7.69226L11.4255 8.75236C11.4925 8.78363 11.5699 8.78363 11.6369 8.75236L13.9086 7.69226C14.4719 7.42937 15.1324 7.48507 15.6438 7.83861L20.9577 11.5124C21.2984 11.748 21.3837 12.2151 21.1481 12.5559C20.9126 12.8966 20.4454 12.9818 20.1047 12.7463L14.7908 9.07244C14.7177 9.02194 14.6234 9.01398 14.5429 9.05154L12.2712 10.1116C11.8022 10.3305 11.2602 10.3305 10.7911 10.1116L8.51951 9.05154Z" fill="#14142B"/>
</svg>
