<svg width="31" height="31" viewBox="0 0 31 31" fill="none" xmlns="http://www.w3.org/2000/svg">
<g clip-path="url(#clip0_90_289)">
<path d="M11.8257 7.93605L9.10098 3.39489C8.74879 2.80791 7.99912 2.60639 7.42711 2.98242C6.03578 3.89706 3.68711 5.68907 3.16074 7.65238C2.40933 10.455 5.05348 14.7926 5.14893 14.9478L5.15467 14.9568C5.25466 15.1083 7.7496 18.8773 9.7967 20.9244C11.8438 22.9716 15.6129 25.4666 15.7646 25.5667L15.7736 25.5725C15.9292 25.6681 20.2664 28.3117 23.0691 27.5607C25.0323 27.0346 26.8247 24.6868 27.7398 23.2957C28.1161 22.7237 27.9146 21.9738 27.3275 21.6216L22.7863 18.8968C22.2016 18.546 21.4444 18.7163 21.0662 19.2836L19.7918 21.1952C19.4021 21.7797 18.616 21.9393 18.0398 21.5373C16.7392 20.6298 14.5209 19.0125 13.1149 17.6065C11.709 16.2007 10.092 13.9827 9.1844 12.682C8.78227 12.1057 8.94206 11.3193 9.52693 10.9297L11.4385 9.65642C12.0061 9.27829 12.1766 8.52091 11.8257 7.93605Z" fill="white"/>
<path fill-rule="evenodd" clip-rule="evenodd" d="M6.90068 2.18171C7.96388 1.48278 9.31275 1.88581 9.92236 2.90183L12.6471 7.44299C13.2612 8.4665 12.9629 9.79192 11.9695 10.4536L10.0579 11.727C9.90738 11.8273 9.88395 12.0104 9.96997 12.1337C10.8781 13.4351 12.4526 15.5894 13.7922 16.9289C15.1319 18.2687 17.2865 19.8434 18.5879 20.7515C18.7111 20.8374 18.8942 20.8141 18.9945 20.6636L20.2689 18.752C20.9308 17.7592 22.2558 17.4612 23.2791 18.0752L27.8203 20.7999C28.8366 21.4097 29.2395 22.7589 28.5401 23.8221C28.0646 24.5449 27.3496 25.535 26.4825 26.4221C25.6321 27.2922 24.5463 28.1565 23.3169 28.486C21.59 28.9487 19.5457 28.36 18.0741 27.7741C16.5469 27.166 15.3706 26.4493 15.2718 26.3886L15.2575 26.3798L15.2366 26.3663C15.1008 26.2766 11.2469 23.7296 9.11909 21.6018C6.99132 19.474 4.44442 15.62 4.35495 15.4845L4.34711 15.4726L4.33248 15.4495C4.27181 15.3508 3.5552 14.1745 2.94703 12.6472C2.36103 11.1756 1.77219 9.13114 2.23521 7.40415C2.56484 6.17464 3.42953 5.08894 4.29994 4.23868C5.18743 3.37172 6.17777 2.65694 6.90068 2.18171ZM8.11104 3.75612C8.05614 3.74221 8.00402 3.74948 7.95325 3.78286C7.28483 4.22227 6.40517 4.86081 5.6389 5.60935C4.85555 6.37458 4.28272 7.16654 4.08598 7.90035C3.79759 8.97601 4.15512 10.5016 4.72721 11.9383C5.25943 13.2748 5.88828 14.3202 5.95971 14.4374C6.12914 14.6934 8.53359 18.3064 10.474 20.2469C12.4145 22.1874 16.0277 24.592 16.2838 24.7614C16.4012 24.833 17.4465 25.4617 18.7829 25.9939C20.2195 26.5659 21.7452 26.9234 22.8209 26.6351C23.5547 26.4385 24.3468 25.8659 25.1122 25.0828C25.8609 24.3168 26.4996 23.4374 26.9393 22.7691C26.9727 22.7183 26.9799 22.6662 26.966 22.6113C26.9512 22.5526 26.9101 22.4884 26.8345 22.443L22.2932 19.7182C22.1471 19.6305 21.9578 19.6731 21.8632 19.8149L20.5888 21.7265C19.9097 22.7452 18.5206 23.0409 17.4914 22.3229C16.1916 21.4159 13.9096 19.7562 12.4373 18.2839C10.9651 16.8117 9.30556 14.53 8.39854 13.2301C7.6803 12.2007 7.97643 10.8112 8.99565 10.1323L10.9072 8.85893C11.0491 8.7644 11.0917 8.57505 11.004 8.42883L8.27929 3.88768C8.23391 3.81204 8.16966 3.77097 8.11104 3.75612Z" fill="white"/>
</g>
<defs>
<clipPath id="clip0_90_289">
<rect width="30.6582" height="30.6582" fill="white" transform="translate(0.253845 0.200195)"/>
</clipPath>
</defs>
</svg>
