<svg width="1440" height="1278" viewBox="0 0 1440 1278" fill="none" xmlns="http://www.w3.org/2000/svg">
<path d="M-106.502 291.505C-41.7915 297.642 14.996 322.143 63.8607 365.007C112.725 407.872 169.513 432.373 234.223 438.51C298.934 444.646 355.721 469.147 404.586 512.012C453.451 554.876 510.238 579.377 574.949 585.514C639.659 591.65 696.447 616.151 745.311 659.016C794.176 701.88 850.964 726.381 915.674 732.518C980.384 738.655 1037.17 763.155 1086.04 806.02C1134.9 848.884 1191.69 873.385 1256.4 879.522C1321.11 885.659 1377.9 910.159 1426.76 953.024C1475.63 995.888 1532.41 1020.39 1597.12 1026.53" stroke="#1D1534" stroke-width="5"/>
<path d="M-91.4653 250.776C-26.7548 256.913 30.0327 281.414 78.8973 324.278C127.762 367.142 184.55 391.643 249.26 397.78C313.97 403.917 370.758 428.418 419.623 471.282C468.487 514.146 525.275 538.647 589.985 544.784C654.696 550.921 711.483 575.422 760.348 618.286C809.213 661.15 866 685.651 930.711 691.788C995.421 697.925 1052.21 722.426 1101.07 765.29C1149.94 808.154 1206.73 832.655 1271.44 838.792C1336.15 844.929 1392.93 869.43 1441.8 912.294C1490.66 955.158 1547.45 979.659 1612.16 985.796" stroke="#1D1534" stroke-width="5"/>
<path d="M-102.51 264.597C-37.799 270.734 18.9885 295.235 67.8532 338.099C116.718 380.964 173.505 405.464 238.216 411.601C302.926 417.738 359.714 442.239 408.579 485.103C457.443 527.968 514.231 552.468 578.941 558.605C643.652 564.742 700.439 589.243 749.304 632.107C798.168 674.972 854.956 699.472 919.667 705.609C984.377 711.746 1041.16 736.247 1090.03 779.111C1138.89 821.976 1195.68 846.476 1260.39 852.613C1325.1 858.75 1382.24 881.72 1431.1 924.584C1479.96 967.449 1536.75 991.949 1601.46 998.086" stroke="#1D1534" stroke-width="5"/>
<path d="M-102.529 277.75C-37.8181 283.887 18.9694 308.388 67.834 351.252C116.699 394.116 173.486 418.617 238.197 424.754C302.907 430.891 359.695 455.392 408.559 498.256C457.424 541.121 514.212 565.621 578.922 571.758C643.633 577.895 700.42 602.396 749.285 645.26C798.149 688.125 854.937 712.625 919.647 718.762C984.358 724.899 1041.15 749.4 1090.01 792.264C1138.87 835.129 1195.66 859.629 1260.37 865.766C1325.08 871.903 1381.87 896.404 1430.74 939.268C1479.6 982.133 1536.39 1006.63 1601.1 1012.77" stroke="#1D1534" stroke-width="5"/>
</svg>
