<svg width="205" height="201" viewBox="0 0 205 201" fill="none" xmlns="http://www.w3.org/2000/svg">
<path opacity="0.7" d="M28.5759 67.1703C28.5759 67.1703 17.2297 96.1143 33.1746 125.259C49.1194 154.404 81.9614 169.801 108.247 182.966C134.533 196.132 161.828 189.72 174.798 168.157C187.768 146.593 169.979 131.201 169.955 100.452C169.931 69.7029 174.615 61.5624 157.746 35.5851C140.877 9.6079 99.5259 3.85528 68.2548 23.1231C36.9837 42.391 28.5759 67.1703 28.5759 67.1703Z" fill="white"/>
<path d="M33.5383 63.4839C45.267 42.1538 74.7718 17.254 115.252 27.6256C155.733 37.9971 183.077 59.9383 178.596 98.1122C174.116 136.286 150.565 168.004 99.8245 168.933C49.0843 169.861 7.81817 110.257 33.5383 63.4839Z" fill="#98EB51"/>
<path opacity="0.7" d="M33.5383 63.4839C45.267 42.1538 74.7718 17.254 115.252 27.6256C155.733 37.9971 183.077 59.9383 178.596 98.1122C174.116 136.286 150.565 168.004 99.8245 168.933C49.0843 169.861 7.81817 110.257 33.5383 63.4839Z" fill="white"/>
<path opacity="0.5" d="M94.3637 66.8327C94.3637 66.8327 99.9066 60.5534 107.993 60.5534C107.993 60.5534 108.262 55.6812 113.78 54.628C119.298 53.5747 120.369 58.4429 120.369 58.4429C120.369 58.4429 124.438 56.3043 129.924 58.4429C135.41 60.5816 134.287 66.8126 134.287 66.8126C134.287 66.8126 150.085 66.3061 152.796 69.1643H81.8008C81.8008 69.1643 83.2333 65.6669 94.3637 66.8327Z" stroke="#263238" stroke-linecap="round" stroke-linejoin="round"/>
<path d="M94.3637 66.8327C94.3637 66.8327 99.9066 60.5534 107.993 60.5534C107.993 60.5534 108.262 55.6812 113.78 54.628C119.298 53.5747 120.369 58.4429 120.369 58.4429C120.369 58.4429 124.438 56.3043 129.924 58.4429C135.41 60.5816 134.287 66.8126 134.287 66.8126C134.287 66.8126 150.085 66.3061 152.796 69.1643H81.8008C81.8008 69.1643 83.2333 65.6669 94.3637 66.8327Z" stroke="#263238" stroke-linecap="round" stroke-linejoin="round"/>
<path opacity="0.5" d="M140.166 29.6034C140.166 29.6034 135.742 24.5985 129.296 24.5985C129.296 24.5985 129.08 20.7112 124.681 19.871C120.282 19.0308 119.423 22.9141 119.423 22.9141C119.423 22.9141 116.167 21.2096 111.805 22.9141C107.442 24.6186 108.321 29.5913 108.321 29.5913C108.321 29.5913 95.7052 29.1893 93.5605 31.4647H150.185C150.185 31.4647 149.042 28.6748 140.166 29.6034Z" stroke="#263238" stroke-linecap="round" stroke-linejoin="round"/>
<path d="M140.166 29.6034C140.166 29.6034 135.742 24.5985 129.296 24.5985C129.296 24.5985 129.08 20.7112 124.681 19.871C120.282 19.0308 119.423 22.9141 119.423 22.9141C119.423 22.9141 116.167 21.2096 111.805 22.9141C107.442 24.6186 108.321 29.5913 108.321 29.5913C108.321 29.5913 95.7052 29.1893 93.5605 31.4647H150.185C150.185 31.4647 149.042 28.6748 140.166 29.6034Z" stroke="#263238" stroke-linecap="round" stroke-linejoin="round"/>
<path opacity="0.5" d="M37.5182 46.9979C37.5182 46.9979 40.1431 44.0231 43.9767 44.0231C44.0488 43.319 44.3579 42.6592 44.8544 42.1491C45.3509 41.6389 46.0062 41.308 46.7155 41.2091C49.3283 40.7106 49.837 43.014 49.837 43.014C50.5513 42.7087 51.3214 42.5512 52.0997 42.5512C52.878 42.5512 53.6481 42.7087 54.3624 43.014C56.9588 44.0271 56.4338 46.9818 56.4338 46.9818C56.4338 46.9818 63.9138 46.7406 65.1998 48.0953H31.5684C31.5684 48.0953 32.2439 46.4431 37.5182 46.9979Z" stroke="#263238" stroke-linecap="round" stroke-linejoin="round"/>
<path d="M37.5182 46.9979C37.5182 46.9979 40.1431 44.0231 43.9767 44.0231C44.0488 43.319 44.3579 42.6592 44.8544 42.1491C45.3509 41.6389 46.0062 41.308 46.7155 41.2091C49.3283 40.7106 49.837 43.014 49.837 43.014C50.5513 42.7087 51.3214 42.5512 52.0997 42.5512C52.878 42.5512 53.6481 42.7087 54.3624 43.014C56.9588 44.0271 56.4338 46.9818 56.4338 46.9818C56.4338 46.9818 63.9138 46.7406 65.1998 48.0953H31.5684C31.5684 48.0953 32.2439 46.4431 37.5182 46.9979Z" stroke="#263238" stroke-linecap="round" stroke-linejoin="round"/>
<path opacity="0.5" d="M77.735 115.744C77.735 115.744 80.3599 112.769 84.1935 112.769C84.2649 112.065 84.5737 111.405 85.0704 110.894C85.567 110.384 86.2227 110.053 86.9323 109.955C89.545 109.465 90.0578 111.756 90.0578 111.756C90.7721 111.451 91.5422 111.293 92.3205 111.293C93.0989 111.293 93.8689 111.451 94.5832 111.756C97.1797 112.765 96.6547 115.724 96.6547 115.724C96.6547 115.724 104.135 115.483 105.421 116.837H71.7852C71.7852 116.837 72.4607 115.189 77.735 115.744Z" stroke="#263238" stroke-linecap="round" stroke-linejoin="round"/>
<path d="M77.735 115.744C77.735 115.744 80.3599 112.769 84.1935 112.769C84.2649 112.065 84.5737 111.405 85.0704 110.894C85.567 110.384 86.2227 110.053 86.9323 109.955C89.545 109.465 90.0578 111.756 90.0578 111.756C90.7721 111.451 91.5422 111.293 92.3205 111.293C93.0989 111.293 93.8689 111.451 94.5832 111.756C97.1797 112.765 96.6547 115.724 96.6547 115.724C96.6547 115.724 104.135 115.483 105.421 116.837H71.7852C71.7852 116.837 72.4607 115.189 77.735 115.744Z" stroke="#263238" stroke-linecap="round" stroke-linejoin="round"/>
<path d="M47.493 78.0363L47.4523 71.7652C47.4372 71.5487 47.3396 71.346 47.179 71.1979C47.0185 71.0499 46.8071 70.9675 46.5875 70.9675C46.3678 70.9675 46.1564 71.0499 45.9959 71.1979C45.8353 71.346 45.7377 71.5487 45.7227 71.7652V73.8194" stroke="#263238" stroke-linecap="round" stroke-linejoin="round"/>
<path d="M45.6726 79.7126L45.6562 82.0161" stroke="#263238" stroke-linecap="round" stroke-linejoin="round"/>
<path d="M47.8555 133.741L47.5332 84.3799" stroke="#263238" stroke-linecap="round" stroke-linejoin="round"/>
<path d="M45.6283 86.3538L45.3223 133.742" stroke="#263238" stroke-linecap="round" stroke-linejoin="round"/>
<path d="M68.4876 82.4101L50.0074 78.5147L48.99 79.9298L48.2534 79.8534L40.4356 61.3614C40.3824 61.2344 40.2817 61.1325 40.1544 61.0769C40.0272 61.0213 39.8831 61.0163 39.7522 61.0629C39.6213 61.1094 39.5135 61.204 39.4513 61.3269C39.3892 61.4499 39.3773 61.5918 39.4182 61.7232L44.8227 79.6122L46.5686 79.8092L46.8453 80.4644L34.4573 96.3716C34.3815 96.48 34.3488 96.6122 34.3656 96.743C34.3825 96.8737 34.4476 96.9937 34.5485 97.0799C34.6494 97.1662 34.779 97.2125 34.9124 97.2102C35.0458 97.2078 35.1736 97.1568 35.2713 97.067L48.3185 83.5598L47.6267 81.9518L48.0866 81.3649L68.3249 83.4714C68.3954 83.4819 68.4674 83.4787 68.5366 83.4618C68.6059 83.4448 68.6711 83.4146 68.7285 83.3728C68.786 83.331 68.8345 83.2784 68.8714 83.2181C68.9083 83.1578 68.9327 83.0908 68.9434 83.0211C68.9541 82.9515 68.9508 82.8804 68.9337 82.812C68.9166 82.7435 68.886 82.6791 68.8437 82.6224C68.8013 82.5656 68.7481 82.5177 68.687 82.4813C68.6259 82.4448 68.5582 82.4207 68.4876 82.4101V82.4101Z" stroke="#263238" stroke-linecap="round" stroke-linejoin="round"/>
<path d="M47.8557 81.0152C48.1481 81.0152 48.3852 80.7812 48.3852 80.4926C48.3852 80.2039 48.1481 79.97 47.8557 79.97C47.5632 79.97 47.3262 80.2039 47.3262 80.4926C47.3262 80.7812 47.5632 81.0152 47.8557 81.0152Z" stroke="#263238" stroke-linecap="round" stroke-linejoin="round"/>
<path d="M64.5074 99.7162L64.4748 94.7515C64.4748 94.5724 64.4028 94.4006 64.2746 94.274C64.1463 94.1473 63.9725 94.0762 63.7911 94.0762C63.6098 94.0762 63.4359 94.1473 63.3077 94.274C63.1795 94.4006 63.1074 94.5724 63.1074 94.7515V96.3796" stroke="#263238" stroke-linecap="round" stroke-linejoin="round"/>
<path d="M63.0669 101.043L63.0547 102.86" stroke="#263238" stroke-linecap="round" stroke-linejoin="round"/>
<path d="M64.794 143.779L64.541 104.733" stroke="#263238" stroke-linecap="round" stroke-linejoin="round"/>
<path d="M63.0358 106.293L62.791 143.779" stroke="#263238" stroke-linecap="round" stroke-linejoin="round"/>
<path d="M81.128 103.185L66.5058 100.098L65.6919 101.22L65.1059 101.159L58.9241 86.5265C58.9051 86.4735 58.875 86.4251 58.8359 86.3843C58.7967 86.3435 58.7494 86.3112 58.6968 86.2896C58.6443 86.268 58.5877 86.2576 58.5309 86.2589C58.474 86.2602 58.418 86.2733 58.3665 86.2974C58.2687 86.3384 58.1895 86.4134 58.1438 86.5082C58.098 86.603 58.089 86.711 58.1183 86.8119L62.3955 100.962L63.7751 101.119L63.9949 101.638L54.187 114.212C54.1131 114.298 54.0765 114.408 54.0853 114.52C54.094 114.632 54.1475 114.736 54.2338 114.809C54.3202 114.882 54.4324 114.918 54.5457 114.91C54.659 114.901 54.7642 114.848 54.8382 114.763L65.1547 104.078L64.6094 102.816L64.9716 102.349L80.9815 104.013C81.0378 104.023 81.0954 104.02 81.1506 104.006C81.2058 103.991 81.2573 103.966 81.3018 103.93C81.3464 103.895 81.3829 103.851 81.409 103.801C81.4351 103.751 81.4503 103.696 81.4536 103.64C81.4643 103.538 81.4372 103.436 81.3773 103.352C81.3174 103.268 81.2288 103.209 81.128 103.185Z" stroke="#263238" stroke-linecap="round" stroke-linejoin="round"/>
<path d="M65.2326 101.658C65.2326 101.737 65.2087 101.815 65.1639 101.881C65.1192 101.947 65.0556 101.999 64.9812 102.029C64.9067 102.06 64.8248 102.068 64.7458 102.052C64.6668 102.037 64.5942 101.998 64.5373 101.942C64.4803 101.886 64.4415 101.814 64.4258 101.736C64.4101 101.658 64.4181 101.577 64.449 101.504C64.4798 101.431 64.532 101.368 64.599 101.324C64.666 101.279 64.7447 101.256 64.8253 101.256C64.9333 101.256 65.0369 101.298 65.1133 101.374C65.1897 101.449 65.2326 101.551 65.2326 101.658Z" stroke="#263238" stroke-linecap="round" stroke-linejoin="round"/>
<path d="M153.783 78.0363L153.824 71.7652C153.839 71.5487 153.937 71.346 154.097 71.1979C154.258 71.0499 154.469 70.9675 154.689 70.9675C154.908 70.9675 155.12 71.0499 155.28 71.1979C155.441 71.346 155.538 71.5487 155.553 71.7652V73.8194" stroke="#263238" stroke-linecap="round" stroke-linejoin="round"/>
<path d="M155.602 79.7126L155.618 82.0161" stroke="#263238" stroke-linecap="round" stroke-linejoin="round"/>
<path d="M153.422 133.741L153.744 84.3799" stroke="#263238" stroke-linecap="round" stroke-linejoin="round"/>
<path d="M155.646 86.3538L155.952 133.742" stroke="#263238" stroke-linecap="round" stroke-linejoin="round"/>
<path d="M132.788 82.4101L151.269 78.5147L152.286 79.9298L153.023 79.8534L160.84 61.3614C160.894 61.2344 160.994 61.1325 161.122 61.0769C161.249 61.0213 161.393 61.0163 161.524 61.0629C161.655 61.1094 161.762 61.204 161.825 61.327C161.887 61.4499 161.899 61.5918 161.858 61.7232L156.453 79.6122L154.707 79.8092L154.431 80.4644L166.831 96.3635C166.907 96.472 166.939 96.6042 166.923 96.735C166.906 96.8657 166.841 96.9857 166.74 97.0719C166.639 97.1581 166.509 97.2045 166.376 97.2021C166.242 97.1997 166.115 97.1488 166.017 97.059L152.97 83.5518L153.662 81.9438L153.202 81.3569L132.963 83.4634C132.826 83.4772 132.689 83.4388 132.579 83.356C132.47 83.2733 132.397 83.1524 132.374 83.018C132.352 82.8837 132.382 82.746 132.459 82.633C132.536 82.52 132.654 82.4403 132.788 82.4101V82.4101Z" stroke="#263238" stroke-linecap="round" stroke-linejoin="round"/>
<path d="M153.422 81.0152C153.715 81.0152 153.952 80.7812 153.952 80.4926C153.952 80.2039 153.715 79.97 153.422 79.97C153.13 79.97 152.893 80.2039 152.893 80.4926C152.893 80.7812 153.13 81.0152 153.422 81.0152Z" stroke="#263238" stroke-linecap="round" stroke-linejoin="round"/>
<path d="M136.768 99.7162L136.8 94.7515C136.8 94.5724 136.872 94.4006 137 94.274C137.129 94.1473 137.303 94.0762 137.484 94.0762C137.665 94.0762 137.839 94.1473 137.967 94.274C138.095 94.4006 138.168 94.5724 138.168 94.7515V96.3796" stroke="#263238" stroke-linecap="round" stroke-linejoin="round"/>
<path d="M138.209 101.043L138.221 102.86" stroke="#263238" stroke-linecap="round" stroke-linejoin="round"/>
<path d="M136.482 143.779L136.735 104.733" stroke="#263238" stroke-linecap="round" stroke-linejoin="round"/>
<path d="M138.242 106.293L138.487 143.779" stroke="#263238" stroke-linecap="round" stroke-linejoin="round"/>
<path d="M120.148 103.185L134.77 100.098L135.584 101.22L136.17 101.159L142.352 86.5265C142.371 86.4735 142.401 86.4251 142.44 86.3843C142.479 86.3435 142.527 86.3112 142.579 86.2896C142.632 86.268 142.688 86.2576 142.745 86.2589C142.802 86.2602 142.858 86.2733 142.91 86.2974C143.007 86.3384 143.087 86.4134 143.132 86.5082C143.178 86.603 143.187 86.711 143.158 86.8119L138.881 100.962L137.501 101.119L137.281 101.638L147.089 114.212C147.163 114.298 147.2 114.408 147.191 114.52C147.182 114.632 147.129 114.736 147.042 114.809C146.956 114.882 146.844 114.918 146.73 114.91C146.617 114.901 146.512 114.848 146.438 114.763L136.121 104.078L136.667 102.816L136.305 102.349L120.295 104.013C120.238 104.023 120.181 104.02 120.126 104.006C120.07 103.991 120.019 103.966 119.974 103.93C119.93 103.895 119.893 103.851 119.867 103.801C119.841 103.751 119.826 103.696 119.823 103.64C119.812 103.538 119.839 103.436 119.899 103.352C119.959 103.268 120.047 103.209 120.148 103.185V103.185Z" stroke="#263238" stroke-linecap="round" stroke-linejoin="round"/>
<path d="M136.064 101.658C136.064 101.737 136.088 101.815 136.133 101.881C136.178 101.947 136.241 101.999 136.316 102.029C136.39 102.06 136.472 102.068 136.551 102.052C136.63 102.037 136.703 101.998 136.76 101.942C136.817 101.886 136.856 101.814 136.871 101.736C136.887 101.658 136.879 101.577 136.848 101.504C136.817 101.431 136.765 101.368 136.698 101.324C136.631 101.279 136.552 101.256 136.472 101.256C136.364 101.256 136.26 101.298 136.184 101.374C136.107 101.449 136.064 101.551 136.064 101.658Z" stroke="#263238" stroke-linecap="round" stroke-linejoin="round"/>
<path d="M13.4824 127.88C13.4824 127.88 14.2719 129.938 16.7381 133.106C19.9247 137.231 25.9477 143.233 36.7445 148.989C55.7904 159.16 67.8446 176.06 67.8446 176.06L78.9262 141.17C78.9262 141.17 73.9979 140.817 67.0632 135.944C62.3303 132.66 56.6857 127.265 51.0452 118.494C37.0944 96.8217 22.5007 92.1223 22.5007 92.1223" fill="white"/>
<path opacity="0.4" d="M16.7266 133.106C19.9253 137.231 25.9484 143.233 36.7451 148.989C55.791 159.16 67.8453 176.06 67.8453 176.06L78.9269 141.17C78.9269 141.17 73.9986 140.817 67.0639 135.944C61.3867 135.792 49.6174 139.599 43.6065 145.335C43.5862 145.343 29.7006 138.388 16.7266 133.106Z" fill="#98EB51"/>
<path d="M53.3691 140.616C53.3691 140.616 60.1451 146.396 63.9502 146.585" stroke="#263238" stroke-linecap="round" stroke-linejoin="round"/>
<path d="M33.4902 147.317C38.3209 149.636 45.4061 152.229 47.9822 153.556" stroke="#263238" stroke-linecap="round" stroke-linejoin="round"/>
<path d="M52.0137 120.057C53.324 122.732 54.8697 125.288 56.6327 127.695" stroke="#263238" stroke-linecap="round" stroke-linejoin="round"/>
<path d="M13.4824 127.88C13.4824 127.88 14.2719 129.938 16.7381 133.106C19.9247 137.231 25.9477 143.233 36.7445 148.989C55.7904 159.16 67.8446 176.06 67.8446 176.06L78.9262 141.17C78.9262 141.17 73.9979 140.817 67.0632 135.944C62.3303 132.66 56.6857 127.265 51.0452 118.494C37.0944 96.8217 22.5007 92.1223 22.5007 92.1223" stroke="#263238" stroke-linecap="round" stroke-linejoin="round"/>
<path d="M190.414 124.664C190.414 124.664 189.625 126.722 187.159 129.89C183.96 134.015 177.937 140.017 167.16 145.773C148.114 155.944 136.06 172.844 136.06 172.844L124.979 137.954C124.979 137.954 129.907 137.6 136.842 132.728C141.554 129.424 147.195 124.041 152.839 115.269C166.79 93.5976 181.388 88.8982 181.388 88.8982" fill="white"/>
<path opacity="0.4" d="M187.17 129.89C183.971 134.015 177.948 140.017 167.172 145.773C148.126 155.944 136.072 172.844 136.072 172.844L124.99 137.954C124.99 137.954 129.919 137.601 136.853 132.728C142.53 132.576 152.635 135.164 157.702 143.18C157.702 143.184 174.196 135.172 187.17 129.89Z" fill="#98EB51"/>
<path d="M143.544 131.365C143.544 131.365 140.236 136.676 131.686 140.008" stroke="#263238" stroke-linecap="round" stroke-linejoin="round"/>
<path d="M169.219 144.933C167.184 145.773 158.751 148.39 156.818 149.729" stroke="#263238" stroke-linecap="round" stroke-linejoin="round"/>
<path d="M152.957 119.261C152.957 119.261 154.882 112.427 157.702 108.287" stroke="#263238" stroke-linecap="round" stroke-linejoin="round"/>
<path d="M190.414 124.664C190.414 124.664 189.625 126.722 187.159 129.89C183.96 134.015 177.937 140.017 167.16 145.773C148.114 155.944 136.06 172.844 136.06 172.844L124.979 137.954C124.979 137.954 129.907 137.6 136.842 132.728C141.554 129.424 147.195 124.041 152.839 115.269C166.79 93.5976 181.388 88.8982 181.388 88.8982" stroke="#263238" stroke-linecap="round" stroke-linejoin="round"/>
<path d="M87.9483 149.52L76.0527 150.931C76.0527 150.931 67.7466 153.431 65.7403 155.212C63.7339 156.993 61.0968 161.769 61.0968 161.769C61.0968 161.769 58.1748 162.316 56.6772 161.769C56.5091 161.723 56.3525 161.643 56.2173 161.535C56.0821 161.426 55.9713 161.291 55.8918 161.138C55.7009 160.689 55.5643 160.219 55.4848 159.739C55.2725 158.234 55.2507 156.71 55.4197 155.2C55.4197 155.2 53.4663 152.442 53.3849 151.313C53.3035 150.183 53.7186 145.528 54.8988 144.226C54.9465 144.17 54.9996 144.118 55.0575 144.073C56.3598 143.044 63.7909 139.779 63.7909 139.779C63.7909 139.779 65.4635 137.299 69.5535 136.563C73.6435 135.828 82.4706 138.401 82.4706 138.401L83.7525 140.997L87.9483 149.52Z" fill="white"/>
<path opacity="0.4" d="M55.4926 159.751C55.2803 158.246 55.2585 156.722 55.4275 155.212C55.4275 155.212 53.4741 152.454 53.3927 151.325C53.3113 150.195 53.7264 145.54 54.9066 144.238C53.5392 146.931 53.8118 151.035 55.7205 149.729C58.0443 148.121 60.4413 151.393 60.4413 151.393C57.9059 152.692 56.0502 157.118 55.4926 159.751Z" fill="#98EB51"/>
<path opacity="0.4" d="M87.9488 149.52L76.0533 150.931C76.0533 150.931 67.7471 153.431 65.7408 155.212C63.7345 156.993 61.0974 161.769 61.0974 161.769C61.0974 161.769 58.1754 162.316 56.6777 161.769C58.0533 161.367 60.0474 159.839 60.4259 157.793C60.9631 154.883 65.924 152.262 65.7368 150.006C65.5495 147.751 61.7444 144.073 61.7444 144.073C63.9746 143.594 65.985 144.965 65.985 144.965C65.1215 143.936 64.0982 143.049 62.9531 142.336C67.3198 141.87 68.1582 144.921 68.1582 144.921C69.3791 145.19 72.2278 144.073 72.2278 144.073C72.2424 142.98 72.556 141.912 73.1353 140.981L74.5516 143.172C76.094 143.172 81.2706 141.717 83.7327 140.998L87.9488 149.52Z" fill="#98EB51"/>
<path d="M55.8917 161.154C56.5307 162.621 61.0927 161.773 61.0927 161.773C61.0927 161.773 63.7339 156.993 65.7402 155.212C67.7466 153.431 76.0527 150.927 76.0527 150.927L87.9483 149.52L82.4665 138.413C82.4665 138.413 73.6394 135.844 69.5494 136.579C65.4594 137.315 63.7868 139.795 63.7868 139.795C63.7868 139.795 56.3557 143.056 55.0534 144.089C53.7511 145.122 53.2872 150.195 53.3808 151.325C53.4744 152.454 55.4156 155.212 55.4156 155.212C55.4156 155.212 54.9598 159.019 55.8917 161.154Z" stroke="#263238" stroke-linecap="round" stroke-linejoin="round"/>
<path d="M56.0748 160.165C56.0748 160.165 56.8195 156.036 60.352 154.537C60.352 154.537 60.7223 152.077 59.7944 150.943C58.8666 149.809 56.1684 152.012 56.0748 154.537C55.9812 157.061 56.0748 160.165 56.0748 160.165Z" stroke="#263238" stroke-linecap="round" stroke-linejoin="round"/>
<path d="M63.7871 144.933C63.7871 144.933 69.9852 147.683 66.7457 154.521" stroke="#263238" stroke-linecap="round" stroke-linejoin="round"/>
<path d="M65.9844 143.646C65.9844 143.646 71.2505 148.133 67.3803 153.781" stroke="#263238" stroke-linecap="round" stroke-linejoin="round"/>
<path d="M73.1527 142.734C72.8554 144.717 72.8554 146.733 73.1527 148.716" stroke="#263238" stroke-linecap="round" stroke-linejoin="round"/>
<path d="M57.5649 149.729C57.5649 149.729 56.4498 150.255 55.7051 153.009" stroke="#263238" stroke-linecap="round" stroke-linejoin="round"/>
<path d="M56.632 144.933C56.632 144.933 55.053 145.146 54.2188 148.234" stroke="#263238" stroke-linecap="round" stroke-linejoin="round"/>
<path d="M148.163 149.52C146.86 150.344 146.173 152.077 146.173 152.077C146.173 152.077 146.417 155.212 146.173 156.036C145.929 156.86 144.162 158.424 142.766 157.552C141.371 156.68 140.654 153.468 137.04 152.077L114.434 143.184C115.2 142.113 116.115 141.154 117.152 140.334C118.82 138.975 120.681 137.864 122.675 137.038C128.551 134.557 135.697 132.998 139.193 134.099C141.155 134.722 143.519 136.889 145.342 139.024C146.751 140.668 147.833 142.304 148.163 143.184C148.903 145.206 149.473 148.692 148.163 149.52Z" fill="white"/>
<path opacity="0.4" d="M148.163 149.52C146.86 150.344 146.173 152.076 146.173 152.076C146.173 152.076 146.417 155.212 146.173 156.036C145.929 156.86 144.162 158.424 142.766 157.552C141.371 156.679 140.654 153.467 137.04 152.076L114.434 143.184C115.2 142.113 116.115 141.154 117.152 140.334C120.249 140.334 124.327 140.623 127.668 141.99C127.668 141.99 127.44 139.51 128.742 139.791C128.742 139.791 128.413 137.283 129.817 137.158C131.221 137.034 130.891 137.962 130.891 137.962C130.891 137.962 130.891 140.491 132.027 141.001C133.162 141.512 132.495 138.023 134.676 137.536C134.676 137.536 134.798 141.468 136.076 142.742C136.076 142.742 134.623 146.887 136.605 148.941C138.587 150.995 142.302 153.443 143.116 153.363C143.93 153.282 140.927 149.705 140.927 149.705C140.927 149.705 140.984 146.059 143.263 145.343C145.542 144.627 147.524 146.461 147.524 146.461C147.179 143.889 146.449 141.383 145.359 139.024C146.767 140.668 147.849 142.304 148.179 143.184C148.903 145.206 149.473 148.692 148.163 149.52Z" fill="#98EB51"/>
<path d="M114.43 143.184C114.43 143.184 116.794 139.514 122.675 137.038C128.555 134.561 135.698 132.998 139.193 134.099C142.689 135.201 147.418 141.166 148.147 143.184C148.875 145.202 149.449 148.692 148.147 149.52C146.844 150.348 146.161 152.073 146.161 152.073C146.161 152.073 146.405 155.212 146.161 156.036C145.916 156.86 144.15 158.424 142.758 157.552C141.367 156.68 140.642 153.468 137.028 152.073" stroke="#263238" stroke-linecap="round" stroke-linejoin="round"/>
<path d="M140.928 149.705C140.928 149.705 141.209 146.123 142.963 146.308C144.717 146.493 146.051 150.256 146.178 154.521C146.173 154.521 144.261 150.806 140.928 149.705Z" stroke="#263238" stroke-linecap="round" stroke-linejoin="round"/>
<path d="M135.153 150.927C135.153 150.927 133.118 144.471 137.472 141.994" stroke="#263238" stroke-linecap="round" stroke-linejoin="round"/>
<path d="M134.672 138.413C134.672 138.413 132.987 143.952 134.672 147.056C134.672 147.056 130.692 144.105 127.672 145.387" stroke="#263238" stroke-linecap="round" stroke-linejoin="round"/>
<path d="M131.16 145.343C131.16 145.343 130.586 143.184 130.68 141.994C130.773 140.805 129.162 139.422 129.78 137.954" stroke="#263238" stroke-linecap="round" stroke-linejoin="round"/>
<path d="M128.738 140.615C128.738 140.615 130.069 143.606 130.891 144.085" stroke="#263238" stroke-linecap="round" stroke-linejoin="round"/>
<path d="M131.686 147.683C131.686 147.683 133.362 146.951 134.677 147.683" stroke="#263238" stroke-linecap="round" stroke-linejoin="round"/>
<path d="M144.631 142.352C144.631 142.352 147.325 142.127 147.976 147.522" stroke="#263238" stroke-linecap="round" stroke-linejoin="round"/>
<path d="M105.024 103.619C105.024 103.619 98.5415 99.9291 103.852 86.5948C109.163 73.2604 125.128 69.2163 128.738 65.1963C128.738 65.1963 127.281 106.148 105.024 103.619Z" fill="#98EB51"/>
<path opacity="0.3" d="M125.91 69.0234C124.087 72.4445 118.475 76.7619 112.31 87.1496C109.295 92.3454 106.785 97.8115 104.813 103.475C103.833 102.759 99.8646 99.1413 102.868 89.4048C102.986 92.862 104.227 94.8037 104.227 94.8037C103.837 81.3568 125.91 69.0234 125.91 69.0234Z" fill="black" fill-opacity="0.7"/>
<path d="M105.024 103.619C105.024 103.619 98.5415 99.9291 103.852 86.5948C109.163 73.2604 125.128 69.2163 128.738 65.1963C128.738 65.1963 127.281 106.148 105.024 103.619Z" stroke="#263238" stroke-linecap="round" stroke-linejoin="round"/>
<path d="M105.623 87.1494C105.623 87.1494 104.614 94.2769 106.933 98.92L108.093 95.9492C108.093 95.9492 116.143 95.7361 120.326 90.6468" stroke="#263238" stroke-linecap="round" stroke-linejoin="round"/>
<path d="M110.026 81.1074C110.026 81.1074 108.198 87.7846 109.488 92.4519L110.026 90.1203C110.026 90.1203 120.114 87.5394 122.259 84.4641" stroke="#263238" stroke-linecap="round" stroke-linejoin="round"/>
<path d="M115.251 76.782C115.251 76.782 112.809 81.7628 112.866 85.8993L114.059 83.8893C114.059 83.8893 122.58 82.2813 124.086 79.6482" stroke="#263238" stroke-linecap="round" stroke-linejoin="round"/>
<path d="M120.326 72.4805C118.548 74.8925 116.436 80.3396 116.436 80.3396L118.381 78.1527C118.381 78.1527 123.191 76.9145 124.99 74.595" stroke="#263238" stroke-linecap="round" stroke-linejoin="round"/>
<path d="M97.2969 138.79C97.2969 138.79 100.064 90.6469 123.55 72.4604C123.55 72.4604 101.761 90.2409 100.638 138.79H97.2969Z" fill="#98EB51"/>
<path opacity="0.3" d="M97.2969 138.79C97.2969 138.79 100.064 90.6469 123.55 72.4604C123.55 72.4604 101.761 90.2409 100.638 138.79H97.2969Z" fill="black" fill-opacity="0.7"/>
<path d="M97.2969 138.79C97.2969 138.79 100.064 90.6469 123.55 72.4604C123.55 72.4604 101.761 90.2409 100.638 138.79H97.2969Z" stroke="#263238" stroke-linecap="round" stroke-linejoin="round"/>
<path d="M95.0996 88.6048C95.0996 88.6048 100.899 85.3043 96.1455 73.377C91.3922 61.4497 77.1159 57.8317 73.8887 54.2378C73.8887 54.2378 75.191 90.8519 95.0996 88.6048Z" fill="#98EB51"/>
<path opacity="0.3" d="M96.1603 73.3691C95.9072 72.725 95.6009 72.1025 95.2447 71.5078C94.5162 70.3018 96.3516 73.8756 96.3882 76.762C96.4146 77.4838 96.2748 78.2022 95.9795 78.863C95.6841 79.5238 95.2408 80.1098 94.6831 80.5769C94.3168 78.6875 94.1174 76.7057 93.2017 75.0052C88.5379 66.3059 77.6476 58.4227 75.918 57.1243C76.1052 57.3574 82.0672 64.7623 85.5956 69.0235C87.4879 71.3189 88.7455 74.2133 89.9908 76.8785C91.5698 80.2674 92.986 83.7125 94.39 87.1858C94.5854 87.6722 94.797 88.1546 94.9801 88.637C96.5592 87.6642 97.4219 85.8552 97.7882 84.0502C98.3905 80.9669 97.6742 77.779 96.6772 74.8042C96.5185 74.3178 96.3516 73.8394 96.1603 73.3691Z" fill="black" fill-opacity="0.7"/>
<path d="M95.0996 88.6048C95.0996 88.6048 100.899 85.3043 96.1455 73.377C91.3922 61.4497 77.1159 57.8317 73.8887 54.2378C73.8887 54.2378 75.191 90.8519 95.0996 88.6048Z" stroke="#263238" stroke-linecap="round" stroke-linejoin="round"/>
<path d="M94.5613 73.8755C94.5613 73.8755 95.4647 80.2472 93.3892 84.3998L92.3514 81.7426C92.3514 81.7426 85.1523 81.5537 81.4082 77.003" stroke="#263238" stroke-linecap="round" stroke-linejoin="round"/>
<path d="M90.6269 68.4685C90.6269 68.4685 92.2547 74.4422 91.1071 78.615L90.6269 76.5286C90.6269 76.5286 81.6004 74.2211 79.6836 71.4714" stroke="#263238" stroke-linecap="round" stroke-linejoin="round"/>
<path d="M85.9514 64.5813C85.9514 64.5813 88.1327 69.0395 88.0839 72.7379L87.0177 70.9329C87.0177 70.9329 79.3952 69.5098 78.0645 67.142" stroke="#263238" stroke-linecap="round" stroke-linejoin="round"/>
<path d="M81.408 60.7502C83.0033 62.9251 84.8916 67.7812 84.8916 67.7812L83.1376 65.8275C83.1376 65.8275 78.836 64.718 77.2285 62.6437" stroke="#263238" stroke-linecap="round" stroke-linejoin="round"/>
<path d="M101.044 118.112C101.044 118.112 99.5386 77.0032 78.5352 60.7222C78.5352 60.7222 98.7572 78.6152 99.0543 124.66C99.0543 124.66 99.7136 124.789 100.068 123.728" fill="#98EB51"/>
<path opacity="0.3" d="M101.044 118.112C101.044 118.112 99.5386 77.0032 78.5352 60.7222C78.5352 60.7222 98.7572 78.6152 99.0543 124.66C99.0543 124.66 99.7136 124.789 100.068 123.728" fill="black" fill-opacity="0.7"/>
<path d="M101.044 118.112C101.044 118.112 99.5386 77.0032 78.5352 60.7222C78.5352 60.7222 98.7572 78.6152 99.0543 124.66C99.0543 124.66 99.7136 124.789 100.068 123.728" stroke="#263238" stroke-linecap="round" stroke-linejoin="round"/>
<path d="M67.0831 155.453C67.0831 155.453 65.6832 154.36 67.0831 150.943C68.1575 148.326 71.6533 148.455 71.8446 145.717C73.2771 145.894 74.4207 144.957 75.1614 143.811C75.902 142.666 76.5003 141.291 77.7374 140.688C78.1444 140.503 78.5514 140.402 78.9258 140.205C80.3949 139.434 80.9036 137.347 82.4908 136.873C83.4268 136.592 84.5256 136.973 85.3843 136.543C86.243 136.113 86.6662 134.935 87.5982 134.533C87.9981 134.413 88.406 134.32 88.8191 134.256C90.4673 133.83 91.5294 131.844 93.2346 131.888C93.727 131.908 94.2561 132.105 94.6956 131.888C95.0415 131.719 95.2491 131.329 95.6072 131.193C95.9154 131.12 96.2377 131.133 96.5392 131.229C97.4912 131.431 98.4826 131.35 99.3879 130.996C100.202 130.63 100.389 129.565 100.886 129.323C102.859 128.363 105.073 132.105 106.217 133.042C106.884 133.593 107.637 132.186 108.504 132.218C109.293 132.25 109.696 133.456 110.478 133.359C110.115 133.641 110.323 134.264 110.722 134.493C111.148 134.669 111.607 134.756 112.069 134.746C113.192 134.863 114.205 135.446 115.182 136.013C115.357 136.096 115.511 136.219 115.63 136.37C115.748 136.547 115.772 136.772 115.894 136.945C116.151 137.303 116.745 137.347 116.936 137.725C116.996 137.929 117.032 138.14 117.042 138.352C117.168 138.947 117.88 139.217 118.495 139.261C119.109 139.305 119.769 139.233 120.294 139.554C120.657 139.85 120.987 140.182 121.278 140.547C122.499 141.717 123.916 141.653 125.043 143.132C126.223 144.68 127.021 146.372 128.706 147.49C131.554 149.383 132.368 152.052 133.146 154.533C133.923 157.013 122.882 163.188 100.588 164.768C78.295 166.348 66.7901 157.126 67.0831 155.453Z" fill="#263238"/>
<path opacity="0.4" d="M87.8828 138.288C88.3793 138.417 89.1037 138.384 89.1647 137.886C89.1543 137.773 89.1626 137.659 89.1892 137.548C89.3194 137.251 89.7833 137.48 90.1048 137.408C90.3449 137.351 90.4914 137.118 90.6664 136.949C90.8906 136.746 91.1799 136.626 91.484 136.612C91.788 136.597 92.0877 136.688 92.3309 136.869C92.6117 137.094 92.7989 137.44 93.1204 137.601C93.7227 137.898 94.7116 137.564 94.9355 138.187" stroke="white" stroke-linecap="round" stroke-linejoin="round"/>
<path opacity="0.4" d="M96.4668 141.427C96.6061 141.516 96.7638 141.571 96.928 141.591C97.0922 141.611 97.2588 141.593 97.4153 141.54C97.5718 141.487 97.7142 141.4 97.8318 141.285C97.9494 141.17 98.0393 141.031 98.0947 140.877C98.1394 140.716 98.1557 140.527 98.2941 140.426C98.5057 140.278 98.7906 140.479 99.051 140.503C99.5679 140.555 99.8649 139.96 100.203 139.578C100.408 139.352 100.67 139.183 100.963 139.09C101.255 138.997 101.568 138.983 101.868 139.049C102.168 139.115 102.445 139.259 102.67 139.465C102.895 139.672 103.061 139.935 103.149 140.225L106.218 141.029" stroke="white" stroke-linecap="round" stroke-linejoin="round"/>
<path opacity="0.4" d="M101.717 135.044C102.243 134.878 102.793 134.8 103.345 134.815C103.272 134.646 103.256 134.458 103.299 134.28C103.342 134.101 103.442 133.941 103.584 133.822C103.726 133.704 103.902 133.633 104.088 133.621C104.273 133.608 104.458 133.655 104.614 133.753C104.745 133.636 104.899 133.548 105.066 133.494C105.234 133.44 105.411 133.422 105.586 133.441C105.761 133.46 105.93 133.515 106.082 133.604C106.234 133.692 106.365 133.812 106.466 133.954L106.588 134.461C107.389 134.723 108.134 135.132 108.782 135.667" stroke="white" stroke-linecap="round" stroke-linejoin="round"/>
<path opacity="0.4" d="M110.234 138.823L111.048 139.06C110.914 138.851 111.166 138.594 111.415 138.545C111.663 138.546 111.909 138.504 112.143 138.421C112.387 138.276 112.46 137.97 112.619 137.737C112.778 137.504 113.177 137.371 113.311 137.617C113.278 137.359 113.567 137.15 113.832 137.158C114.097 137.193 114.347 137.302 114.552 137.472L116.636 138.903" stroke="white" stroke-linecap="round" stroke-linejoin="round"/>
<path d="M60.288 161.769C60.288 161.769 62.6443 157.656 65.7413 155.212C68.8383 152.768 71.0684 149.628 73.7951 146.3C76.5217 142.971 80.4856 138.75 82.4675 138.413C84.4494 138.075 88.9097 138.706 89.4062 142.734C89.4062 142.734 92.4381 139.116 96.6827 141.649C100.927 144.181 98.8193 148.969 98.8193 148.969C98.8193 148.969 100.366 148.358 101.326 148.969C102.287 149.58 105.021 181.977 105.021 181.977C103.456 182.366 101.921 182.868 100.431 183.481C98.0786 184.458 95.1037 184.582 93.1055 183.481C93.1055 183.481 89.3899 184.43 86.9115 184.261C84.4331 184.092 77.7426 183.971 75.3904 183.356C72.7993 182.616 70.2765 181.66 67.8493 180.498C66.0792 179.501 64.6206 178.042 63.6332 176.281C62.8925 174.794 61.5292 174.307 59.4211 171.799C57.3131 169.29 60.288 161.769 60.288 161.769Z" fill="white"/>
<path opacity="0.4" d="M101.326 148.969C100.398 148.382 98.9253 148.929 98.8235 148.969C99.0075 148.512 99.1439 148.038 99.2305 147.554L96.687 152.848C96.687 152.848 92.7516 157.905 91.3436 160.173C89.9355 162.44 91.1401 162.677 89.4105 166.287C87.6809 169.897 85.1496 176.803 82.4717 177.362C79.7939 177.921 74.1046 175.999 73.0465 173.294C71.9884 170.589 74.54 168.679 77.6696 164.76C80.7991 160.84 82.0973 159.373 81.8491 157.556C81.6008 155.739 87.9535 144.788 88.3605 144.121C88.1937 144.338 87.2129 145.636 85.9838 147.24C86.5337 146.226 87.0071 145.172 87.4001 144.089L81.5439 141.653C81.5439 141.653 75.7853 147.707 78.8823 150.022C80.5834 151.297 82.2683 151.317 83.8351 150.022C82.6142 151.602 81.4136 153.069 80.7422 153.793C78.8823 155.803 78.5079 158.034 77.6737 159.353C76.8394 160.671 73.5267 166.146 70.6698 168.124C67.8129 170.102 66.124 170.645 63.7962 169.407C62.209 168.558 61.2242 163.903 60.7521 161.037C60.455 161.499 60.2963 161.781 60.2963 161.781C60.2963 161.781 57.3255 169.298 59.4335 171.807C61.5416 174.315 62.9009 174.802 63.6415 176.289C64.6302 178.043 66.0834 179.498 67.8455 180.498C70.2802 181.66 72.8096 182.617 75.4069 183.36C77.7591 183.967 84.4496 184.092 86.928 184.261C89.4064 184.429 93.122 183.481 93.122 183.481C95.1039 184.582 98.0747 184.462 100.447 183.481C101.808 182.924 103.204 182.456 104.627 182.078C104.757 181.913 104.879 181.74 105.009 181.567C104.672 177.825 102.226 149.544 101.326 148.969Z" fill="#98EB51"/>
<path opacity="0.4" d="M91.4815 144.085C91.4815 144.085 85.5806 150.834 89.6502 153.781C93.7198 156.728 98.1273 151.112 98.3185 146.461L91.4815 144.085Z" fill="#98EB51"/>
<path d="M105.024 181.977L104.617 182.078C103.195 182.456 101.799 182.925 100.438 183.481C98.0814 184.462 95.1106 184.582 93.1124 183.481C93.1124 183.481 89.3968 184.434 86.9184 184.261C84.44 184.088 77.7496 183.967 75.3973 183.36C72.8028 182.617 70.2762 181.659 67.8441 180.498C66.0774 179.496 64.6211 178.036 63.632 176.277C62.8913 174.79 61.528 174.307 59.424 171.795C57.32 169.282 60.2868 161.769 60.2868 161.769C60.2868 161.769 60.4455 161.487 60.7426 161.025C61.5565 159.727 63.4529 157.005 65.7401 155.212C68.8371 152.76 71.0672 149.628 73.7939 146.3C76.5205 142.971 80.4844 138.75 82.4663 138.413C84.4482 138.075 88.9085 138.706 89.405 142.734C89.405 142.734 92.4369 139.116 96.6815 141.649C99.4611 143.317 99.5302 145.942 99.225 147.55C99.1384 148.034 99.002 148.508 98.8181 148.965C98.9198 148.929 100.393 148.382 101.321 148.965C102.249 149.548 104.666 177.821 104.984 181.563C105.008 181.833 105.024 181.977 105.024 181.977Z" stroke="#263238" stroke-linecap="round" stroke-linejoin="round"/>
<path d="M89.4048 142.734C88.0415 143.828 80.6063 157.689 79.2307 159.341C77.8552 160.993 74.0257 165.7 72.353 167.433C71.1743 168.753 70.1743 170.22 69.3781 171.795C68.3115 172.854 67.1631 173.83 65.9434 174.713" stroke="#263238" stroke-linecap="round" stroke-linejoin="round"/>
<path d="M98.8189 148.969C97.6132 150.987 96.5262 153.071 95.5632 155.212C94.3423 158.054 90.8546 165.306 89.4018 168.076C87.9489 170.846 85.6211 177.161 83.9485 178.174C82.2758 179.187 79.8585 181.479 78.373 181.294" stroke="#263238" stroke-linecap="round" stroke-linejoin="round"/>
<path d="M79.6794 182.106C79.6794 182.106 79.2714 181.205 79.6794 180.996" stroke="#263238" stroke-linecap="round" stroke-linejoin="round"/>
<path d="M94.168 182.548C94.168 182.548 97.5173 179.385 97.9812 177.073C98.4452 174.762 105.022 156.571 105.022 156.571" stroke="#263238" stroke-linecap="round" stroke-linejoin="round"/>
<path d="M81.5348 141.649C81.5348 141.649 85.3481 141.403 87.391 144.085C87.391 144.085 84.3225 151.63 80.6069 149.713C76.8914 147.795 81.5348 141.649 81.5348 141.649Z" fill="white" stroke="#263238" stroke-linecap="round" stroke-linejoin="round"/>
<path d="M91.4812 144.085C91.4812 144.085 95.3108 143.952 98.3182 146.461C98.3182 146.461 96.3119 154.935 91.4812 153.648C86.6506 152.362 89.8981 146.818 91.4812 144.085Z" fill="white" stroke="#263238" stroke-linecap="round" stroke-linejoin="round"/>
<path d="M99.7505 151.325C99.7505 151.325 97.6098 154.509 97.8906 156.832C98.1714 159.156 101.325 158.726 101.325 158.726" stroke="#263238" stroke-linecap="round" stroke-linejoin="round"/>
<path d="M83.7656 159.341C83.7656 159.341 86.3946 161.262 88.9381 161.773" stroke="#263238" stroke-linecap="round" stroke-linejoin="round"/>
<path d="M61.7441 162.83C61.7441 162.83 62.1186 167.252 63.0464 168.796C63.9743 170.339 70.2212 170.263 70.2212 170.263" stroke="#263238" stroke-linecap="round" stroke-linejoin="round"/>
<path d="M71.7793 173.29C72.8144 175.096 74.4114 176.524 76.3332 177.362C79.5889 178.797 81.8435 178.166 81.8435 178.166" stroke="#263238" stroke-linecap="round" stroke-linejoin="round"/>
<path d="M87.3906 179.714C87.3906 179.714 92.3149 181.945 95.2898 180.188" stroke="#263238" stroke-linecap="round" stroke-linejoin="round"/>
<path d="M73.6406 152.073C73.6406 152.073 74.6906 154.485 76.8149 155.039" stroke="#263238" stroke-linecap="round" stroke-linejoin="round"/>
<path d="M94.168 167.433C95.2117 168.284 96.5144 168.764 97.8673 168.796" stroke="#263238" stroke-linecap="round" stroke-linejoin="round"/>
<path d="M141.191 170.078C141.191 170.078 138.216 175.401 135.058 176.872C131.9 178.343 129.296 177.792 127.44 178.882C125.584 179.971 122.422 180.534 118.149 181.27C113.876 182.005 109.57 182.922 106.518 182.371C105.461 182.172 104.44 181.817 103.49 181.318C101.437 180.197 99.5776 178.761 97.9798 177.065C96.4618 175.525 96.592 173.045 97.6135 171.373C97.835 170.966 98.1385 170.608 98.5052 170.321C98.8719 170.034 99.2942 169.824 99.746 169.704C99.746 169.704 98.7245 168.9 97.5728 167.883C96.3234 166.782 94.9316 165.423 94.5491 164.563C93.8002 162.91 93.9874 159.976 96.5839 157.403C97.3308 156.654 98.2306 156.07 99.2235 155.691C100.216 155.312 101.28 155.146 102.342 155.204C102.342 155.204 98.3623 151.988 99.9251 148.225C100.491 146.867 101.5 145.07 104.573 144.555C108.972 143.819 111.45 146.3 111.45 146.3C111.45 146.3 110.754 141.99 115.19 141.074C119.626 140.157 129.296 147.132 131.16 148.053C132.498 148.712 134.598 150.223 136.572 151.425L137.044 151.715C137.59 152.036 138.123 152.33 138.615 152.563C140.914 154.215 141.61 156.824 142.77 157.552C143.097 157.734 143.47 157.82 143.845 157.8C144.22 157.78 144.581 157.655 144.886 157.439C144.964 157.556 145.037 157.668 145.098 157.777C146.022 159.429 148.252 166.428 141.191 170.078Z" fill="white"/>
<path opacity="0.4" d="M141.191 170.078C141.191 170.078 138.216 175.401 135.058 176.872C131.9 178.343 129.296 177.792 127.44 178.882C125.584 179.971 122.422 180.534 118.149 181.27C113.876 182.005 109.57 182.922 106.518 182.371C105.461 182.171 104.441 181.816 103.49 181.318C105.798 181.145 107.56 180.003 108.374 178.291C109.395 176.168 106.359 176.008 105.631 177.35C104.902 178.693 100.54 178.211 101.309 177.35C102.078 176.49 100.54 172.088 99.7298 171.497C99.3839 171.236 98.5089 171.26 97.5973 171.372C97.8189 170.965 98.1223 170.608 98.489 170.321C98.8558 170.034 99.278 169.824 99.7298 169.704C99.7298 169.704 98.7083 168.9 97.5566 167.883L100.405 169.551C100.405 169.551 106.51 174.777 109.843 177.35C113.176 179.923 119.496 179.312 121.156 177.35C122.817 175.388 115.284 169.278 112.932 167.421C110.653 165.628 109.648 162.625 109.591 162.44C109.79 162.625 115.955 168.522 119.358 172.458C122.833 176.478 126.455 175.272 130.39 173.459C134.326 171.646 132.124 166.46 130.867 165.226C129.609 163.992 124.07 159.24 123.199 157.797C122.329 156.354 116.281 151.256 115.874 150.935C116.281 151.2 122.976 155.481 123.936 156.563C124.896 157.644 127.407 159.377 131.135 162.006C134.863 164.635 137.691 167.686 140.447 162.006C142.339 158.098 138.88 153.753 136.536 151.417L137.008 151.707C137.553 152.028 138.086 152.322 138.579 152.555C140.878 154.207 141.574 156.816 142.734 157.544C143.061 157.726 143.434 157.812 143.808 157.792C144.183 157.772 144.544 157.647 144.85 157.431C144.927 157.548 145 157.66 145.062 157.769C146.022 159.429 148.252 166.428 141.191 170.078Z" fill="#98EB51"/>
<path opacity="0.4" d="M103.486 153.267C104.012 151.991 104.831 150.855 105.88 149.947C106.928 149.04 108.177 148.387 109.526 148.041C109.526 148.041 114.08 151.16 114.08 153.729C114.08 156.298 112.326 158.288 109.07 157.295C105.814 156.302 103.486 153.267 103.486 153.267Z" fill="#98EB51"/>
<path opacity="0.4" d="M114.43 146.77C114.43 146.77 116.294 144.382 119.171 143.651C119.171 143.651 125.165 148.149 122.911 150.533C120.656 152.917 115.358 149.89 114.43 146.77Z" fill="#98EB51"/>
<path opacity="0.4" d="M97.2969 164.474C97.2969 164.474 99.5922 160.929 102.966 159.976C102.966 159.976 109.937 163.863 106.405 166.922C102.872 169.982 98.1352 166.126 97.2969 164.474Z" fill="#98EB51"/>
<path d="M141.192 170.078C141.192 170.078 138.217 175.401 135.059 176.872C131.901 178.343 129.296 177.792 127.44 178.882C125.585 179.971 122.423 180.534 118.149 181.27C113.876 182.005 109.571 182.922 106.518 182.371C103.466 181.821 100.589 179.706 97.9722 177.065C95.6851 174.741 97.138 170.259 99.7385 169.704C99.7385 169.704 95.2822 166.215 94.5415 164.563C93.8009 162.91 93.9799 159.976 96.5764 157.403C97.3233 156.654 98.2231 156.07 99.216 155.691C100.209 155.312 101.272 155.146 102.335 155.204C102.335 155.204 98.3548 151.988 99.9175 148.225C100.483 146.867 101.492 145.07 104.565 144.555C108.964 143.819 111.443 146.3 111.443 146.3C111.443 146.3 110.747 141.99 115.183 141.074C119.619 140.157 129.296 147.132 131.16 148.053C132.605 148.768 134.945 150.465 137.045 151.715C137.59 152.036 138.123 152.33 138.616 152.563C140.915 154.215 141.611 156.824 142.771 157.552C143.098 157.734 143.471 157.82 143.845 157.8C144.22 157.78 144.582 157.655 144.887 157.439C144.964 157.556 145.038 157.668 145.099 157.777C146.022 159.429 148.253 166.428 141.192 170.078Z" stroke="#263238" stroke-linecap="round" stroke-linejoin="round"/>
<path d="M111.455 146.328C112.078 147.743 117.73 152.76 120.172 154.231C122.614 155.703 129.423 163.043 131.404 164.016C133.386 164.989 135.12 168.056 137.472 168.792" stroke="#263238" stroke-linecap="round" stroke-linejoin="round"/>
<path d="M102.352 155.212C105.758 158.026 109.6 162.798 111.455 164.145C113.311 165.491 117.527 170.142 119.387 172.466C121.247 174.79 122.484 176.381 129.793 177.362" stroke="#263238" stroke-linecap="round" stroke-linejoin="round"/>
<path d="M132.38 170.263C132.38 170.263 131.888 174.685 125.055 175.525" stroke="#263238" stroke-linecap="round" stroke-linejoin="round"/>
<path d="M140.574 157.552C140.574 157.552 142.429 162.798 137.473 164.756" stroke="#263238" stroke-linecap="round" stroke-linejoin="round"/>
<path d="M99.75 169.712C99.75 169.712 104.556 173.688 106.518 174.79C108.479 175.891 111.084 178.83 113.066 179.441C114.363 179.795 115.733 179.795 117.03 179.441" stroke="#263238" stroke-linecap="round" stroke-linejoin="round"/>
<path d="M122.166 175.196C121.655 176.042 120.977 176.779 120.172 177.362" stroke="#263238" stroke-linecap="round" stroke-linejoin="round"/>
<path d="M102.352 152.547C102.875 151.27 103.694 150.133 104.743 149.225C105.791 148.318 107.041 147.665 108.391 147.321C108.391 147.321 112.945 150.44 112.945 153.013C112.945 155.586 111.187 157.568 107.931 156.575C104.675 155.582 102.352 152.547 102.352 152.547Z" fill="white" stroke="#263238" stroke-linecap="round" stroke-linejoin="round"/>
<path d="M113.686 146.328C113.686 146.328 115.549 143.94 118.427 143.204C118.427 143.204 124.425 147.703 122.167 150.091C119.908 152.478 114.617 149.427 113.686 146.328Z" fill="white" stroke="#263238" stroke-linecap="round" stroke-linejoin="round"/>
<path d="M96.6816 163.839C96.6816 163.839 98.9728 160.289 102.351 159.341C102.351 159.341 109.318 163.228 105.789 166.287C102.261 169.346 97.52 165.491 96.6816 163.839Z" fill="white" stroke="#263238" stroke-linecap="round" stroke-linejoin="round"/>
<path d="M98.3184 175.352C98.3184 175.352 101.55 174.705 102.343 171.795C102.343 171.795 105.648 174.315 103.743 176.277C100.943 179.167 98.3184 175.352 98.3184 175.352Z" fill="white" stroke="#263238" stroke-linecap="round" stroke-linejoin="round"/>
<path d="M126.602 156.036C127.168 155.726 127.655 155.292 128.025 154.768C128.396 154.243 128.64 153.641 128.738 153.009" stroke="#263238" stroke-linecap="round" stroke-linejoin="round"/>
<path d="M120.75 159.341C120.75 159.341 120.03 163.361 116.07 164.02" stroke="#263238" stroke-linecap="round" stroke-linejoin="round"/>
<path d="M110.812 168.796C110.812 168.796 109.184 171.123 106.791 171.795" stroke="#263238" stroke-linecap="round" stroke-linejoin="round"/>
<path d="M112.277 179.099C111.608 180.058 110.68 180.812 109.6 181.278" stroke="#263238" stroke-linecap="round" stroke-linejoin="round"/>
<path d="M115.198 179.714C115.24 179.988 115.225 180.268 115.156 180.537C115.086 180.806 114.962 181.058 114.791 181.278" stroke="#263238" stroke-linecap="round" stroke-linejoin="round"/>
<path d="M103.652 180.498C104.453 180.432 105.228 180.187 105.92 179.783C106.611 179.378 107.201 178.824 107.645 178.162" stroke="#263238" stroke-linecap="round" stroke-linejoin="round"/>
</svg>
